<?xml version="1.0" encoding="UTF-8" standalone="no"?>
<!-- Created with Inkscape (http://www.inkscape.org/) -->

<svg
   width="8.0389471mm"
   height="13.414015mm"
   viewBox="0 0 8.0389471 13.414015"
   version="1.1"
   id="svg1"
   inkscape:version="1.3.2 (091e20e, 2023-11-25, custom)"
   sodipodi:docname="APP_FONDA.svg"
   xml:space="preserve"
   xmlns:inkscape="http://www.inkscape.org/namespaces/inkscape"
   xmlns:sodipodi="http://sodipodi.sourceforge.net/DTD/sodipodi-0.dtd"
   xmlns="http://www.w3.org/2000/svg"
   xmlns:svg="http://www.w3.org/2000/svg"><sodipodi:namedview
     id="namedview1"
     pagecolor="#ffffff"
     bordercolor="#000000"
     borderopacity="0.25"
     inkscape:showpageshadow="2"
     inkscape:pageopacity="0.0"
     inkscape:pagecheckerboard="0"
     inkscape:deskcolor="#d1d1d1"
     inkscape:document-units="mm"
     inkscape:zoom="0.70710678"
     inkscape:cx="-317.49094"
     inkscape:cy="700.74282"
     inkscape:window-width="1920"
     inkscape:window-height="1017"
     inkscape:window-x="-8"
     inkscape:window-y="-8"
     inkscape:window-maximized="1"
     inkscape:current-layer="layer2"
     showguides="true"
     inkscape:export-bgcolor="#ffffff00" /><defs
     id="defs1" /><g
     id="g141"
     transform="matrix(2.5885215,0,0,2.5885215,-159.07485,39.488393)"><path
       style="display:inline;opacity:0.742824;fill:#b8daf0;fill-opacity:1;stroke:#000000;stroke-width:0.05;stroke-linecap:round;stroke-dasharray:none;stroke-opacity:1;paint-order:markers fill stroke"
       id="path40"
       sodipodi:type="arc"
       sodipodi:cx="63.011555"
       sodipodi:cy="-14.619227"
       sodipodi:rx="1.5230006"
       sodipodi:ry="0.61096138"
       sodipodi:start="0"
       sodipodi:end="6.2474506"
       sodipodi:open="true"
       sodipodi:arc-type="arc"
       d="m 64.534555,-14.619227 a 1.5230006,0.61096138 0 0 1 -1.509394,0.610937 1.5230006,0.61096138 0 0 1 -1.536364,-0.600022 1.5230006,0.61096138 0 0 1 1.481945,-0.621657 1.5230006,0.61096138 0 0 1 1.562841,0.588914" /><path
       style="display:inline;opacity:0.616529;fill:#b8daf0;fill-opacity:1;stroke:#000000;stroke-width:0.049288;stroke-linecap:round;stroke-dasharray:none;paint-order:markers fill stroke"
       id="path48"
       sodipodi:type="arc"
       sodipodi:cx="63.011555"
       sodipodi:cy="-14.60461"
       sodipodi:rx="1.3777834"
       sodipodi:ry="0.48561722"
       sodipodi:start="0"
       sodipodi:end="6.2474506"
       sodipodi:open="true"
       sodipodi:arc-type="arc"
       d="m 64.389338,-14.60461 a 1.3777834,0.48561722 0 0 1 -1.365475,0.485597 1.3777834,0.48561722 0 0 1 -1.389872,-0.476921 1.3777834,0.48561722 0 0 1 1.340642,-0.494119 1.3777834,0.48561722 0 0 1 1.413826,0.468093" /><path
       id="rect48"
       style="display:inline;opacity:0.742824;fill:#b8daf0;fill-opacity:1;stroke:#000000;stroke-width:0.05;stroke-linecap:round;stroke-dasharray:none;paint-order:markers fill stroke"
       d="m 64.506864,-14.559921 c -0.0099,-0.04942 0.02819,0.09298 0.01839,0.16641 l -0.514494,3.853458 c -0.0098,0.07343 -0.05804,0.09557 -0.09097,0.133722 -0.38742,0.4489274 -1.484089,0.373875 -1.808387,-0.0088 -0.03258,-0.03845 -0.08071,-0.06035 -0.09097,-0.133722 l -0.53788,-3.844688 c -0.01371,-0.09799 0.01559,-0.216582 0.03543,-0.170263 0.373822,0.872646 2.988881,0.597175 2.988881,0.0039 z"
       sodipodi:nodetypes="ssssssssss" /><path
       style="display:inline;opacity:0.616529;fill:#24a6f9;fill-opacity:1;stroke:#000000;stroke-width:0.0398036;stroke-linecap:round;stroke-dasharray:none;stroke-opacity:1;paint-order:markers fill stroke"
       id="path140"
       sodipodi:type="arc"
       sodipodi:cx="63.000256"
       sodipodi:cy="-13.28022"
       sodipodi:rx="1.1133957"
       sodipodi:ry="0.39191037"
       sodipodi:start="0"
       sodipodi:end="6.2474506"
       sodipodi:open="true"
       sodipodi:arc-type="arc"
       d="m 64.113651,-13.28022 a 1.1133957,0.39191037 0 0 1 -1.103449,0.391895 1.1133957,0.39191037 0 0 1 -1.123164,-0.384893 1.1133957,0.39191037 0 0 1 1.083381,-0.398772 1.1133957,0.39191037 0 0 1 1.142521,0.377768" /><path
       id="path141"
       style="display:inline;opacity:0.742824;fill:#24a6f9;fill-opacity:1;stroke:#000000;stroke-width:0.040926;stroke-linecap:round;stroke-dasharray:none;stroke-opacity:1;paint-order:markers fill stroke"
       d="m 64.05365,-12.8484 -0.20925,2.1175 c -0.006,0.06033 -0.04751,0.07823 -0.07446,0.109454 -0.317111,0.367456 -1.214756,0.306024 -1.4802,-0.0072 -0.02667,-0.03147 -0.06661,-0.04932 -0.07446,-0.109455 l -0.311399,-2.384541 c -0.01575,-0.120577 0.101905,0.0933 0.294058,0.157599 0.174257,0.05831 0.454713,0.104423 0.722953,0.112182 0.230311,0.0067 0.539219,-0.0197 0.728621,-0.07045 0.282973,-0.07582 0.450264,-0.23944 0.44741,-0.219991 z"
       sodipodi:nodetypes="sssssssssss" /></g></svg>
