<?xml version="1.0" encoding="UTF-8" standalone="no"?>
<!-- Created with Inkscape (http://www.inkscape.org/) -->

<svg
   width="13.005117mm"
   height="19.31662mm"
   viewBox="0 0 13.005117 19.31662"
   version="1.1"
   id="svg1"
   inkscape:version="1.3.2 (091e20e, 2023-11-25, custom)"
   sodipodi:docname="APP_FONDA.svg"
   xml:space="preserve"
   xmlns:inkscape="http://www.inkscape.org/namespaces/inkscape"
   xmlns:sodipodi="http://sodipodi.sourceforge.net/DTD/sodipodi-0.dtd"
   xmlns="http://www.w3.org/2000/svg"
   xmlns:svg="http://www.w3.org/2000/svg"><sodipodi:namedview
     id="namedview1"
     pagecolor="#ffffff"
     bordercolor="#000000"
     borderopacity="0.25"
     inkscape:showpageshadow="2"
     inkscape:pageopacity="0.0"
     inkscape:pagecheckerboard="0"
     inkscape:deskcolor="#d1d1d1"
     inkscape:document-units="mm"
     inkscape:zoom="0.70710678"
     inkscape:cx="-317.49094"
     inkscape:cy="700.74282"
     inkscape:window-width="1920"
     inkscape:window-height="1017"
     inkscape:window-x="-8"
     inkscape:window-y="-8"
     inkscape:window-maximized="1"
     inkscape:current-layer="layer2"
     showguides="true"
     inkscape:export-bgcolor="#ffffff00" /><defs
     id="defs1" /><g
     inkscape:groupmode="layer"
     id="layer2"
     inkscape:label="Capa 2"
     style="display:inline"
     transform="translate(24.576085,-184.89056)"><g
       id="g2065"
       transform="matrix(1.4909859,0,0,1.4909859,17.696206,-60.964218)"><path
         id="rect2059"
         style="opacity:1;fill:#ffffff;stroke:#000000;stroke-width:0.0810001;stroke-linecap:round;paint-order:markers fill stroke"
         d="m -28.219444,169.8625 h 6.69722 c 0.0504,0 0.09097,0.0406 0.09097,0.091 v 5.63888 c 0,0.2409 -0.0053,1.05102 -1.399737,1.79034 -1.08447,0.57499 -3.336329,0.66313 -4.640098,-0.33125 -0.903473,-0.68908 -0.839325,-1.40869 -0.839325,-1.45909 v -5.63888 c 0,-0.0504 0.04057,-0.091 0.09097,-0.091 z"
         sodipodi:nodetypes="sssssssss" /><ellipse
         style="opacity:1;fill:#ffffff;fill-opacity:1;stroke:#000000;stroke-width:0.0810001;stroke-linecap:round;stroke-dasharray:none;stroke-opacity:1;paint-order:markers fill stroke"
         id="path2059"
         cx="-24.870832"
         cy="169.92865"
         rx="3.4248385"
         ry="2.1166666" /><ellipse
         style="opacity:1;fill:#ffffff;fill-opacity:1;stroke:#000000;stroke-width:0.0752922;stroke-linecap:round;stroke-dasharray:none;stroke-opacity:1;paint-order:markers fill stroke"
         id="ellipse2061"
         cx="-24.870832"
         cy="169.92865"
         rx="3.1834996"
         ry="1.9675109" /><path
         id="ellipse2060"
         style="opacity:0.779449;fill:#830505;fill-opacity:1;stroke:#000000;stroke-width:0.0784559;stroke-linecap:round;paint-order:markers fill stroke"
         d="m -21.87467,170.24285 c -0.04052,0.99278 -1.289138,1.57372 -2.930017,1.5557 -1.809991,-0.0199 -3.017016,-0.69718 -3.029236,-1.3738 -0.02112,-1.16951 1.27231,-1.9195 3.045772,-1.9195 1.773463,0 2.955017,0.7199 2.913481,1.7376 z"
         sodipodi:nodetypes="sssss" /><path
         style="opacity:1;fill:#ffffff;fill-opacity:1;stroke:#000000;stroke-width:0.0810001;stroke-linecap:round;stroke-dasharray:none;stroke-opacity:1;paint-order:markers fill stroke"
         d="m -22.56757,172.28527 0.08552,-0.50127 0.330729,-0.24757 c 0,0 0.273361,-0.26078 0.441012,-0.24589 0,0 0.920841,-0.13294 1.266374,0.11242 0.368115,0.2614 0.609305,0.53436 0.698058,0.97703 0.138237,0.68949 0.08932,1.83228 -0.177411,2.48294 -0.135482,0.33049 -0.411379,0.57386 -0.711999,0.76676 -0.2603,0.16702 -0.588969,0.3463 -0.890536,0.41492 -0.251041,0.0571 -0.719294,0.0634 -0.719294,0.0634 l -0.104006,-0.41723 c 0,0 0.383695,0.0183 0.721687,-0.16875 0.20469,-0.11329 0.726424,-0.38721 0.812623,-0.60465 0.212549,-0.5363 0.02624,-2.1141 0.02624,-2.1141 0,0 -0.185182,-0.68419 -0.459697,-0.81083 -0.188191,-0.0868 -0.296047,0.0151 -0.500794,0.0472 -0.196339,0.0308 -0.818511,0.24551 -0.818511,0.24551 z"
         id="path2062"
         sodipodi:nodetypes="cccssssssccsscsscc" /><path
         style="opacity:0.558897;fill:none;fill-opacity:1;stroke:#fffcfc;stroke-width:0.393348;stroke-linecap:round;stroke-dasharray:none;stroke-opacity:1;paint-order:markers fill stroke"
         d="m -26.80802,170.01183 c 0.364862,-0.48687 0.434926,-1.42358 0.256222,-1.84977 -0.661097,-0.73711 -0.171385,-1.46561 -0.192232,-1.99638"
         id="path2063"
         sodipodi:nodetypes="ccc" /><path
         style="opacity:0.558897;fill:none;fill-opacity:1;stroke:#fffcfc;stroke-width:0.365075;stroke-linecap:round;stroke-dasharray:none;stroke-opacity:1;paint-order:markers fill stroke"
         d="m -23.211487,169.99292 c 0.388221,-0.39417 0.46277,-1.15251 0.272626,-1.49755 -0.70342,-0.59676 -0.182357,-1.18653 -0.204538,-1.61624"
         id="path2064"
         sodipodi:nodetypes="ccc" /><path
         style="opacity:0.558897;fill:none;fill-opacity:1;stroke:#fffcfc;stroke-width:0.414519;stroke-linecap:round;stroke-dasharray:none;stroke-opacity:1;paint-order:markers fill stroke"
         d="m -24.867011,169.58788 c 0.347363,-0.56793 0.414067,-1.6606 0.243933,-2.15774 -0.629389,-0.85985 -0.163165,-1.70962 -0.183012,-2.32878"
         id="path2065"
         sodipodi:nodetypes="ccc" /></g></g></svg>
