<?xml version="1.0" encoding="UTF-8" standalone="no"?>
<!-- Created with Inkscape (http://www.inkscape.org/) -->

<svg
   width="23.028793mm"
   height="22.144112mm"
   viewBox="0 0 23.028793 22.144112"
   version="1.1"
   id="svg1"
   inkscape:version="1.3.2 (091e20e, 2023-11-25, custom)"
   sodipodi:docname="APP_FONDA.svg"
   xml:space="preserve"
   xmlns:inkscape="http://www.inkscape.org/namespaces/inkscape"
   xmlns:sodipodi="http://sodipodi.sourceforge.net/DTD/sodipodi-0.dtd"
   xmlns="http://www.w3.org/2000/svg"
   xmlns:svg="http://www.w3.org/2000/svg"><sodipodi:namedview
     id="namedview1"
     pagecolor="#ffffff"
     bordercolor="#000000"
     borderopacity="0.25"
     inkscape:showpageshadow="2"
     inkscape:pageopacity="0.0"
     inkscape:pagecheckerboard="0"
     inkscape:deskcolor="#d1d1d1"
     inkscape:document-units="mm"
     inkscape:zoom="0.70710678"
     inkscape:cx="-317.49094"
     inkscape:cy="700.74282"
     inkscape:window-width="1920"
     inkscape:window-height="1017"
     inkscape:window-x="-8"
     inkscape:window-y="-8"
     inkscape:window-maximized="1"
     inkscape:current-layer="layer2"
     showguides="true"
     inkscape:export-bgcolor="#ffffff00" /><defs
     id="defs1" /><g
     id="g1815"
     transform="translate(35.184713,-212.14115)"><path
       style="display:inline;fill:#f4f4f4;fill-opacity:1;stroke:#000000;stroke-width:0.381;stroke-linecap:round;stroke-dasharray:none;stroke-opacity:1;paint-order:markers fill stroke"
       d="m -34.994217,222.99497 4.209495,8.79317 c 0.622762,2.6763 9.850167,3.28522 12.675257,0.42095 l 4.349811,-9.58829"
       id="path1753"
       sodipodi:nodetypes="cccc" /><ellipse
       style="display:inline;fill:#f4f4f4;fill-opacity:1;stroke:#000000;stroke-width:0.481;stroke-linecap:round;stroke-dasharray:none;stroke-opacity:1;paint-order:markers fill stroke"
       id="ellipse1753"
       cx="-24.353058"
       cy="222.45825"
       rx="10.583333"
       ry="4.9642615" /><path
       style="display:inline;fill:#f1cd3b;fill-opacity:1;stroke:#ff4809;stroke-width:0.281001;stroke-linecap:round;stroke-dasharray:none;stroke-opacity:1;paint-order:markers fill stroke"
       d="m -31.918292,225.6587 c -0.679592,-0.52847 -1.273128,-0.96373 -1.396847,-1.81568 -0.08156,-0.56162 0.07255,-1.20495 0.446877,-1.6315 0.472839,-0.53879 1.232881,-0.97282 1.90573,-1.22011 1.029173,-0.37823 2.121188,-0.57488 3.205254,-0.7394 1.35864,-0.20618 2.737707,-0.35218 4.111154,-0.30684 1.483262,0.049 2.971481,0.25213 4.408337,0.6235 1.090377,0.2818 2.271854,0.50901 3.155643,1.20705 0.512402,0.4047 1.095209,0.9648 1.104629,1.61769 0.0098,0.67448 -1.092487,1.70344 -1.092487,1.70344 l -1.621835,0.8708 -2.456945,0.87443 -2.622995,0.19807 -2.619949,0.1976 -2.342928,-0.43701 -2.108496,-0.29635 c 0,0 -1.485492,-0.38716 -2.075142,-0.84569 z"
       id="path1754"
       sodipodi:nodetypes="ssssssssscccccccs" /><ellipse
       style="fill:#1aa327;fill-opacity:1;stroke:#008812;stroke-width:0.285;stroke-linecap:round;stroke-dasharray:none;stroke-opacity:1;paint-order:markers fill stroke"
       id="ellipse1798"
       cx="-169.82076"
       cy="158.0549"
       rx="2.1237645"
       ry="2.436166"
       transform="rotate(-43.451767)" /><ellipse
       style="fill:#04de18;fill-opacity:1;stroke:#008812;stroke-width:0.152535;stroke-linecap:round;stroke-dasharray:none;stroke-opacity:1;paint-order:markers fill stroke"
       id="ellipse1799"
       cx="-12.388225"
       cy="235.69588"
       rx="1.7567874"
       ry="2.0021167"
       transform="matrix(0.93382571,0.35772832,-0.00975559,0.99995241,0,0)" /><path
       style="opacity:1;fill:#ffc5a9;fill-opacity:1;stroke:#000000;stroke-width:0.319801;stroke-linecap:round;stroke-dasharray:none;stroke-opacity:1;paint-order:markers fill stroke"
       d="m -20.30063,219.28739 0.808698,-2.0438 0.763493,-1.9614 0.07796,-2.11631 c 0,0 0.846553,-0.73464 1.299027,-0.58876 0.283878,0.0915 0.445771,0.77586 0.445771,0.77586 0,0 0.905342,-0.32332 1.230205,-0.18063 0.508562,0.22338 0.669058,0.90223 0.53821,1.37753 -0.161092,0.58515 -1.775981,1.02374 -1.775981,1.02374 l -1.030199,1.74536 -0.697901,1.35815 -0.488207,1.24903 z"
       id="path1799"
       sodipodi:nodetypes="ccccscssccccc" /><path
       style="opacity:1;fill:#dc941d;fill-opacity:1;stroke:#000000;stroke-width:0.319802;stroke-linecap:round;stroke-dasharray:none;stroke-opacity:1;paint-order:markers fill stroke"
       d="m -20.403436,219.40669 -1.806703,1.05392 -0.677513,0.97862 1.543226,1.01627 2.408937,-0.0377 0.225838,-0.26347 -0.376398,-2.1831 z"
       id="path1800" /><path
       style="display:inline;opacity:0.457851;fill:none;fill-opacity:0.5;stroke:#ffff00;stroke-width:0.865356;stroke-linecap:round;stroke-dasharray:none;stroke-opacity:1;paint-order:markers fill stroke"
       d="m -29.089846,222.76689 c 2.233988,-2.59639 -2.677801,-6.58107 0.520685,-8.94188"
       id="path1813"
       sodipodi:nodetypes="cc" /><path
       style="display:inline;opacity:0.457851;fill:none;fill-opacity:0.5;stroke:#ffff00;stroke-width:0.865356;stroke-linecap:round;stroke-dasharray:none;stroke-opacity:1;paint-order:markers fill stroke"
       d="m -25.500007,221.51569 c 2.233991,-2.59636 -2.677793,-6.58107 0.520691,-8.94186"
       id="path1814"
       sodipodi:nodetypes="cc" /><path
       style="display:inline;opacity:0.457851;fill:none;fill-opacity:0.5;stroke:#ffff00;stroke-width:0.865356;stroke-linecap:round;stroke-dasharray:none;stroke-opacity:1;paint-order:markers fill stroke"
       d="m -22.219081,223.33989 c 1.287011,-2.80683 -1.239789,-5.52887 0.836346,-7.36358"
       id="path1815"
       sodipodi:nodetypes="cc" /></g></svg>
