<?xml version="1.0" encoding="UTF-8" standalone="no"?>
<!-- Created with Inkscape (http://www.inkscape.org/) -->

<svg
   width="20.624594mm"
   height="30.42836mm"
   viewBox="0 0 20.624594 30.42836"
   version="1.1"
   id="svg1"
   inkscape:version="1.3.2 (091e20e, 2023-11-25, custom)"
   sodipodi:docname="APP_FONDA.svg"
   xml:space="preserve"
   xmlns:inkscape="http://www.inkscape.org/namespaces/inkscape"
   xmlns:sodipodi="http://sodipodi.sourceforge.net/DTD/sodipodi-0.dtd"
   xmlns="http://www.w3.org/2000/svg"
   xmlns:svg="http://www.w3.org/2000/svg"><sodipodi:namedview
     id="namedview1"
     pagecolor="#ffffff"
     bordercolor="#000000"
     borderopacity="0.25"
     inkscape:showpageshadow="2"
     inkscape:pageopacity="0.0"
     inkscape:pagecheckerboard="0"
     inkscape:deskcolor="#d1d1d1"
     inkscape:document-units="mm"
     inkscape:zoom="0.70710678"
     inkscape:cx="-317.49094"
     inkscape:cy="700.74282"
     inkscape:window-width="1920"
     inkscape:window-height="1017"
     inkscape:window-x="-8"
     inkscape:window-y="-8"
     inkscape:window-maximized="1"
     inkscape:current-layer="layer2"
     showguides="true"
     inkscape:export-bgcolor="#ffffff00" /><defs
     id="defs1" /><g
     id="g2078"
     transform="translate(59.367322,-270.45403)"><g
       id="g1520"
       transform="matrix(2.1622053,0,0,2.1622053,97.23554,-88.67573)"><path
         style="fill:#ff9a83;fill-opacity:1;stroke:#000000;stroke-width:0.18;stroke-linecap:round;stroke-dasharray:none;stroke-opacity:1;paint-order:markers fill stroke"
         d="m -69.589933,174.12945 c -1.373702,0.89551 -3.313624,0.61216 -2.590867,-1.91531 l 6.285869,-5.75532 c 0.538845,-0.24747 3.076898,-0.94121 2.057976,1.63702 z"
         id="path1509"
         sodipodi:nodetypes="ccccc" /><path
         style="fill:#ee502b;fill-opacity:1;stroke:#000000;stroke-width:0.18;stroke-linecap:round;stroke-dasharray:none;stroke-opacity:1;paint-order:markers fill stroke"
         d="m -71.867447,172.29336 c 0,0 0.641603,-0.10684 0.942578,-0.0165 0.345593,0.10373 0.674727,0.32451 0.892969,0.61185 0.144442,0.19017 0.264583,0.77721 0.264583,0.77721"
         id="path1510"
         sodipodi:nodetypes="cssc" /><g
         id="g1513"
         transform="matrix(0.96769809,0,0,0.96769809,-3.0233307,5.211212)"><path
           style="opacity:1;fill:#ffe0a8;fill-opacity:1;stroke:#000000;stroke-width:0.08;stroke-linecap:round;stroke-dasharray:none;stroke-opacity:1;paint-order:markers fill stroke"
           d="m -70.953376,172.69453 -0.479414,0.40926 0.02339,0.58465 0.549572,0.36249 0.982209,-0.8419 -0.409258,-0.44434 z"
           id="path1511"
           sodipodi:nodetypes="ccccccc" /><path
           style="opacity:1;fill:#ffe0a8;fill-opacity:1;stroke:#000000;stroke-width:0.0799999;stroke-linecap:round;stroke-dasharray:none;stroke-opacity:1;paint-order:markers fill stroke"
           d="m -70.836446,173.86384 0.02339,-0.63143 0.362485,-0.29232"
           id="path1512" /><path
           style="opacity:1;fill:#ffe0a8;fill-opacity:1;stroke:#000000;stroke-width:0.0799999;stroke-linecap:round;stroke-dasharray:none;stroke-opacity:1;paint-order:markers fill stroke"
           d="m -71.234009,173.18564 0.245552,0.11693"
           id="path1513" /></g><g
         id="g1516"
         transform="matrix(0.85464141,0,0,0.85464141,-10.566091,25.631147)"><path
           style="opacity:1;fill:#ffe0a8;fill-opacity:1;stroke:#000000;stroke-width:0.08;stroke-linecap:round;stroke-dasharray:none;stroke-opacity:1;paint-order:markers fill stroke"
           d="m -70.953376,172.69453 -0.479414,0.40926 0.02339,0.58465 0.549572,0.36249 0.982209,-0.8419 -0.409258,-0.44434 z"
           id="path1514"
           sodipodi:nodetypes="ccccccc" /><path
           style="opacity:1;fill:#ffe0a8;fill-opacity:1;stroke:#000000;stroke-width:0.0799999;stroke-linecap:round;stroke-dasharray:none;stroke-opacity:1;paint-order:markers fill stroke"
           d="m -70.836446,173.86384 0.02339,-0.63143 0.362485,-0.29232"
           id="path1515" /><path
           style="opacity:1;fill:#ffe0a8;fill-opacity:1;stroke:#000000;stroke-width:0.0799999;stroke-linecap:round;stroke-dasharray:none;stroke-opacity:1;paint-order:markers fill stroke"
           d="m -71.234009,173.18564 0.245552,0.11693"
           id="path1516" /></g><g
         id="g1519"
         transform="matrix(0.91453162,0,0,0.80264338,-5.9491675,34.061754)"><path
           style="opacity:1;fill:#ffe0a8;fill-opacity:1;stroke:#000000;stroke-width:0.08;stroke-linecap:round;stroke-dasharray:none;stroke-opacity:1;paint-order:markers fill stroke"
           d="m -70.953376,172.69453 -0.479414,0.40926 0.02339,0.58465 0.549572,0.36249 0.982209,-0.8419 -0.409258,-0.44434 z"
           id="path1517"
           sodipodi:nodetypes="ccccccc" /><path
           style="opacity:1;fill:#ffe0a8;fill-opacity:1;stroke:#000000;stroke-width:0.0799999;stroke-linecap:round;stroke-dasharray:none;stroke-opacity:1;paint-order:markers fill stroke"
           d="m -70.836446,173.86384 0.02339,-0.63143 0.362485,-0.29232"
           id="path1518" /><path
           style="opacity:1;fill:#ffe0a8;fill-opacity:1;stroke:#000000;stroke-width:0.0799999;stroke-linecap:round;stroke-dasharray:none;stroke-opacity:1;paint-order:markers fill stroke"
           d="m -71.234009,173.18564 0.245552,0.11693"
           id="path1519" /></g></g><path
       style="fill:#ffffff;fill-opacity:1;stroke:#eeb597;stroke-width:0.946017;stroke-linecap:round;stroke-dasharray:none;stroke-opacity:1;paint-order:markers fill stroke"
       d="m -57.726209,299.61502 v 0 l 12.04509,-13.88875 c 0,0 5.435656,1.61123 6.268356,3.93312 0.69977,1.95121 -0.591776,4.34817 -1.966539,5.89964 -1.71372,1.93396 -4.542847,2.53694 -7.005824,3.31851 -1.82329,0.5786 -3.74359,0.88235 -5.653814,0.98328 -1.2301,0.0651 -3.687269,-0.24597 -3.687269,-0.24597 z"
       id="path1721"
       sodipodi:nodetypes="cccssssc" /><path
       style="fill:#ee502b;fill-opacity:1;stroke:#000000;stroke-width:0.420452;stroke-linecap:round;stroke-dasharray:none;stroke-opacity:1;paint-order:markers fill stroke"
       d="m -58.156391,299.12336 v 0 l 12.04509,-13.88875 c 0,0 5.435659,1.61123 6.268359,3.93311 0.699767,1.95122 -0.591777,4.34815 -1.966539,5.89962 -1.713721,1.93399 -4.542847,2.53696 -7.005826,3.31853 -1.823291,0.57861 -3.743588,0.88231 -5.653812,0.98329 -1.230103,0.0651 -3.687272,-0.24597 -3.687272,-0.24597 z"
       id="path1722"
       sodipodi:nodetypes="cccssssc" /></g></svg>
