<?xml version="1.0" encoding="UTF-8" standalone="no"?>
<!-- Created with Inkscape (http://www.inkscape.org/) -->

<svg
   width="27.124773mm"
   height="12.700259mm"
   viewBox="0 0 27.124773 12.700259"
   version="1.1"
   id="svg1"
   inkscape:version="1.3.2 (091e20e, 2023-11-25, custom)"
   sodipodi:docname="APP_FONDA.svg"
   xml:space="preserve"
   xmlns:inkscape="http://www.inkscape.org/namespaces/inkscape"
   xmlns:sodipodi="http://sodipodi.sourceforge.net/DTD/sodipodi-0.dtd"
   xmlns="http://www.w3.org/2000/svg"
   xmlns:svg="http://www.w3.org/2000/svg"><sodipodi:namedview
     id="namedview1"
     pagecolor="#ffffff"
     bordercolor="#000000"
     borderopacity="0.25"
     inkscape:showpageshadow="2"
     inkscape:pageopacity="0.0"
     inkscape:pagecheckerboard="0"
     inkscape:deskcolor="#d1d1d1"
     inkscape:document-units="mm"
     inkscape:zoom="0.70710678"
     inkscape:cx="-317.49094"
     inkscape:cy="700.74282"
     inkscape:window-width="1920"
     inkscape:window-height="1017"
     inkscape:window-x="-8"
     inkscape:window-y="-8"
     inkscape:window-maximized="1"
     inkscape:current-layer="layer2"
     showguides="true"
     inkscape:export-bgcolor="#ffffff00" /><defs
     id="defs1" /><g
     id="g1027"
     transform="translate(41.240575,-154.16327)"><path
       style="fill:#ffffff;fill-opacity:1;stroke:#000000;stroke-width:0.161255;stroke-linecap:round;stroke-dasharray:none;stroke-opacity:1;paint-order:markers fill stroke"
       id="path214"
       sodipodi:type="arc"
       sodipodi:cx="-27.678167"
       sodipodi:cy="160.51341"
       sodipodi:rx="13.481741"
       sodipodi:ry="6.2694817"
       sodipodi:start="0"
       sodipodi:end="6.2474506"
       sodipodi:open="true"
       sodipodi:arc-type="arc"
       d="m -14.196426,160.51341 a 13.481741,6.2694817 0 0 1 -13.361301,6.26923 13.481741,6.2694817 0 0 1 -13.600029,-6.15721 13.481741,6.2694817 0 0 1 13.118307,-6.37925 13.481741,6.2694817 0 0 1 13.834416,6.04324" /><path
       style="opacity:0.616529;fill:#ffffff;fill-opacity:1;stroke:#000000;stroke-width:0.161255;stroke-linecap:round;stroke-dasharray:none;stroke-opacity:1;paint-order:markers fill stroke"
       id="path215"
       sodipodi:type="arc"
       sodipodi:cx="-27.678173"
       sodipodi:cy="160.51341"
       sodipodi:rx="8.2527351"
       sodipodi:ry="3.8378108"
       sodipodi:start="0"
       sodipodi:end="6.2474506"
       sodipodi:open="true"
       sodipodi:arc-type="arc"
       d="m -19.425438,160.51341 a 8.2527351,3.8378108 0 0 1 -8.179009,3.83766 8.2527351,3.8378108 0 0 1 -8.325144,-3.76909 8.2527351,3.8378108 0 0 1 8.030263,-3.905 8.2527351,3.8378108 0 0 1 8.468621,3.69932" /><path
       style="opacity:1;fill:#703122;fill-opacity:1;stroke:#000000;stroke-width:0.194455;stroke-linecap:round;stroke-dasharray:none;stroke-opacity:1;paint-order:markers fill stroke"
       d="m -32.189085,155.42992 c -0.507214,0.10111 -0.87596,0.56321 -1.246047,0.92448 -0.607957,0.59348 -0.88743,1.50063 -1.567603,2.00974 -1.049708,0.78572 -2.679299,0.57418 -3.657746,1.44704 -0.827497,0.7382 -1.921512,1.88332 -1.567606,2.93423 0.461121,1.36928 2.556374,1.3897 3.939111,1.80878 1.791832,0.54306 3.678891,0.7575 5.54691,0.88428 1.778342,0.12081 3.577086,0.0992 5.345936,-0.12056 1.73209,-0.21512 3.502678,-0.47306 5.104765,-1.16566 0.948244,-0.40994 1.820898,-1.0196 2.57248,-1.72837 0.869514,-0.81997 2.240783,-1.66074 2.170531,-2.85385 -0.06349,-1.07835 -1.273086,-1.87229 -2.250919,-2.33132 -0.4865,-0.22849 -1.077372,-0.034 -1.607802,-0.12056 -0.914056,-0.149 -1.77725,-0.54545 -2.693063,-0.68332 -1.578636,-0.23772 -3.190748,-0.12858 -4.783207,-0.24112 -1.180973,-0.0834 -2.369879,-0.12373 -3.53716,-0.32158 -0.599136,-0.10161 -1.172616,-0.56095 -1.76858,-0.44221 z"
       id="path964"
       sodipodi:nodetypes="sssssasssssssssss" /><path
       style="opacity:1;fill:#ffffff;fill-opacity:1;stroke:#eeb597;stroke-width:0.437524;stroke-linecap:round;stroke-dasharray:none;stroke-opacity:1;paint-order:markers fill stroke"
       d="m -37.396724,162.61829 v 0 l 5.570743,-6.42342 c 0,0 2.513941,0.74518 2.899057,1.81903 0.323637,0.90242 -0.273691,2.01099 -0.909506,2.72853 -0.79258,0.89444 -2.101025,1.17332 -3.240129,1.53478 -0.843255,0.2676 -1.731376,0.40807 -2.614837,0.45476 -0.56891,0.0301 -1.705328,-0.11376 -1.705328,-0.11376 z"
       id="path955"
       sodipodi:nodetypes="cccssssc" /><path
       style="opacity:1;fill:#ee502b;fill-opacity:1;stroke:#000000;stroke-width:0.194455;stroke-linecap:round;stroke-dasharray:none;stroke-opacity:1;paint-order:markers fill stroke"
       d="m -37.595679,162.3909 v 0 l 5.570743,-6.42342 c 0,0 2.513942,0.74518 2.899058,1.81903 0.323637,0.90242 -0.273691,2.01099 -0.909506,2.72853 -0.79258,0.89444 -2.101025,1.17331 -3.240129,1.53478 -0.843255,0.2676 -1.731376,0.40807 -2.614837,0.45476 -0.568911,0.0301 -1.705329,-0.11376 -1.705329,-0.11376 z"
       id="path221"
       sodipodi:nodetypes="cccssssc" /><path
       style="opacity:1;fill:#ffffff;fill-opacity:1;stroke:#eeb597;stroke-width:0.437524;stroke-linecap:round;stroke-dasharray:none;stroke-opacity:1;paint-order:markers fill stroke"
       d="m -33.815533,162.95936 v 0 l 5.570744,-6.42341 c 0,0 2.513941,0.74517 2.899057,1.81903 0.323637,0.90242 -0.273691,2.01098 -0.909506,2.72852 -0.79258,0.89445 -2.101025,1.17332 -3.240129,1.53479 -0.843255,0.26759 -1.731376,0.40806 -2.614837,0.45476 -0.56891,0.0301 -1.705329,-0.11376 -1.705329,-0.11376 z"
       id="path956"
       sodipodi:nodetypes="cccssssc" /><path
       style="opacity:1;fill:#ee502b;fill-opacity:1;stroke:#000000;stroke-width:0.194455;stroke-linecap:round;stroke-dasharray:none;stroke-opacity:1;paint-order:markers fill stroke"
       d="m -34.014487,162.73197 v 0 l 5.570743,-6.42341 c 0,0 2.513941,0.74517 2.899058,1.81903 0.323636,0.90242 -0.273691,2.01098 -0.909506,2.72852 -0.79258,0.89445 -2.101026,1.17332 -3.24013,1.53479 -0.843255,0.26759 -1.731375,0.40806 -2.614837,0.45475 -0.56891,0.0301 -1.705328,-0.11375 -1.705328,-0.11375 z"
       id="path957"
       sodipodi:nodetypes="cccssssc" /><path
       style="opacity:1;fill:#ffffff;fill-opacity:1;stroke:#eeb597;stroke-width:0.437524;stroke-linecap:round;stroke-dasharray:none;stroke-opacity:1;paint-order:markers fill stroke"
       d="m -30.234341,163.35727 v 0 l 5.570743,-6.42342 c 0,0 2.513942,0.74518 2.899058,1.81903 0.323636,0.90242 -0.273691,2.01099 -0.909506,2.72853 -0.79258,0.89444 -2.101026,1.17331 -3.24013,1.53478 -0.843255,0.2676 -1.731375,0.40807 -2.614836,0.45476 -0.568911,0.0301 -1.705329,-0.11376 -1.705329,-0.11376 z"
       id="path958"
       sodipodi:nodetypes="cccssssc" /><path
       style="opacity:1;fill:#ee502b;fill-opacity:1;stroke:#000000;stroke-width:0.194455;stroke-linecap:round;stroke-dasharray:none;stroke-opacity:1;paint-order:markers fill stroke"
       d="m -30.433295,163.12988 v 0 l 5.570743,-6.42342 c 0,0 2.513941,0.74518 2.899057,1.81903 0.323637,0.90242 -0.273691,2.01098 -0.909506,2.72852 -0.79258,0.89445 -2.101025,1.17332 -3.240129,1.53479 -0.843255,0.2676 -1.731376,0.40806 -2.614837,0.45476 -0.56891,0.0301 -1.705328,-0.11376 -1.705328,-0.11376 z"
       id="path959"
       sodipodi:nodetypes="cccssssc" /><path
       style="opacity:1;fill:#ffffff;fill-opacity:1;stroke:#eeb597;stroke-width:0.437524;stroke-linecap:round;stroke-dasharray:none;stroke-opacity:1;paint-order:markers fill stroke"
       d="m -30.234341,163.35727 v 0 l 5.570743,-6.42342 c 0,0 2.513942,0.74518 2.899058,1.81903 0.323636,0.90242 -0.273691,2.01099 -0.909506,2.72853 -0.79258,0.89444 -2.101026,1.17331 -3.24013,1.53478 -0.843255,0.2676 -1.731375,0.40807 -2.614836,0.45476 -0.568911,0.0301 -1.705329,-0.11376 -1.705329,-0.11376 z"
       id="path960"
       sodipodi:nodetypes="cccssssc" /><path
       style="opacity:1;fill:#ee502b;fill-opacity:1;stroke:#000000;stroke-width:0.194455;stroke-linecap:round;stroke-dasharray:none;stroke-opacity:1;paint-order:markers fill stroke"
       d="m -30.433295,163.12988 v 0 l 5.570743,-6.42342 c 0,0 2.513941,0.74518 2.899057,1.81903 0.323637,0.90242 -0.273691,2.01098 -0.909506,2.72852 -0.79258,0.89445 -2.101025,1.17332 -3.240129,1.53479 -0.843255,0.2676 -1.731376,0.40806 -2.614837,0.45476 -0.56891,0.0301 -1.705328,-0.11376 -1.705328,-0.11376 z"
       id="path961"
       sodipodi:nodetypes="cccssssc" /><path
       style="opacity:1;fill:#ffffff;fill-opacity:1;stroke:#eeb597;stroke-width:0.437524;stroke-linecap:round;stroke-dasharray:none;stroke-opacity:1;paint-order:markers fill stroke"
       d="m -27.219716,163.51806 v 0 l 5.570743,-6.42342 c 0,0 2.513941,0.74518 2.899057,1.81903 0.323637,0.90242 -0.273691,2.01099 -0.909506,2.72853 -0.79258,0.89444 -2.101025,1.17331 -3.240129,1.53478 -0.843255,0.2676 -1.731376,0.40807 -2.614837,0.45476 -0.56891,0.0301 -1.705328,-0.11376 -1.705328,-0.11376 z"
       id="path962"
       sodipodi:nodetypes="cccssssc" /><path
       style="opacity:1;fill:#ee502b;fill-opacity:1;stroke:#000000;stroke-width:0.194455;stroke-linecap:round;stroke-dasharray:none;stroke-opacity:1;paint-order:markers fill stroke"
       d="m -27.418671,163.29067 v 0 l 5.570743,-6.42342 c 0,0 2.513942,0.74518 2.899058,1.81903 0.323636,0.90242 -0.273691,2.01098 -0.909506,2.72852 -0.79258,0.89445 -2.101025,1.17332 -3.24013,1.53479 -0.843255,0.2676 -1.731375,0.40806 -2.614836,0.45476 -0.568911,0.0301 -1.705329,-0.11376 -1.705329,-0.11376 z"
       id="path963"
       sodipodi:nodetypes="cccssssc" /><path
       style="opacity:0.718045;fill:#703122;fill-opacity:1;stroke:#000000;stroke-width:0.0729207;stroke-linecap:round;stroke-dasharray:none;stroke-opacity:1;paint-order:markers fill stroke"
       d="m -32.564962,157.07597 c 0,0 1.383945,0.36786 1.961129,0.7674 0.104812,0.0727 0.12941,0.26769 0.255801,0.28422 0.25795,0.0338 0.39623,-0.38918 0.653713,-0.42632 0.978992,-0.14122 1.867652,1.02176 2.842211,0.85266 0.220317,-0.0382 0.320092,-0.35758 0.540021,-0.39793 0.832016,-0.15264 1.671063,1.02515 2.444307,0.68215 0.193653,-0.0858 0.08955,-0.4849 0.284221,-0.56844 1.192486,-0.51178 3.1887,-0.0455 3.723306,1.13688 0.227075,0.50226 -0.277298,1.13229 -0.682131,1.50637 -0.717543,0.66305 -1.808641,0.75986 -2.756955,0.99479 -0.529307,0.13101 -1.074751,0.228 -1.620057,0.22727 -0.937882,-0.001 -1.851984,-0.30617 -2.785372,-0.39791 -0.698738,-0.0685 -1.404071,-0.0496 -2.103242,-0.11375 -1.027445,-0.0943 -2.039522,-0.33894 -3.069592,-0.39793 -0.652709,-0.0374 -1.308339,0.0644 -1.96113,0.0284 -0.305071,-0.017 -0.932529,0.19081 -0.909508,-0.11376 0.115725,-1.5316 3.299346,-4.05522 3.183278,-4.06414 z"
       id="path989"
       sodipodi:nodetypes="cssssssssssssssssc" /><g
       id="g989"
       transform="matrix(2.4306901,0,0,2.4306901,27.206846,-110.94503)"><path
         style="opacity:1;fill:#ffffff;fill-opacity:1;stroke:#000000;stroke-width:0.03;stroke-linecap:round;stroke-dasharray:none;stroke-opacity:1;paint-order:markers fill stroke"
         d="m -22.549255,111.77242 -0.02479,-0.37207 0.338997,0.10749 -0.04134,0.3638 z"
         id="path965" /><path
         style="opacity:1;fill:#ffffff;fill-opacity:1;stroke:#000000;stroke-width:0.03;stroke-linecap:round;stroke-dasharray:none;stroke-opacity:1;paint-order:markers fill stroke"
         d="m -23.491834,112.18584 0.03307,-0.0413 0.148828,-0.678 0.388606,0.43822 -0.421679,0.339 z"
         id="path966" /><path
         style="opacity:1;fill:#ffffff;fill-opacity:1;stroke:#000000;stroke-width:0.03;stroke-linecap:round;stroke-dasharray:none;stroke-opacity:1;paint-order:markers fill stroke"
         d="m -23.781221,111.68148 0.03307,-0.0413 0.281119,-0.42168 0.297656,0.3142 z"
         id="path967"
         sodipodi:nodetypes="ccccc" /><path
         style="opacity:1;fill:#ffffff;fill-opacity:1;stroke:#000000;stroke-width:0.03;stroke-linecap:round;stroke-dasharray:none;stroke-opacity:1;paint-order:markers fill stroke"
         d="m -22.358568,112.42743 -0.323106,-0.18615 0.277749,-0.2221 0.138921,0.23654 z"
         id="path968"
         sodipodi:nodetypes="ccccc" /><path
         style="opacity:1;fill:#ffffff;fill-opacity:1;stroke:#000000;stroke-width:0.0310164;stroke-linecap:round;stroke-dasharray:none;stroke-opacity:1;paint-order:markers fill stroke"
         d="m -21.976667,111.80688 -0.01528,-0.20474 0.183179,-0.003 0.110481,0.26021 z"
         id="path969"
         sodipodi:nodetypes="ccccc" /><path
         style="opacity:1;fill:#ffffff;fill-opacity:1;stroke:#000000;stroke-width:0.0310164;stroke-linecap:round;stroke-dasharray:none;stroke-opacity:1;paint-order:markers fill stroke"
         d="m -21.595386,111.28074 0.115838,-0.25586 0.201392,0.28888 -0.09786,0.17836 z"
         id="path970"
         sodipodi:nodetypes="ccccc" /><path
         style="opacity:1;fill:#ffffff;fill-opacity:1;stroke:#000000;stroke-width:0.0310164;stroke-linecap:round;stroke-dasharray:none;stroke-opacity:1;paint-order:markers fill stroke"
         d="m -21.978322,111.02771 -0.252165,-0.0599 0.187202,-0.18406 0.226466,-0.002 z"
         id="path971"
         sodipodi:nodetypes="ccccc" /><path
         style="opacity:1;fill:#ffffff;fill-opacity:1;stroke:#000000;stroke-width:0.03;stroke-linecap:round;stroke-dasharray:none;stroke-opacity:1;paint-order:markers fill stroke"
         d="m -25.18682,111.90471 -0.02479,-0.37207 0.338997,0.10749 -0.04134,0.3638 z"
         id="path972" /><path
         style="opacity:1;fill:#ffffff;fill-opacity:1;stroke:#000000;stroke-width:0.0310164;stroke-linecap:round;stroke-dasharray:none;stroke-opacity:1;paint-order:markers fill stroke"
         d="m -24.630768,111.99704 -0.01528,-0.20474 0.183179,-0.003 0.110481,0.26021 z"
         id="path973"
         sodipodi:nodetypes="ccccc" /><path
         style="opacity:1;fill:#ffffff;fill-opacity:1;stroke:#000000;stroke-width:0.03;stroke-linecap:round;stroke-dasharray:none;stroke-opacity:1;paint-order:markers fill stroke"
         d="m -24.302119,112.15276 -0.02479,-0.37207 0.338997,0.10749 -0.04134,0.3638 z"
         id="path974" /><path
         style="opacity:1;fill:#ffffff;fill-opacity:1;stroke:#000000;stroke-width:0.0310164;stroke-linecap:round;stroke-dasharray:none;stroke-opacity:1;paint-order:markers fill stroke"
         d="m -24.134674,111.53402 -0.01528,-0.20474 0.183179,-0.003 0.110481,0.26021 z"
         id="path975"
         sodipodi:nodetypes="ccccc" /><path
         style="opacity:1;fill:#ffffff;fill-opacity:1;stroke:#000000;stroke-width:0.03;stroke-linecap:round;stroke-dasharray:none;stroke-opacity:1;paint-order:markers fill stroke"
         d="m -23.103226,110.9208 -0.02479,-0.37207 0.338997,0.10749 -0.04134,0.3638 z"
         id="path976" /><path
         style="opacity:1;fill:#ffffff;fill-opacity:1;stroke:#000000;stroke-width:0.0310164;stroke-linecap:round;stroke-dasharray:none;stroke-opacity:1;paint-order:markers fill stroke"
         d="m -22.547174,111.17849 -0.01528,-0.20474 0.183179,-0.003 0.110481,0.26021 z"
         id="path977"
         sodipodi:nodetypes="ccccc" /><path
         style="opacity:1;fill:#ffffff;fill-opacity:1;stroke:#000000;stroke-width:0.03;stroke-linecap:round;stroke-dasharray:none;stroke-opacity:1;paint-order:markers fill stroke"
         d="m -24.269046,110.93733 -0.02479,-0.37207 0.338997,0.10749 -0.04134,0.3638 z"
         id="path978" /><path
         style="opacity:1;fill:#ffffff;fill-opacity:1;stroke:#000000;stroke-width:0.0310164;stroke-linecap:round;stroke-dasharray:none;stroke-opacity:1;paint-order:markers fill stroke"
         d="m -23.712994,111.02966 -0.01528,-0.20474 0.183179,-0.003 0.110481,0.26021 z"
         id="path979"
         sodipodi:nodetypes="ccccc" /><path
         style="opacity:1;fill:#ffffff;fill-opacity:1;stroke:#000000;stroke-width:0.03;stroke-linecap:round;stroke-dasharray:none;stroke-opacity:1;paint-order:markers fill stroke"
         d="m -21.052546,111.73734 -0.02479,-0.37207 0.338997,0.10749 -0.04134,0.3638 z"
         id="path980" /><path
         style="opacity:1;fill:#ffffff;fill-opacity:1;stroke:#000000;stroke-width:0.03;stroke-linecap:round;stroke-dasharray:none;stroke-opacity:1;paint-order:markers fill stroke"
         d="m -21.995125,112.15076 0.03307,-0.0413 0.148828,-0.678 0.388606,0.43822 -0.421679,0.339 z"
         id="path981" /><path
         style="opacity:1;fill:#ffffff;fill-opacity:1;stroke:#000000;stroke-width:0.03;stroke-linecap:round;stroke-dasharray:none;stroke-opacity:1;paint-order:markers fill stroke"
         d="m -20.861859,112.39235 -0.323106,-0.18615 0.277749,-0.2221 0.138921,0.23654 z"
         id="path982"
         sodipodi:nodetypes="ccccc" /><path
         style="opacity:1;fill:#ffffff;fill-opacity:1;stroke:#000000;stroke-width:0.0310164;stroke-linecap:round;stroke-dasharray:none;stroke-opacity:1;paint-order:markers fill stroke"
         d="m -20.479958,111.7718 -0.01528,-0.20474 0.183179,-0.003 0.110481,0.26021 z"
         id="path983"
         sodipodi:nodetypes="ccccc" /><path
         style="opacity:1;fill:#ffffff;fill-opacity:1;stroke:#000000;stroke-width:0.0310164;stroke-linecap:round;stroke-dasharray:none;stroke-opacity:1;paint-order:markers fill stroke"
         d="m -20.098677,111.24566 0.115838,-0.25586 0.201392,0.28888 -0.09786,0.17836 z"
         id="path984"
         sodipodi:nodetypes="ccccc" /><path
         style="opacity:1;fill:#ffffff;fill-opacity:1;stroke:#000000;stroke-width:0.0310164;stroke-linecap:round;stroke-dasharray:none;stroke-opacity:1;paint-order:markers fill stroke"
         d="m -20.481613,110.99263 -0.252165,-0.0599 0.187202,-0.18406 0.226466,-0.002 z"
         id="path985"
         sodipodi:nodetypes="ccccc" /><path
         style="opacity:1;fill:#ffffff;fill-opacity:1;stroke:#000000;stroke-width:0.0310164;stroke-linecap:round;stroke-dasharray:none;stroke-opacity:1;paint-order:markers fill stroke"
         d="m -21.050465,111.14341 -0.01528,-0.20474 0.183179,-0.003 0.110481,0.26021 z"
         id="path986"
         sodipodi:nodetypes="ccccc" /><path
         style="opacity:1;fill:#ffffff;fill-opacity:1;stroke:#000000;stroke-width:0.03;stroke-linecap:round;stroke-dasharray:none;stroke-opacity:1;paint-order:markers fill stroke"
         d="m -22.139999,111.50348 -0.02479,-0.37207 0.338997,0.10749 -0.04134,0.3638 z"
         id="path987" /><path
         style="opacity:1;fill:#ffffff;fill-opacity:1;stroke:#000000;stroke-width:0.03;stroke-linecap:round;stroke-dasharray:none;stroke-opacity:1;paint-order:markers fill stroke"
         d="m -24.766375,111.44918 0.03307,-0.0413 0.148828,-0.678 0.388606,0.43822 -0.421679,0.339 z"
         id="path988" /></g><path
       style="opacity:1;fill:none;fill-opacity:1;stroke:#ffffff;stroke-width:0.339067;stroke-linecap:round;stroke-dasharray:none;stroke-opacity:1;paint-order:markers fill stroke"
       d="m -33.410587,160.01529 c 0.237722,-0.41818 0.538857,-0.78679 0.859025,-1.14537 0.158481,-0.17744 0.34547,-0.41387 0.550654,-0.55067 0.199025,-0.13272 0.392146,-0.0651 0.616734,-0.11011 0.05241,-0.0122 0.102089,-0.0321 0.154179,-0.044 0.05678,-0.0469 0.135389,-0.0122 0.198222,-0.0219 0.02285,-0.005 0.04285,-0.0219 0.06609,-0.0219 0.0073,0 0.0021,0.0146 0,0.0219 -0.01288,0.0518 -0.02625,0.10379 -0.04407,0.15434 -0.07708,0.21828 -0.171875,0.42749 -0.264314,0.63877 -0.06658,0.0999 -0.06441,0.22362 -0.110134,0.3304 -0.02333,0.0545 -0.06937,0.098 -0.08811,0.15435 -0.07088,0.21268 -0.06609,0.46205 -0.06609,0.6828 0,0.0848 -0.04815,0.2212 0.06609,0.19835 0.09008,-0.0194 0.106124,-0.0513 0.176201,-0.13223 0.06157,-0.071 0.116333,-0.14779 0.176225,-0.22022 0.256948,-0.31103 0.501291,-0.64511 0.792942,-0.92507 0.08274,-0.0795 0.180163,-0.14244 0.264316,-0.22023 0.2639,-0.24435 0.49518,-0.52719 0.814966,-0.70482 0.117549,-0.0654 0.233687,-0.0948 0.352419,-0.15435 0.03828,-0.0195 0.07985,-0.0963 0.110134,-0.0661 0.09127,0.0914 0.07936,0.24064 0.04407,0.35243 -0.02285,0.0722 -0.07051,0.13393 -0.110135,0.19834 -0.334528,0.54363 -0.176711,0.25226 -0.594712,0.85903 -0.171777,0.24937 -0.372838,0.51594 -0.462546,0.81497 -0.0761,0.25369 0.260143,0.40821 0.462546,0.37447 0.43875,-0.0732 0.76855,-0.4114 1.079287,-0.70485 0.371169,-0.35053 0.726512,-0.7119 1.123332,-1.03523 0.06395,-0.0523 0.475486,-0.37015 0.594707,-0.33041 0.007,0.002 0,0.0146 0,0.0219 0,0.0367 0.0056,0.0739 0,0.11011 -0.02382,0.15508 -0.04745,0.31096 -0.08809,0.46256 -0.0403,0.15022 -0.09006,0.29875 -0.154179,0.44051 -0.07584,0.16772 -0.173478,0.32457 -0.264316,0.48456 -0.14358,0.25301 -0.452298,0.5805 -0.08809,0.79294 0.04397,0.0255 0.239836,0.0766 0.286345,0.0661 0.428263,-0.095 0.715571,-0.69895 0.947126,-1.01319 0.331784,-0.45028 0.716191,-0.92337 1.277517,-1.0793 0.123333,-0.0343 0.308669,-0.077 0.440524,-0.044 0.007,0.002 0,0.0146 0,0.0219 0,0.0294 0.0068,0.0596 0,0.0882 -0.02285,0.0972 -0.06106,0.19032 -0.08809,0.28636 -0.117986,0.41946 -0.09383,0.47342 -0.308363,0.88102 -0.137771,0.26176 -0.289298,0.4298 -0.462553,0.66079 -0.05992,0.08 -0.131549,0.15289 -0.176225,0.24234 -0.0226,0.0455 -0.09856,0.35726 -0.02212,0.41846 0.02285,0.0194 0.05873,0 0.08809,0 0.192997,0 0.304335,-0.16723 0.418497,-0.30835 0.06283,-0.0775 0.112298,-0.16553 0.176201,-0.24234 0.285839,-0.343 0.628003,-0.63711 0.947125,-0.94712 0.22343,-0.21706 0.424851,-0.45738 0.660784,-0.66078 0.0326,-0.028 0.641468,-0.48459 0.682812,-0.48459 0.08529,0 0.20814,0.28191 0.220269,0.33038 0.01386,0.0549 -0.01118,0.36298 -0.02212,0.3965 -0.09489,0.29822 -0.349344,0.56418 -0.550651,0.79294 -0.08583,0.0975 -0.20148,0.17282 -0.264313,0.28633 -0.09436,0.17064 -0.147956,0.36217 -0.198247,0.55065 -0.0097,0.0362 -0.0021,0.0814 0.02212,0.11011 0.0244,0.0294 0.347397,0.0605 0.396475,0.0661 0.03648,0.005 0.0773,0.017 0.110134,0 0.13607,-0.0681 0.409012,-0.44331 0.440521,-0.48459 0.337951,-0.44284 0.599302,-0.93083 0.947129,-1.36563 0.06818,-0.0851 0.141125,-0.16699 0.220269,-0.24234 0.226005,-0.21463 0.220269,-0.0795 0.220269,-0.1981"
       id="path990" /></g></svg>
