<?xml version="1.0" encoding="UTF-8" standalone="no"?>
<!-- Created with Inkscape (http://www.inkscape.org/) -->

<svg
   width="21.636675mm"
   height="10.104939mm"
   viewBox="0 0 21.636675 10.104939"
   version="1.1"
   id="svg1"
   inkscape:version="1.3.2 (091e20e, 2023-11-25, custom)"
   sodipodi:docname="APP_FONDA.svg"
   xml:space="preserve"
   xmlns:inkscape="http://www.inkscape.org/namespaces/inkscape"
   xmlns:sodipodi="http://sodipodi.sourceforge.net/DTD/sodipodi-0.dtd"
   xmlns="http://www.w3.org/2000/svg"
   xmlns:svg="http://www.w3.org/2000/svg"><sodipodi:namedview
     id="namedview1"
     pagecolor="#ffffff"
     bordercolor="#000000"
     borderopacity="0.25"
     inkscape:showpageshadow="2"
     inkscape:pageopacity="0.0"
     inkscape:pagecheckerboard="0"
     inkscape:deskcolor="#d1d1d1"
     inkscape:document-units="mm"
     inkscape:zoom="0.70710678"
     inkscape:cx="-317.49094"
     inkscape:cy="700.74282"
     inkscape:window-width="1920"
     inkscape:window-height="1017"
     inkscape:window-x="-8"
     inkscape:window-y="-8"
     inkscape:window-maximized="1"
     inkscape:current-layer="layer2"
     showguides="true"
     inkscape:export-bgcolor="#ffffff00" /><defs
     id="defs1" /><g
     id="g213"
     transform="matrix(1.6114472,0,0,1.6114472,58.887334,-130.67589)"><path
       style="opacity:1;fill:#ff2828;fill-opacity:0.252288;stroke:#000000;stroke-width:0.05;stroke-linecap:round;stroke-dasharray:none;stroke-opacity:1;paint-order:markers fill stroke"
       id="path209"
       sodipodi:type="arc"
       sodipodi:cx="-29.829697"
       sodipodi:cy="84.227623"
       sodipodi:rx="6.6884198"
       sodipodi:ry="3.1103494"
       sodipodi:start="0"
       sodipodi:end="6.2474506"
       sodipodi:open="true"
       sodipodi:arc-type="arc"
       d="m -23.141277,84.227623 a 6.6884198,3.1103494 0 0 1 -6.628668,3.110225 6.6884198,3.1103494 0 0 1 -6.747104,-3.054654 6.6884198,3.1103494 0 0 1 6.508117,-3.164803 6.6884198,3.1103494 0 0 1 6.863385,2.998108" /><path
       style="opacity:0.616529;fill:#ffffff;fill-opacity:1;stroke:#000000;stroke-width:0.05;stroke-linecap:round;stroke-dasharray:none;stroke-opacity:1;paint-order:markers fill stroke"
       id="path210"
       sodipodi:type="arc"
       sodipodi:cx="-29.8297"
       sodipodi:cy="84.227615"
       sodipodi:rx="4.0942602"
       sodipodi:ry="1.9039744"
       sodipodi:start="0"
       sodipodi:end="6.2474506"
       sodipodi:open="true"
       sodipodi:arc-type="arc"
       d="m -25.73544,84.227615 a 4.0942602,1.9039744 0 0 1 -4.057684,1.903899 4.0942602,1.9039744 0 0 1 -4.130183,-1.869881 4.0942602,1.9039744 0 0 1 3.983889,-1.937308 4.0942602,1.9039744 0 0 1 4.201364,1.835267" /><path
       style="opacity:1;fill:#ffffff;fill-opacity:1;stroke:#000000;stroke-width:0.067112;stroke-linecap:round;stroke-dasharray:none;stroke-opacity:1;paint-order:markers fill stroke"
       d="m -34.969695,83.556212 c -0.0015,0.03981 0.633523,0.267726 0.659185,0.298205 0.145478,0.172782 0.304113,0.08824 0.313897,0.313899 0.01235,0.285323 -0.691209,0.41367 -0.502231,0.627794 0.308181,0.349188 0.603618,0.23836 1.067254,0.282503 0.889729,0.08471 1.775672,0.274961 2.621048,0.565016 0.593156,0.203516 1.098169,0.623818 1.695049,0.816133 0.515761,0.166179 1.079575,0.430387 1.600877,0.28251 0.491954,-0.139553 0.860977,-0.595423 1.145731,-1.020169 0.228499,-0.340834 0.156371,-0.837339 0.408067,-1.161423 0.254545,-0.327748 0.943716,-0.285954 1.035863,-0.690578 0.03645,-0.160094 -0.117783,-0.327948 -0.25112,-0.423761 -0.386639,-0.277826 -0.952208,-0.127982 -1.396846,-0.298203 -0.343609,-0.13154 -0.610407,-0.426943 -0.957387,-0.549319 -0.409622,-0.14447 -0.855739,-0.152144 -1.28698,-0.204036 -0.505545,-0.06083 -1.016562,-0.06729 -1.522409,-0.125553 -0.56743,-0.06535 -1.124478,-0.277575 -1.695049,-0.25112 -0.484187,0.02246 -0.929194,0.30891 -1.412538,0.345287 -0.408553,0.03075 -1.00175,-0.453919 -1.224204,-0.109862 -0.208583,0.322602 0.607218,0.50408 0.470847,0.863221 -0.108063,0.2846 -0.758052,0.135228 -0.769054,0.439456 z"
       id="path213"
       sodipodi:nodetypes="sssssssssssssssssssss" /><path
       style="opacity:1;fill:#ffba00;fill-opacity:1;stroke:#000000;stroke-width:0.0499233;stroke-linecap:round;stroke-dasharray:none;stroke-opacity:1;paint-order:markers fill stroke"
       id="path211"
       sodipodi:type="arc"
       sodipodi:cx="-31.436579"
       sodipodi:cy="83.355591"
       sodipodi:rx="1.6188651"
       sodipodi:ry="0.85379153"
       sodipodi:start="3.1107382"
       sodipodi:end="3.0953042"
       sodipodi:arc-type="arc"
       d="m -33.054673,83.38193 a 1.6188651,0.85379153 0 0 1 1.56191,-0.879616 1.6188651,0.85379153 0 0 1 1.673845,0.820353 1.6188651,0.85379153 0 0 1 -1.548993,0.885947 1.6188651,0.85379153 0 0 1 -1.685799,-0.813517"
       sodipodi:open="true" /><path
       style="opacity:1;fill:#ffba00;fill-opacity:1;stroke:#000000;stroke-width:0.0562159;stroke-linecap:round;stroke-dasharray:none;stroke-opacity:1;paint-order:markers fill stroke"
       id="path212"
       sodipodi:type="arc"
       sodipodi:cx="-28.758984"
       sodipodi:cy="84.120613"
       sodipodi:rx="1.822911"
       sodipodi:ry="0.96140558"
       sodipodi:start="3.1107382"
       sodipodi:end="3.0953042"
       sodipodi:arc-type="arc"
       d="m -30.581027,84.150272 a 1.822911,0.96140558 0 0 1 1.758777,-0.990485 1.822911,0.96140558 0 0 1 1.884822,0.923752 1.822911,0.96140558 0 0 1 -1.744233,0.997614 1.822911,0.96140558 0 0 1 -1.898281,-0.916054"
       sodipodi:open="true" /></g></svg>
