<?xml version="1.0" encoding="UTF-8" standalone="no"?>
<!-- Created with Inkscape (http://www.inkscape.org/) -->

<svg
   width="15.88376mm"
   height="12.011627mm"
   viewBox="0 0 15.88376 12.011627"
   version="1.1"
   id="svg1"
   inkscape:version="1.3.2 (091e20e, 2023-11-25, custom)"
   sodipodi:docname="APP_FONDA.svg"
   xml:space="preserve"
   xmlns:inkscape="http://www.inkscape.org/namespaces/inkscape"
   xmlns:sodipodi="http://sodipodi.sourceforge.net/DTD/sodipodi-0.dtd"
   xmlns="http://www.w3.org/2000/svg"
   xmlns:svg="http://www.w3.org/2000/svg"><sodipodi:namedview
     id="namedview1"
     pagecolor="#ffffff"
     bordercolor="#000000"
     borderopacity="0.25"
     inkscape:showpageshadow="2"
     inkscape:pageopacity="0.0"
     inkscape:pagecheckerboard="0"
     inkscape:deskcolor="#d1d1d1"
     inkscape:document-units="mm"
     inkscape:zoom="1.9999999"
     inkscape:cx="345.50001"
     inkscape:cy="484.25002"
     inkscape:window-width="1920"
     inkscape:window-height="1017"
     inkscape:window-x="1912"
     inkscape:window-y="-8"
     inkscape:window-maximized="1"
     inkscape:current-layer="layer1"
     showguides="false"
     inkscape:export-bgcolor="#ffffff00" /><defs
     id="defs1" /><g
     inkscape:groupmode="layer"
     id="layer2"
     inkscape:label="Capa 2"
     style="display:inline"
     transform="translate(-31.393832,-6.9365561)"><g
       id="g207"
       transform="matrix(1.3008746,0,0,1.3008746,-33.520858,-4.3998744)"><ellipse
         style="display:inline;fill:#ffffff;fill-opacity:1;stroke:#000000;stroke-width:0.156991;stroke-linecap:round;stroke-dasharray:none;paint-order:markers fill stroke"
         id="ellipse161"
         cy="13.331219"
         cx="56.005836"
         rx="6.026536"
         ry="4.5382547" /><ellipse
         style="display:inline;opacity:0.474576;fill:#ffffff;fill-opacity:1;stroke:#000000;stroke-width:0.139131;stroke-linecap:round;stroke-dasharray:none;paint-order:markers fill stroke"
         id="ellipse162"
         cy="13.331219"
         cx="56.005836"
         rx="5.3409348"
         ry="4.021966" /><path
         style="fill:#e33300;fill-opacity:1;stroke:#000000;stroke-width:0.14;stroke-linecap:round;stroke-dasharray:none;stroke-opacity:1;paint-order:markers fill stroke"
         d="m 55.42032,11.658307 0.748355,0.53788 0.748353,1.157611 0.537882,0.210474 0.222165,0.57296 0.666504,0.350791 0.05846,0.163703 0.502801,0.01169 0.350793,0.105238 0.23386,0.175395 0.5028,-0.327405 0.374177,0.175396 0.233862,-0.42095 -0.11693,-0.175395 0.491107,-0.374178 -0.105238,-0.327405 0.116932,-0.502801 -0.409257,-0.982215 -0.432641,-0.491108 -0.245555,-0.07016 -0.175395,-0.315712 -0.467722,-0.03508 -0.210476,-0.444336 -0.561266,-0.03508 -0.88867,-0.6314235 -0.958831,-0.05847 -0.572958,-0.05847 -0.701582,0.5261865 0.23386,0.257247 -0.292325,0.42095 0.152008,0.350791 z"
         id="path162" /><g
         id="g164"
         transform="matrix(0.75763447,0.50034464,-0.4793172,0.78486988,18.607608,12.799506)"><path
           style="opacity:1;fill:#d3e300;fill-opacity:1;stroke:#000000;stroke-width:0.0720382;stroke-linecap:round;stroke-dasharray:none;paint-order:markers fill stroke"
           d="m 31.650946,-18.328307 c -8.34e-4,-0.17991 -0.02316,-0.421833 -0.161669,-0.601743 -0.127442,-0.210557 -0.125688,-0.338431 -0.09949,-0.569659 0.02693,-0.220698 0.04001,-0.338042 -0.104494,-0.571142 -0.176677,-0.257916 -0.06196,-0.386875 -0.116592,-0.525311 -0.03509,-0.08892 -0.0045,-0.303898 -0.0042,-0.476523 0.0027,-0.181575 0.01329,-0.329559 -0.135307,-0.542298 -0.149524,-0.207827 -0.116982,-0.290745 -0.138479,-0.470121 l 0.523015,-0.185183 c 0.200477,0.265237 0.05031,0.349222 0.234912,0.651965 0.07299,0.119702 0.123904,0.424206 0.05347,0.62061 -0.04719,0.131599 0.177975,0.362871 0.14293,0.495718 -0.08645,0.327724 0.07291,0.447759 0.122747,0.562396 0.04942,0.113676 -0.04162,0.303519 0.05328,0.479548 0.0506,0.09384 0.06937,0.407974 0.05402,0.510465 0.0447,0.220622 0.224523,0.306199 0.209396,0.504915 z"
           id="path163"
           sodipodi:nodetypes="ccccsccccsssssccc"
           inkscape:transform-center-x="-0.021914208"
           inkscape:transform-center-y="0.39396267" /><path
           style="opacity:1;fill:#d3e300;fill-opacity:1;stroke:#000000;stroke-width:0.04;stroke-linecap:round;stroke-dasharray:none;stroke-opacity:1;paint-order:markers fill stroke"
           d="m 31.021641,-21.977073 c 0.274792,0.45408 0.295954,1.056517 0.309867,1.525942 0.03138,0.308108 0.310569,0.788129 0.233858,1.023141 0.01346,0.66435 0.183571,0.559914 0.233863,0.970523"
           id="path164"
           sodipodi:nodetypes="cccc" /></g><g
         id="g175"
         transform="matrix(0.62031274,0.48918496,-0.49455524,0.61920556,22.147958,9.1434805)"><path
           style="opacity:1;fill:#d3e300;fill-opacity:1;stroke:#000000;stroke-width:0.0720382;stroke-linecap:round;stroke-dasharray:none;paint-order:markers fill stroke"
           d="m 31.650946,-18.328307 c -8.34e-4,-0.17991 -0.02316,-0.421833 -0.161669,-0.601743 -0.127442,-0.210557 -0.125688,-0.338431 -0.09949,-0.569659 0.02693,-0.220698 0.04001,-0.338042 -0.104494,-0.571142 -0.176677,-0.257916 -0.06196,-0.386875 -0.116592,-0.525311 -0.03509,-0.08892 -0.0045,-0.303898 -0.0042,-0.476523 0.0027,-0.181575 0.01329,-0.329559 -0.135307,-0.542298 -0.149524,-0.207827 -0.116982,-0.290745 -0.138479,-0.470121 l 0.523015,-0.185183 c 0.200477,0.265237 0.05031,0.349222 0.234912,0.651965 0.07299,0.119702 0.123904,0.424206 0.05347,0.62061 -0.04719,0.131599 0.177975,0.362871 0.14293,0.495718 -0.08645,0.327724 0.07291,0.447759 0.122747,0.562396 0.04942,0.113676 -0.04162,0.303519 0.05328,0.479548 0.0506,0.09384 0.06937,0.407974 0.05402,0.510465 0.0447,0.220622 0.224523,0.306199 0.209396,0.504915 z"
           id="path165"
           sodipodi:nodetypes="ccccsccccsssssccc"
           inkscape:transform-center-x="-0.021914208"
           inkscape:transform-center-y="0.39396267" /><path
           style="opacity:1;fill:#d3e300;fill-opacity:1;stroke:#000000;stroke-width:0.04;stroke-linecap:round;stroke-dasharray:none;stroke-opacity:1;paint-order:markers fill stroke"
           d="m 31.021641,-21.977073 c 0.274792,0.45408 0.295954,1.056517 0.309867,1.525942 0.03138,0.308108 0.310569,0.788129 0.233858,1.023141 0.01346,0.66435 0.183571,0.559914 0.233863,0.970523"
           id="path175"
           sodipodi:nodetypes="cccc" /></g><g
         id="g177"
         transform="matrix(0.77907699,0.46625507,-0.44404055,0.80535315,19.475296,14.243221)"><path
           style="opacity:1;fill:#d3e300;fill-opacity:1;stroke:#000000;stroke-width:0.0720382;stroke-linecap:round;stroke-dasharray:none;paint-order:markers fill stroke"
           d="m 31.650946,-18.328307 c -8.34e-4,-0.17991 -0.02316,-0.421833 -0.161669,-0.601743 -0.127442,-0.210557 -0.125688,-0.338431 -0.09949,-0.569659 0.02693,-0.220698 0.04001,-0.338042 -0.104494,-0.571142 -0.176677,-0.257916 -0.06196,-0.386875 -0.116592,-0.525311 -0.03509,-0.08892 -0.0045,-0.303898 -0.0042,-0.476523 0.0027,-0.181575 0.01329,-0.329559 -0.135307,-0.542298 -0.149524,-0.207827 -0.116982,-0.290745 -0.138479,-0.470121 l 0.523015,-0.185183 c 0.200477,0.265237 0.05031,0.349222 0.234912,0.651965 0.07299,0.119702 0.123904,0.424206 0.05347,0.62061 -0.04719,0.131599 0.177975,0.362871 0.14293,0.495718 -0.08645,0.327724 0.07291,0.447759 0.122747,0.562396 0.04942,0.113676 -0.04162,0.303519 0.05328,0.479548 0.0506,0.09384 0.06937,0.407974 0.05402,0.510465 0.0447,0.220622 0.224523,0.306199 0.209396,0.504915 z"
           id="path176"
           sodipodi:nodetypes="ccccsccccsssssccc"
           inkscape:transform-center-x="-0.021914208"
           inkscape:transform-center-y="0.39396267" /><path
           style="opacity:1;fill:#d3e300;fill-opacity:1;stroke:#000000;stroke-width:0.04;stroke-linecap:round;stroke-dasharray:none;stroke-opacity:1;paint-order:markers fill stroke"
           d="m 31.021641,-21.977073 c 0.274792,0.45408 0.295954,1.056517 0.309867,1.525942 0.03138,0.308108 0.310569,0.788129 0.233858,1.023141 0.01346,0.66435 0.183571,0.559914 0.233863,0.970523"
           id="path177"
           sodipodi:nodetypes="cccc" /></g><g
         id="g179"
         transform="matrix(0.78699339,0.08401343,-0.0685921,0.86484672,27.858421,27.270127)"><path
           style="opacity:1;fill:#d3e300;fill-opacity:1;stroke:#000000;stroke-width:0.0720382;stroke-linecap:round;stroke-dasharray:none;paint-order:markers fill stroke"
           d="m 31.650946,-18.328307 c -8.34e-4,-0.17991 -0.02316,-0.421833 -0.161669,-0.601743 -0.127442,-0.210557 -0.125688,-0.338431 -0.09949,-0.569659 0.02693,-0.220698 0.04001,-0.338042 -0.104494,-0.571142 -0.176677,-0.257916 -0.06196,-0.386875 -0.116592,-0.525311 -0.03509,-0.08892 -0.0045,-0.303898 -0.0042,-0.476523 0.0027,-0.181575 0.01329,-0.329559 -0.135307,-0.542298 -0.149524,-0.207827 -0.116982,-0.290745 -0.138479,-0.470121 l 0.523015,-0.185183 c 0.200477,0.265237 0.05031,0.349222 0.234912,0.651965 0.07299,0.119702 0.123904,0.424206 0.05347,0.62061 -0.04719,0.131599 0.177975,0.362871 0.14293,0.495718 -0.08645,0.327724 0.07291,0.447759 0.122747,0.562396 0.04942,0.113676 -0.04162,0.303519 0.05328,0.479548 0.0506,0.09384 0.06937,0.407974 0.05402,0.510465 0.0447,0.220622 0.224523,0.306199 0.209396,0.504915 z"
           id="path178"
           sodipodi:nodetypes="ccccsccccsssssccc"
           inkscape:transform-center-x="-0.021914208"
           inkscape:transform-center-y="0.39396267" /><path
           style="opacity:1;fill:#d3e300;fill-opacity:1;stroke:#000000;stroke-width:0.04;stroke-linecap:round;stroke-dasharray:none;stroke-opacity:1;paint-order:markers fill stroke"
           d="m 31.021641,-21.977073 c 0.274792,0.45408 0.295954,1.056517 0.309867,1.525942 0.03138,0.308108 0.310569,0.788129 0.233858,1.023141 0.01346,0.66435 0.183571,0.559914 0.233863,0.970523"
           id="path179"
           sodipodi:nodetypes="cccc" /></g><path
         style="fill:#e33300;fill-opacity:1;stroke:#000000;stroke-width:0.06;stroke-linecap:round;stroke-dasharray:none;stroke-opacity:1;paint-order:markers fill stroke"
         d="m 56.399506,10.070493 -0.231511,1.934766"
         id="path180" /><path
         style="fill:#e33300;fill-opacity:1;stroke:#000000;stroke-width:0.06;stroke-linecap:round;stroke-dasharray:none;stroke-opacity:1;paint-order:markers fill stroke"
         d="m 56.855535,10.316047 -0.231511,1.934766"
         id="path181" /><path
         style="fill:#e33300;fill-opacity:1;stroke:#000000;stroke-width:0.06;stroke-linecap:round;stroke-dasharray:none;stroke-opacity:1;paint-order:markers fill stroke"
         d="m 57.510345,10.234196 -0.371828,2.800051"
         id="path182"
         sodipodi:nodetypes="cc" /><path
         style="fill:#e33300;fill-opacity:1;stroke:#000000;stroke-width:0.06;stroke-linecap:round;stroke-dasharray:none;stroke-opacity:1;paint-order:markers fill stroke"
         d="m 58.048225,10.573294 -0.360134,2.648042"
         id="path183"
         sodipodi:nodetypes="cc" /><path
         style="fill:#e33300;fill-opacity:1;stroke:#000000;stroke-width:0.06;stroke-linecap:round;stroke-dasharray:none;stroke-opacity:1;paint-order:markers fill stroke"
         d="m 58.656263,10.924085 -0.395214,2.975447"
         id="path184"
         sodipodi:nodetypes="cc" /><path
         style="fill:#e33300;fill-opacity:1;stroke:#000000;stroke-width:0.06;stroke-linecap:round;stroke-dasharray:none;stroke-opacity:1;paint-order:markers fill stroke"
         d="m 59.252608,11.298262 -0.301669,2.975447"
         id="path185"
         sodipodi:nodetypes="cc" /><path
         style="fill:#e33300;fill-opacity:1;stroke:#000000;stroke-width:0.06;stroke-linecap:round;stroke-dasharray:none;stroke-opacity:1;paint-order:markers fill stroke"
         d="m 59.872339,11.929686 -0.325055,2.484339"
         id="path186"
         sodipodi:nodetypes="cc" /><path
         style="fill:#e33300;fill-opacity:1;stroke:#000000;stroke-width:0.06;stroke-linecap:round;stroke-dasharray:none;stroke-opacity:1;paint-order:markers fill stroke"
         d="m 60.515456,12.385715 -0.231511,1.934766"
         id="path187" /><path
         style="fill:#e33300;fill-opacity:1;stroke:#000000;stroke-width:0.0600001;stroke-linecap:round;stroke-dasharray:none;stroke-opacity:1;paint-order:markers fill stroke"
         d="m 55.946507,10.231755 4.232881,1.905966"
         id="path188" /><path
         style="fill:#e33300;fill-opacity:1;stroke:#000000;stroke-width:0.0600001;stroke-linecap:round;stroke-dasharray:none;stroke-opacity:1;paint-order:markers fill stroke"
         d="m 55.9582,10.851486 4.642137,2.104748"
         id="path189"
         sodipodi:nodetypes="cc" /><path
         style="fill:#e33300;fill-opacity:1;stroke:#000000;stroke-width:0.0600001;stroke-linecap:round;stroke-dasharray:none;stroke-opacity:1;paint-order:markers fill stroke"
         d="m 55.794498,11.471217 4.829226,2.104748"
         id="path190"
         sodipodi:nodetypes="cc" /><path
         style="fill:#e33300;fill-opacity:1;stroke:#000000;stroke-width:0.0600001;stroke-linecap:round;stroke-dasharray:none;stroke-opacity:1;paint-order:markers fill stroke"
         d="m 56.846872,12.652215 3.168814,1.368086"
         id="path191"
         sodipodi:nodetypes="cc" /><path
         style="fill:#00aa0b;fill-opacity:1;stroke:#000000;stroke-width:0.07;stroke-linecap:round;stroke-dasharray:none;stroke-opacity:1;paint-order:markers fill stroke"
         d="m 53.207968,15.858254 -0.01654,-0.115755 0.03307,-0.347266 0.214974,-0.248047 0.165366,-0.347266 0.380338,-0.281119 0.446484,-0.03307 0.363803,0.06615 0.479557,-0.264584 0.595312,0.04961 0.711068,-0.01654 0.09922,0.231511 0.810286,0.181901 0.165361,0.363802 0.644922,0.314192 0.115755,0.347266 -0.09922,0.595312 -0.611849,0.115756 -0.396874,0.314193 -0.562239,-0.297661 -0.479558,0.429948 -0.677995,-0.297656 -0.562239,-0.198438 -0.628386,0.115756 -0.396875,-0.264584 -0.711067,-0.115755 z"
         id="path192"
         sodipodi:nodetypes="ccccccccccccccccccccccccccc" /><path
         style="fill:#fdb106;fill-opacity:1;stroke:#000000;stroke-width:0.04;stroke-linecap:round;stroke-dasharray:none;stroke-opacity:1;paint-order:markers fill stroke"
         d="m 56.84599,15.097577 v -0.09922 -0.677995 l 1.240234,1.07487 -0.479557,0.314193 z"
         id="path193" /><path
         style="fill:#fdb106;fill-opacity:1;stroke:#000000;stroke-width:0.04;stroke-linecap:round;stroke-dasharray:none;stroke-opacity:1;paint-order:markers fill stroke"
         d="M 53.919037,15.64328 H 53.62138 l -0.793752,0.181901 0.76068,-1.504818 0.51263,0.942578 z"
         id="path194" /><path
         style="fill:#fdb106;fill-opacity:1;stroke:#000000;stroke-width:0.04;stroke-linecap:round;stroke-dasharray:none;stroke-opacity:1;paint-order:markers fill stroke"
         d="m 55.060052,15.87479 1.174089,-0.711068 0.198437,1.405599 -1.389062,-0.413411 z"
         id="path195" /><path
         style="fill:#fdb106;fill-opacity:1;stroke:#000000;stroke-width:0.04;stroke-linecap:round;stroke-dasharray:none;stroke-opacity:1;paint-order:markers fill stroke"
         d="m 55.440391,14.915676 0.132291,-1.306381 0.264584,0.06615 -0.09922,1.07487 z"
         id="path196" /><rect
         style="fill:#56ee67;fill-opacity:1;stroke:#00d71a;stroke-width:0.0187492;stroke-linecap:round;stroke-dasharray:none;stroke-opacity:1;paint-order:markers fill stroke"
         id="rect196"
         width="0.24410778"
         height="0.18311416"
         x="55.045395"
         y="-10.78388"
         ry="0.034333542"
         rx="0.013780277"
         transform="matrix(0.89654591,0.44295082,-0.48313369,0.87554659,0,0)" /><rect
         style="fill:#56ee67;fill-opacity:1;stroke:#00d71a;stroke-width:0.0187492;stroke-linecap:round;stroke-dasharray:none;stroke-opacity:1;paint-order:markers fill stroke"
         id="rect197"
         width="0.24410778"
         height="0.18311416"
         x="0.20597507"
         y="-58.374603"
         ry="0.034333542"
         rx="0.013780277"
         transform="matrix(-0.20601885,0.97854802,-0.96820394,-0.25016219,0,0)"
         inkscape:transform-center-x="1.298112"
         inkscape:transform-center-y="0.38860679" /><rect
         style="fill:#56ee67;fill-opacity:1;stroke:#00d71a;stroke-width:0.0187492;stroke-linecap:round;stroke-dasharray:none;stroke-opacity:1;paint-order:markers fill stroke"
         id="rect198"
         width="0.24410778"
         height="0.18311416"
         x="1.4928306"
         y="-56.778217"
         ry="0.034333542"
         rx="0.013780277"
         transform="matrix(-0.20601885,0.97854802,-0.96820394,-0.25016219,0,0)"
         inkscape:transform-center-x="1.298112"
         inkscape:transform-center-y="0.38860679" /><rect
         style="fill:#56ee67;fill-opacity:1;stroke:#00d71a;stroke-width:0.0187492;stroke-linecap:round;stroke-dasharray:none;stroke-opacity:1;paint-order:markers fill stroke"
         id="rect199"
         width="0.24410778"
         height="0.18311416"
         x="1.0472435"
         y="-59.083076"
         ry="0.034333542"
         rx="0.013780277"
         transform="matrix(-0.20601885,0.97854802,-0.96820394,-0.25016219,0,0)"
         inkscape:transform-center-x="1.298112"
         inkscape:transform-center-y="0.38860679" /><g
         id="g200"
         transform="matrix(0.84439271,-0.33370003,0.36807068,0.84278685,33.188602,40.550238)"><path
           style="opacity:1;fill:#d3e300;fill-opacity:1;stroke:#000000;stroke-width:0.0720382;stroke-linecap:round;stroke-dasharray:none;paint-order:markers fill stroke"
           d="m 31.650946,-18.328307 c -8.34e-4,-0.17991 -0.02316,-0.421833 -0.161669,-0.601743 -0.127442,-0.210557 -0.125688,-0.338431 -0.09949,-0.569659 0.02693,-0.220698 0.04001,-0.338042 -0.104494,-0.571142 -0.176677,-0.257916 -0.06196,-0.386875 -0.116592,-0.525311 -0.03509,-0.08892 -0.0045,-0.303898 -0.0042,-0.476523 0.0027,-0.181575 0.01329,-0.329559 -0.135307,-0.542298 -0.149524,-0.207827 -0.116982,-0.290745 -0.138479,-0.470121 l 0.523015,-0.185183 c 0.200477,0.265237 0.05031,0.349222 0.234912,0.651965 0.07299,0.119702 0.123904,0.424206 0.05347,0.62061 -0.04719,0.131599 0.177975,0.362871 0.14293,0.495718 -0.08645,0.327724 0.07291,0.447759 0.122747,0.562396 0.04942,0.113676 -0.04162,0.303519 0.05328,0.479548 0.0506,0.09384 0.06937,0.407974 0.05402,0.510465 0.0447,0.220622 0.224523,0.306199 0.209396,0.504915 z"
           id="path199"
           sodipodi:nodetypes="ccccsccccsssssccc"
           inkscape:transform-center-x="-0.021914208"
           inkscape:transform-center-y="0.39396267" /><path
           style="opacity:1;fill:#d3e300;fill-opacity:1;stroke:#000000;stroke-width:0.04;stroke-linecap:round;stroke-dasharray:none;stroke-opacity:1;paint-order:markers fill stroke"
           d="m 31.021641,-21.977073 c 0.274792,0.45408 0.295954,1.056517 0.309867,1.525942 0.03138,0.308108 0.310569,0.788129 0.233858,1.023141 0.01346,0.66435 0.183571,0.559914 0.233863,0.970523"
           id="path200"
           sodipodi:nodetypes="cccc" /></g><g
         id="g202"
         transform="matrix(0.04381171,-0.74789096,0.74659407,0.01045025,67.255059,34.664714)"><path
           style="opacity:1;fill:#d3e300;fill-opacity:1;stroke:#000000;stroke-width:0.0720382;stroke-linecap:round;stroke-dasharray:none;paint-order:markers fill stroke"
           d="m 31.650946,-18.328307 c -8.34e-4,-0.17991 -0.02316,-0.421833 -0.161669,-0.601743 -0.127442,-0.210557 -0.125688,-0.338431 -0.09949,-0.569659 0.02693,-0.220698 0.04001,-0.338042 -0.104494,-0.571142 -0.176677,-0.257916 -0.06196,-0.386875 -0.116592,-0.525311 -0.03509,-0.08892 -0.0045,-0.303898 -0.0042,-0.476523 0.0027,-0.181575 0.01329,-0.329559 -0.135307,-0.542298 -0.149524,-0.207827 -0.116982,-0.290745 -0.138479,-0.470121 l 0.523015,-0.185183 c 0.200477,0.265237 0.05031,0.349222 0.234912,0.651965 0.07299,0.119702 0.123904,0.424206 0.05347,0.62061 -0.04719,0.131599 0.177975,0.362871 0.14293,0.495718 -0.08645,0.327724 0.07291,0.447759 0.122747,0.562396 0.04942,0.113676 -0.04162,0.303519 0.05328,0.479548 0.0506,0.09384 0.06937,0.407974 0.05402,0.510465 0.0447,0.220622 0.224523,0.306199 0.209396,0.504915 z"
           id="path201"
           sodipodi:nodetypes="ccccsccccsssssccc"
           inkscape:transform-center-x="-0.021914208"
           inkscape:transform-center-y="0.39396267" /><path
           style="opacity:1;fill:#d3e300;fill-opacity:1;stroke:#000000;stroke-width:0.04;stroke-linecap:round;stroke-dasharray:none;stroke-opacity:1;paint-order:markers fill stroke"
           d="m 31.021641,-21.977073 c 0.274792,0.45408 0.295954,1.056517 0.309867,1.525942 0.03138,0.308108 0.310569,0.788129 0.233858,1.023141 0.01346,0.66435 0.183571,0.559914 0.233863,0.970523"
           id="path202"
           sodipodi:nodetypes="cccc" /></g><g
         id="g204"
         transform="translate(23.083383,32.052635)"><path
           style="opacity:1;fill:#d3e300;fill-opacity:1;stroke:#000000;stroke-width:0.0720382;stroke-linecap:round;stroke-dasharray:none;paint-order:markers fill stroke"
           d="m 31.650946,-18.328307 c -8.34e-4,-0.17991 -0.02316,-0.421833 -0.161669,-0.601743 -0.127442,-0.210557 -0.125688,-0.338431 -0.09949,-0.569659 0.02693,-0.220698 0.04001,-0.338042 -0.104494,-0.571142 -0.176677,-0.257916 -0.06196,-0.386875 -0.116592,-0.525311 -0.03509,-0.08892 -0.0045,-0.303898 -0.0042,-0.476523 0.0027,-0.181575 0.01329,-0.329559 -0.135307,-0.542298 -0.149524,-0.207827 -0.116982,-0.290745 -0.138479,-0.470121 l 0.523015,-0.185183 c 0.200477,0.265237 0.05031,0.349222 0.234912,0.651965 0.07299,0.119702 0.123904,0.424206 0.05347,0.62061 -0.04719,0.131599 0.177975,0.362871 0.14293,0.495718 -0.08645,0.327724 0.07291,0.447759 0.122747,0.562396 0.04942,0.113676 -0.04162,0.303519 0.05328,0.479548 0.0506,0.09384 0.06937,0.407974 0.05402,0.510465 0.0447,0.220622 0.224523,0.306199 0.209396,0.504915 z"
           id="path203"
           sodipodi:nodetypes="ccccsccccsssssccc"
           inkscape:transform-center-x="-0.021914208"
           inkscape:transform-center-y="0.39396267" /><path
           style="opacity:1;fill:#d3e300;fill-opacity:1;stroke:#000000;stroke-width:0.04;stroke-linecap:round;stroke-dasharray:none;stroke-opacity:1;paint-order:markers fill stroke"
           d="m 31.021641,-21.977073 c 0.274792,0.45408 0.295954,1.056517 0.309867,1.525942 0.03138,0.308108 0.310569,0.788129 0.233858,1.023141 0.01346,0.66435 0.183571,0.559914 0.233863,0.970523"
           id="path204"
           sodipodi:nodetypes="cccc" /></g><g
         id="g206"
         transform="rotate(11.420633,-117.85142,105.253)"><path
           style="opacity:1;fill:#d3e300;fill-opacity:1;stroke:#000000;stroke-width:0.0720382;stroke-linecap:round;stroke-dasharray:none;paint-order:markers fill stroke"
           d="m 31.650946,-18.328307 c -8.34e-4,-0.17991 -0.02316,-0.421833 -0.161669,-0.601743 -0.127442,-0.210557 -0.125688,-0.338431 -0.09949,-0.569659 0.02693,-0.220698 0.04001,-0.338042 -0.104494,-0.571142 -0.176677,-0.257916 -0.06196,-0.386875 -0.116592,-0.525311 -0.03509,-0.08892 -0.0045,-0.303898 -0.0042,-0.476523 0.0027,-0.181575 0.01329,-0.329559 -0.135307,-0.542298 -0.149524,-0.207827 -0.116982,-0.290745 -0.138479,-0.470121 l 0.523015,-0.185183 c 0.200477,0.265237 0.05031,0.349222 0.234912,0.651965 0.07299,0.119702 0.123904,0.424206 0.05347,0.62061 -0.04719,0.131599 0.177975,0.362871 0.14293,0.495718 -0.08645,0.327724 0.07291,0.447759 0.122747,0.562396 0.04942,0.113676 -0.04162,0.303519 0.05328,0.479548 0.0506,0.09384 0.06937,0.407974 0.05402,0.510465 0.0447,0.220622 0.224523,0.306199 0.209396,0.504915 z"
           id="path205"
           sodipodi:nodetypes="ccccsccccsssssccc"
           inkscape:transform-center-x="-0.021914208"
           inkscape:transform-center-y="0.39396267" /><path
           style="opacity:1;fill:#d3e300;fill-opacity:1;stroke:#000000;stroke-width:0.04;stroke-linecap:round;stroke-dasharray:none;stroke-opacity:1;paint-order:markers fill stroke"
           d="m 31.021641,-21.977073 c 0.274792,0.45408 0.295954,1.056517 0.309867,1.525942 0.03138,0.308108 0.310569,0.788129 0.233858,1.023141 0.01346,0.66435 0.183571,0.559914 0.233863,0.970523"
           id="path206"
           sodipodi:nodetypes="cccc" /></g></g></g></svg>
