<?xml version="1.0" encoding="UTF-8" standalone="no"?>
<!-- Created with Inkscape (http://www.inkscape.org/) -->

<svg
   width="18.673294mm"
   height="12.103676mm"
   viewBox="0 0 18.673294 12.103676"
   version="1.1"
   id="svg1"
   inkscape:version="1.3.2 (091e20e, 2023-11-25, custom)"
   sodipodi:docname="APP_FONDA.svg"
   xml:space="preserve"
   xmlns:inkscape="http://www.inkscape.org/namespaces/inkscape"
   xmlns:sodipodi="http://sodipodi.sourceforge.net/DTD/sodipodi-0.dtd"
   xmlns="http://www.w3.org/2000/svg"
   xmlns:svg="http://www.w3.org/2000/svg"><sodipodi:namedview
     id="namedview1"
     pagecolor="#ffffff"
     bordercolor="#000000"
     borderopacity="0.25"
     inkscape:showpageshadow="2"
     inkscape:pageopacity="0.0"
     inkscape:pagecheckerboard="0"
     inkscape:deskcolor="#d1d1d1"
     inkscape:document-units="mm"
     inkscape:zoom="1.9999999"
     inkscape:cx="345.50001"
     inkscape:cy="484.25002"
     inkscape:window-width="1920"
     inkscape:window-height="1017"
     inkscape:window-x="1912"
     inkscape:window-y="-8"
     inkscape:window-maximized="1"
     inkscape:current-layer="layer1"
     showguides="false"
     inkscape:export-bgcolor="#ffffff00" /><defs
     id="defs1" /><g
     inkscape:groupmode="layer"
     id="layer2"
     inkscape:label="Capa 2"
     style="display:inline"
     transform="translate(-8.2577536,-6.2093967)"><g
       id="g288"><rect
         style="opacity:1;fill:#ffbdbd;fill-opacity:1;stroke:#ab0000;stroke-width:0.114124;stroke-linecap:round;stroke-dasharray:none;stroke-opacity:1;paint-order:markers fill stroke"
         id="rect79"
         width="18.55917"
         height="11.989552"
         x="8.3148155"
         y="6.2664585"
         ry="0.58146715" /><circle
         style="fill:#ffffff;stroke:#000000;stroke-width:0.207655;stroke-linecap:round;paint-order:markers fill stroke"
         id="path61"
         cx="17.119629"
         cy="12.182367"
         r="5.0990405" /><circle
         style="fill:#ffffff;stroke:#000000;stroke-width:0.153814;stroke-linecap:round;paint-order:markers fill stroke"
         id="path63"
         cx="17.119625"
         cy="12.27949"
         r="2.6978455" /><path
         style="fill:#e3e3e3;fill-opacity:1;stroke:#000000;stroke-width:0.218735px;stroke-linecap:butt;stroke-linejoin:miter;stroke-opacity:1"
         d="M 22.421675,16.993805 22.823934,8.44346 c 0,0 0.936144,0.0034 0.575102,2.636415 -0.112166,0.818023 -0.208372,2.093108 -0.208372,2.093108 l -0.127595,3.870357 z"
         id="path71"
         sodipodi:nodetypes="ccsccc" /><path
         style="fill:#e3e3e3;fill-opacity:1;stroke:#000000;stroke-width:0.218735px;stroke-linecap:butt;stroke-linejoin:miter;stroke-opacity:1"
         d="m 24.375922,16.903404 0.218002,-4.782693 c 0,0 -0.914659,-0.112798 -0.733094,-1.428839 0.151071,-1.095021 0.731438,-1.586801 1.103276,-1.609491 0.312073,-0.01904 0.955982,0.529906 0.850299,1.644604 -0.09295,0.980314 -0.57215,1.321006 -0.748572,1.352349 -0.176428,0.03134 -0.09752,4.84622 -0.09752,4.84622 z"
         id="path72"
         sodipodi:nodetypes="ccsssscc" /><path
         style="fill:#e3e3e3;fill-opacity:1;stroke:#000000;stroke-width:0.157773;stroke-linecap:round;stroke-dasharray:none;paint-order:markers fill stroke"
         d="M 10.07087,17.01309 9.940421,15.417586 10.26153,11.484019 C 9.362626,10.596391 9.827362,8.789211 9.860144,7.554605 l 0.09792,2.151857 0.157826,-0.01353 0.247211,-2.094754 -0.01663,2.112942 0.169875,0.01763 0.370782,-2.099961 -0.0754,2.104625 0.20657,0.02129 0.310366,-2.188767 c -0.0068,1.253315 0.381038,2.960578 -0.695833,3.988316 l -0.06145,3.863255 -0.169352,1.61565 z"
         id="path78"
         sodipodi:nodetypes="ccccccccccccccccc" /></g></g></svg>
