<?xml version="1.0" encoding="UTF-8" standalone="no"?>
<!-- Created with Inkscape (http://www.inkscape.org/) -->

<svg
   width="23.568333mm"
   height="23.568331mm"
   viewBox="0 0 23.568333 23.568331"
   version="1.1"
   id="svg1"
   inkscape:version="1.3.2 (091e20e, 2023-11-25, custom)"
   sodipodi:docname="APP_FONDA.svg"
   xml:space="preserve"
   xmlns:inkscape="http://www.inkscape.org/namespaces/inkscape"
   xmlns:sodipodi="http://sodipodi.sourceforge.net/DTD/sodipodi-0.dtd"
   xmlns="http://www.w3.org/2000/svg"
   xmlns:svg="http://www.w3.org/2000/svg"><sodipodi:namedview
     id="namedview1"
     pagecolor="#ffffff"
     bordercolor="#000000"
     borderopacity="0.25"
     inkscape:showpageshadow="2"
     inkscape:pageopacity="0.0"
     inkscape:pagecheckerboard="0"
     inkscape:deskcolor="#d1d1d1"
     inkscape:document-units="mm"
     inkscape:zoom="0.70710678"
     inkscape:cx="-317.49094"
     inkscape:cy="700.74282"
     inkscape:window-width="1920"
     inkscape:window-height="1017"
     inkscape:window-x="-8"
     inkscape:window-y="-8"
     inkscape:window-maximized="1"
     inkscape:current-layer="layer2"
     showguides="true"
     inkscape:export-bgcolor="#ffffff00" /><defs
     id="defs1" /><g
     id="g2077"
     transform="translate(63.510206,-213.37626)"><circle
       style="fill:#ffffff;fill-opacity:1;stroke:#000000;stroke-width:0.285001;stroke-linecap:round;stroke-dasharray:none;stroke-opacity:1;paint-order:markers fill stroke"
       id="path1668"
       cx="-51.72604"
       cy="225.16042"
       r="11.641666" /><circle
       style="opacity:0.804511;fill:#ff0200;fill-opacity:1;stroke:#000000;stroke-width:0.253006;stroke-linecap:round;stroke-dasharray:none;stroke-opacity:1;paint-order:markers fill stroke"
       id="circle1668"
       cx="-51.72604"
       cy="225.16042"
       r="10.334747" /><path
       style="fill:#ff7445;fill-opacity:1;stroke:#ffb892;stroke-width:0.285;stroke-linecap:round;stroke-dasharray:none;stroke-opacity:1;paint-order:markers fill stroke"
       d="m -53.243227,220.09098 c -0.03434,1.58686 -0.683209,2.02461 -1.169236,2.94091 -0.670269,1.03476 -1.405961,1.85904 -2.347768,2.02009 -0.93929,-1.37063 -1.653778,-2.72589 -1.597004,-4.02842 0.542842,-0.55169 1.1055,-0.72524 1.624485,-1.73227 0.121923,-1.10791 0.348652,-2.02078 0.887689,-2.35251 0.983619,1.75522 1.795533,2.76261 2.601834,3.1522 z"
       id="path1670"
       sodipodi:nodetypes="ccccccc" /><path
       style="fill:#ffb892;fill-opacity:1;stroke:#ff7445;stroke-width:0.885;stroke-linecap:round;stroke-dasharray:none;stroke-opacity:1;paint-order:markers fill stroke"
       d="m -47.257873,227.24774 c -1.296939,-0.91502 -1.297495,-1.69774 -1.785937,-2.61276 -0.483749,-1.134 -0.756389,-2.20468 -0.363803,-3.07578 1.661543,-0.0133 3.184743,0.15126 4.233334,0.92604 0.154292,0.75844 -0.01611,1.32206 0.529166,2.3151 0.850769,0.72008 1.481221,1.41812 1.455209,2.05052 -2.005274,-0.16479 -3.294386,-0.0542 -4.067969,0.39688 z"
       id="path1669"
       sodipodi:nodetypes="ccccccc" /><path
       style="fill:#ff7445;fill-opacity:1;stroke:#ffb892;stroke-width:0.195092;stroke-linecap:round;stroke-dasharray:none;stroke-opacity:1;paint-order:markers fill stroke"
       d="m -49.539921,231.96849 c -1.362984,0.32363 -1.997307,0.12542 -2.97269,0.10268 -1.150532,-0.0803 -2.148553,-0.23493 -2.665989,-0.62397 0.78578,-0.71518 1.649316,-1.326 2.779634,-1.57879 0.688354,0.12619 1.06323,0.34208 2.129064,0.36026 0.991179,-0.18191 1.858882,-0.27502 2.358696,-0.10354 -1.094838,0.8173 -1.62326,1.39759 -1.628715,1.84336 z"
       id="path1671"
       sodipodi:nodetypes="ccccccc" /><path
       style="fill:#ff7445;fill-opacity:1;stroke:#ffb892;stroke-width:0.130482;stroke-linecap:round;stroke-dasharray:none;stroke-opacity:1;paint-order:markers fill stroke"
       d="m -50.316537,234.54493 c -0.772503,0.20663 -1.328606,0.0801 -2.02476,0.0656 -0.851349,-0.0513 -1.637692,-0.15 -2.219487,-0.3984 0.147421,-0.45663 0.408136,-0.84663 1.057558,-1.00803 0.553412,0.0806 0.937705,0.21841 1.694678,0.23002 0.591887,-0.11615 1.147321,-0.1756 1.594153,-0.0661 -0.306391,0.52183 -0.349529,0.89234 -0.102098,1.17696 z"
       id="path1672"
       sodipodi:nodetypes="ccccccc" /><path
       style="fill:#ff7445;fill-opacity:1;stroke:#ffb892;stroke-width:0.112857;stroke-linecap:round;stroke-dasharray:none;stroke-opacity:1;paint-order:markers fill stroke"
       d="m -43.958896,229.7363 c -0.569624,0.20963 -0.97968,0.0813 -1.493006,0.0666 -0.627763,-0.052 -1.207592,-0.15218 -1.636593,-0.40419 0.108704,-0.46326 0.300949,-0.85893 0.779816,-1.02268 0.408072,0.0818 0.69144,0.22158 1.249613,0.23336 0.436442,-0.11783 0.846005,-0.17815 1.175487,-0.0671 -0.225925,0.52942 -0.257733,0.90531 -0.07528,1.19407 z"
       id="path1673"
       sodipodi:nodetypes="ccccccc" /><path
       style="fill:#ffb892;fill-opacity:1;stroke:#ff7445;stroke-width:0.509964;stroke-linecap:round;stroke-dasharray:none;stroke-opacity:1;paint-order:markers fill stroke"
       d="m -50.566083,227.36399 c -0.504963,0.77833 -0.93885,0.77992 -1.445219,1.07397 -0.627776,0.29158 -1.22081,0.45661 -1.70437,0.22286 -0.0099,-0.99523 0.07836,-1.90788 0.505977,-2.53722 0.42015,-0.0936 0.732885,0.007 1.282405,-0.32069 0.397679,-0.51077 0.783531,-0.88952 1.134135,-0.87496 -0.08791,1.20141 -0.02437,1.9734 0.227072,2.43604 z"
       id="path1674"
       sodipodi:nodetypes="ccccccc" /><path
       style="fill:#ffb892;fill-opacity:1;stroke:#ff7445;stroke-width:0.509964;stroke-linecap:round;stroke-dasharray:none;stroke-opacity:1;paint-order:markers fill stroke"
       d="m -52.064543,216.70806 c 0.542651,-0.46468 1.039542,-0.26932 1.606032,-0.30174 0.705637,0.0248 1.377333,0.14671 1.941917,0.57434 0.05701,0.89148 -0.0022,1.66485 -0.463099,2.03182 -0.476937,-0.10713 -0.839752,-0.33862 -1.454119,-0.29578 -0.432056,0.27486 -0.85662,0.43743 -1.258859,0.26545 0.04556,-1.03088 -0.06265,-1.74773 -0.371872,-2.27409 z"
       id="path1675"
       sodipodi:nodetypes="ccccccc" /><path
       style="fill:#ff7445;fill-opacity:1;stroke:#ffb892;stroke-width:0.285001;stroke-linecap:round;stroke-dasharray:none;stroke-opacity:1;paint-order:markers fill stroke"
       d="m -58.652298,231.42868 -0.23386,-0.37418 -1.683798,-3.46114 -0.420949,-1.63702 0.982215,-2.5257 1.356392,-0.32741 0.888672,2.01121 1.637027,1.21608 1.309619,1.54348 -0.327404,2.05797 -0.748355,1.6838 v 1.26285 l -0.795126,0.74835 -1.824117,-1.63702 z"
       id="path1676" /><path
       style="fill:#ff7445;fill-opacity:1;stroke:#ffb892;stroke-width:0.23089;stroke-linecap:round;stroke-dasharray:none;stroke-opacity:1;paint-order:markers fill stroke"
       d="m -60.202213,226.86222 -0.165107,-0.74298 0.825536,-0.51596 0.742983,0.55723 -0.495322,0.82554 z"
       id="path1677" /><path
       style="fill:#ff7445;fill-opacity:1;stroke:#ffb892;stroke-width:0.23089;stroke-linecap:round;stroke-dasharray:none;stroke-opacity:1;paint-order:markers fill stroke"
       d="m -59.351325,225.48977 0.309316,-0.69542 0.970507,0.0764 0.265677,0.88991 -0.889268,0.36886 z"
       id="path1678" /><path
       style="fill:#ff7445;fill-opacity:1;stroke:#ffb892;stroke-width:0.23089;stroke-linecap:round;stroke-dasharray:none;stroke-opacity:1;paint-order:markers fill stroke"
       d="m -59.828036,228.33554 -0.165107,-0.74298 0.825536,-0.51596 0.742983,0.55723 -0.495322,0.82554 z"
       id="path1679" /><path
       style="fill:#ff7445;fill-opacity:1;stroke:#ffb892;stroke-width:0.23089;stroke-linecap:round;stroke-dasharray:none;stroke-opacity:1;paint-order:markers fill stroke"
       d="m -58.977148,226.96309 0.309316,-0.69542 0.970507,0.0764 0.265677,0.88991 -0.889268,0.36886 z"
       id="path1680" /><path
       style="fill:#ff7445;fill-opacity:1;stroke:#ffb892;stroke-width:0.23089;stroke-linecap:round;stroke-dasharray:none;stroke-opacity:1;paint-order:markers fill stroke"
       d="m -58.097466,228.7331 -0.165107,-0.74298 0.825536,-0.51596 0.742983,0.55723 -0.495322,0.82554 z"
       id="path1681" /><path
       style="fill:#ff7445;fill-opacity:1;stroke:#ffb892;stroke-width:0.23089;stroke-linecap:round;stroke-dasharray:none;stroke-opacity:1;paint-order:markers fill stroke"
       d="m -57.246578,227.36065 0.309316,-0.69542 0.970507,0.0764 0.265677,0.88991 -0.889268,0.36886 z"
       id="path1682" /><path
       style="fill:#ff7445;fill-opacity:1;stroke:#ffb892;stroke-width:0.23089;stroke-linecap:round;stroke-dasharray:none;stroke-opacity:1;paint-order:markers fill stroke"
       d="m -57.886991,230.22981 -0.165107,-0.74298 0.825536,-0.51596 0.742983,0.55723 -0.495322,0.82554 z"
       id="path1683" /><path
       style="fill:#ff7445;fill-opacity:1;stroke:#ffb892;stroke-width:0.23089;stroke-linecap:round;stroke-dasharray:none;stroke-opacity:1;paint-order:markers fill stroke"
       d="m -57.036103,228.85736 0.309316,-0.69542 0.970507,0.0764 0.265677,0.88991 -0.889268,0.36886 z"
       id="path1684" /><path
       style="fill:#ff7445;fill-opacity:1;stroke:#ffb892;stroke-width:0.23089;stroke-linecap:round;stroke-dasharray:none;stroke-opacity:1;paint-order:markers fill stroke"
       d="m -57.699902,231.86684 -0.165107,-0.74298 0.825536,-0.51596 0.742983,0.55723 -0.495322,0.82554 z"
       id="path1685" /><path
       style="fill:#ff7445;fill-opacity:1;stroke:#ffb892;stroke-width:0.23089;stroke-linecap:round;stroke-dasharray:none;stroke-opacity:1;paint-order:markers fill stroke"
       d="m -56.849014,230.49439 0.309316,-0.69542 0.970507,0.0764 0.265677,0.88991 -0.889268,0.36886 z"
       id="path1686" /><path
       style="fill:#ff7445;fill-opacity:1;stroke:#ffb892;stroke-width:0.23089;stroke-linecap:round;stroke-dasharray:none;stroke-opacity:1;paint-order:markers fill stroke"
       d="m -59.313542,229.80886 -0.165107,-0.74298 0.825536,-0.51596 0.742983,0.55723 -0.495322,0.82554 z"
       id="path1687" /><g
       id="g1705"
       transform="translate(0,-0.1984375)"><path
         style="opacity:1;fill:#fff7f4;fill-opacity:1;stroke:#000000;stroke-width:0.0261502;stroke-linecap:round;stroke-dasharray:none;stroke-opacity:1;paint-order:markers fill stroke"
         d="m -50.464111,228.1149 0.230231,-1.30944 1.194321,-0.24462 -0.374124,2.28792 z"
         id="path1688" /><path
         style="opacity:1;fill:#fff7f4;fill-opacity:1;stroke:#000000;stroke-width:0.0261502;stroke-linecap:round;stroke-dasharray:none;stroke-opacity:1;paint-order:markers fill stroke"
         d="m -50.287377,225.78576 -1.143823,0.67773 -0.963216,-0.7473 1.98022,-1.20552 z"
         id="path1689" /><path
         style="opacity:1;fill:#fff7f4;fill-opacity:1;stroke:#000000;stroke-width:0.0261502;stroke-linecap:round;stroke-dasharray:none;stroke-opacity:1;paint-order:markers fill stroke"
         d="m -50.995791,230.09099 1.314892,-0.19674 0.610604,1.05518 -2.28852,0.37044 z"
         id="path1690"
         inkscape:transform-center-x="0.0011966224"
         inkscape:transform-center-y="0.092553941" /><path
         style="opacity:1;fill:#fff7f4;fill-opacity:1;stroke:#000000;stroke-width:0.0217016;stroke-linecap:round;stroke-dasharray:none;stroke-opacity:1;paint-order:markers fill stroke"
         d="m -48.462821,227.13262 0.179331,-1.15778 0.930276,-0.21629 -0.291411,2.02294 z"
         id="path1691" /><path
         style="opacity:1;fill:#fff7f4;fill-opacity:1;stroke:#000000;stroke-width:0.0217016;stroke-linecap:round;stroke-dasharray:none;stroke-opacity:1;paint-order:markers fill stroke"
         d="m -48.32516,225.07323 -0.890942,0.59924 -0.750264,-0.66075 1.542425,-1.0659 z"
         id="path1692" /><path
         style="opacity:1;fill:#fff7f4;fill-opacity:1;stroke:#000000;stroke-width:0.0217016;stroke-linecap:round;stroke-dasharray:none;stroke-opacity:1;paint-order:markers fill stroke"
         d="m -48.876955,228.87985 1.024191,-0.17395 0.475609,0.93297 -1.782565,0.32754 z"
         id="path1693"
         inkscape:transform-center-x="0.00093212062"
         inkscape:transform-center-y="0.0818355" /><path
         style="opacity:1;fill:#fff7f4;fill-opacity:1;stroke:#000000;stroke-width:0.0261502;stroke-linecap:round;stroke-dasharray:none;stroke-opacity:1;paint-order:markers fill stroke"
         d="m -52.602198,220.82991 1.324431,-0.11629 0.545205,1.09041 -2.306832,0.23037 z"
         id="path1694" /><path
         style="opacity:1;fill:#fff7f4;fill-opacity:1;stroke:#000000;stroke-width:0.0261502;stroke-linecap:round;stroke-dasharray:none;stroke-opacity:1;paint-order:markers fill stroke"
         d="m -50.306603,220.3982 -0.950515,-0.92961 0.472736,-1.12373 1.676679,1.60103 z"
         id="path1695" /><path
         style="opacity:1;fill:#fff7f4;fill-opacity:1;stroke:#000000;stroke-width:0.0261502;stroke-linecap:round;stroke-dasharray:none;stroke-opacity:1;paint-order:markers fill stroke"
         d="m -54.648562,220.82743 0.53014,1.21926 -0.861343,0.86275 -0.949756,-2.11483 z"
         id="path1696"
         inkscape:transform-center-x="0.16867956"
         inkscape:transform-center-y="0.15924591" /><path
         style="opacity:1;fill:#fff7f4;fill-opacity:1;stroke:#000000;stroke-width:0.0217016;stroke-linecap:round;stroke-dasharray:none;stroke-opacity:1;paint-order:markers fill stroke"
         d="m -51.135713,222.50903 1.164767,-0.12623 0.449544,0.84268 -2.029476,0.24173 z"
         id="path1697" /><path
         style="opacity:1;fill:#fff7f4;fill-opacity:1;stroke:#000000;stroke-width:0.0217016;stroke-linecap:round;stroke-dasharray:none;stroke-opacity:1;paint-order:markers fill stroke"
         d="m -49.110795,222.10935 -0.809289,-0.70563 0.444211,-0.89564 1.428575,1.21425 z"
         id="path1698" /><path
         style="opacity:1;fill:#fff7f4;fill-opacity:1;stroke:#000000;stroke-width:0.0217016;stroke-linecap:round;stroke-dasharray:none;stroke-opacity:1;paint-order:markers fill stroke"
         d="m -52.930602,222.56091 0.432936,0.94434 -0.778207,0.70074 -0.777452,-1.63719 z"
         id="path1699"
         inkscape:transform-center-x="0.14079961"
         inkscape:transform-center-y="0.13697748" /><path
         style="opacity:1;fill:#fff7f4;fill-opacity:1;stroke:#000000;stroke-width:0.0261502;stroke-linecap:round;stroke-dasharray:none;stroke-opacity:1;paint-order:markers fill stroke"
         d="m -54.649699,228.76266 -0.655656,-1.15662 0.765643,-0.9487 1.167301,2.00299 z"
         id="path1700" /><path
         style="opacity:1;fill:#fff7f4;fill-opacity:1;stroke:#000000;stroke-width:0.0261502;stroke-linecap:round;stroke-dasharray:none;stroke-opacity:1;paint-order:markers fill stroke"
         d="m -55.995503,226.85349 -0.451084,1.25067 -1.218573,0.0365 0.760425,-2.19004 z"
         id="path1701" /><path
         style="opacity:1;fill:#fff7f4;fill-opacity:1;stroke:#000000;stroke-width:0.0261502;stroke-linecap:round;stroke-dasharray:none;stroke-opacity:1;paint-order:markers fill stroke"
         d="m -53.80237,230.62536 0.889118,-0.98849 1.142484,0.42541 -1.529647,1.74205 z"
         id="path1702"
         inkscape:transform-center-x="-0.14272691"
         inkscape:transform-center-y="0.2664366" /><path
         style="opacity:1;fill:#fff7f4;fill-opacity:1;stroke:#000000;stroke-width:0.0217016;stroke-linecap:round;stroke-dasharray:none;stroke-opacity:1;paint-order:markers fill stroke"
         d="m -53.730966,226.73141 -0.598412,-1.00723 0.579988,-0.75882 1.062486,1.74594 z"
         id="path1703" /><path
         style="opacity:1;fill:#fff7f4;fill-opacity:1;stroke:#000000;stroke-width:0.0217016;stroke-linecap:round;stroke-dasharray:none;stroke-opacity:1;paint-order:markers fill stroke"
         d="m -54.935255,225.05519 -0.305952,1.0292 -0.999226,-0.0323 0.511559,-1.80375 z"
         id="path1704" /><path
         style="opacity:1;fill:#fff7f4;fill-opacity:1;stroke:#000000;stroke-width:0.0217016;stroke-linecap:round;stroke-dasharray:none;stroke-opacity:1;paint-order:markers fill stroke"
         d="m -52.938588,228.34277 0.679367,-0.78592 0.960581,0.41704 -1.166652,1.38699 z"
         id="path1705"
         inkscape:transform-center-x="-0.11155407"
         inkscape:transform-center-y="0.2150487" /></g><path
       style="fill:#07a300;fill-opacity:1;stroke:#000000;stroke-width:0.205897;stroke-linecap:round;stroke-dasharray:none;stroke-opacity:1;paint-order:markers fill stroke"
       d="m -48.591529,222.58364 c -0.131353,0.0596 -0.24136,0.0752 -0.347287,0.17315 -0.749465,0.6927 -1.481827,1.44825 -2.315456,2.26419 -0.8592,0.84096 -1.531265,2.03162 -2.531283,2.56937 -0.926629,0.49828 -2.333601,0.19077 -3.151284,0.21537 -0.293583,0.009 0.439051,0.42534 0.721537,0.50577 0.95243,0.27122 2.044034,0.19323 2.966118,-0.16792 1.360171,-0.53275 2.352366,-1.66393 3.328707,-2.7505 0.727409,-0.80954 1.201781,-1.429 1.677094,-2.25274 0.04861,-0.0842 -3.61e-4,-0.4349 -3.61e-4,-0.4349 l 0.760218,-0.81358 c 0,0 0.169878,-0.1853 0.396576,-0.0286 0.189757,0.13112 0.409419,0.39401 0.607247,0.56743 0.195431,0.1713 -0.208898,0.61019 -0.08637,0.6149 0.110843,0.004 0.368112,-0.48447 0.217929,-0.66154 -0.296863,-0.35002 -0.831382,-0.82933 -1.042587,-0.74596 -0.212141,0.0838 -0.889722,0.86838 -0.889722,0.86838 -0.09647,0.0786 -0.189184,0.0219 -0.311023,0.0774 z"
       id="path1706"
       sodipodi:nodetypes="sssssssssccsssssss" /></g></svg>
