<?xml version="1.0" encoding="UTF-8" standalone="no"?>
<!-- Created with Inkscape (http://www.inkscape.org/) -->

<svg
   width="23.101242mm"
   height="12.778339mm"
   viewBox="0 0 23.101242 12.778339"
   version="1.1"
   id="svg1"
   inkscape:version="1.3.2 (091e20e, 2023-11-25, custom)"
   sodipodi:docname="APP_FONDA.svg"
   xml:space="preserve"
   xmlns:inkscape="http://www.inkscape.org/namespaces/inkscape"
   xmlns:sodipodi="http://sodipodi.sourceforge.net/DTD/sodipodi-0.dtd"
   xmlns="http://www.w3.org/2000/svg"
   xmlns:svg="http://www.w3.org/2000/svg"><sodipodi:namedview
     id="namedview1"
     pagecolor="#ffffff"
     bordercolor="#000000"
     borderopacity="0.25"
     inkscape:showpageshadow="2"
     inkscape:pageopacity="0.0"
     inkscape:pagecheckerboard="0"
     inkscape:deskcolor="#d1d1d1"
     inkscape:document-units="mm"
     inkscape:zoom="0.70710678"
     inkscape:cx="-317.49094"
     inkscape:cy="700.74282"
     inkscape:window-width="1920"
     inkscape:window-height="1017"
     inkscape:window-x="-8"
     inkscape:window-y="-8"
     inkscape:window-maximized="1"
     inkscape:current-layer="layer2"
     showguides="true"
     inkscape:export-bgcolor="#ffffff00" /><defs
     id="defs1" /><g
     inkscape:groupmode="layer"
     id="layer2"
     inkscape:label="Capa 2"
     style="display:inline"
     transform="translate(59.05755,-173.21197)"><g
       id="g1477"
       transform="translate(0.26458333,-0.13229167)"><path
         style="fill:#ffffff;fill-opacity:1;stroke:#000000;stroke-width:0.0860264;stroke-linecap:round;stroke-dasharray:none;stroke-opacity:1;paint-order:markers fill stroke"
         id="path1457"
         sodipodi:type="arc"
         sodipodi:cx="-47.771496"
         sodipodi:cy="180.72815"
         sodipodi:rx="11.50759"
         sodipodi:ry="5.3514323"
         sodipodi:start="0"
         sodipodi:end="6.2474506"
         sodipodi:open="true"
         sodipodi:arc-type="arc"
         d="m -36.263906,180.72815 a 11.50759,5.3514323 0 0 1 -11.404786,5.35122 11.50759,5.3514323 0 0 1 -11.608557,-5.25561 11.50759,5.3514323 0 0 1 11.197375,-5.44512 11.50759,5.3514323 0 0 1 11.808622,5.15832" /><path
         style="opacity:0.616529;fill:#ffffff;fill-opacity:1;stroke:#000000;stroke-width:0.0864828;stroke-linecap:round;stroke-dasharray:none;stroke-opacity:1;paint-order:markers fill stroke"
         id="path1458"
         sodipodi:type="arc"
         sodipodi:cx="-47.771496"
         sodipodi:cy="180.7281"
         sodipodi:rx="7.0442753"
         sodipodi:ry="3.2758348"
         sodipodi:start="0"
         sodipodi:end="6.2474506"
         sodipodi:open="true"
         sodipodi:arc-type="arc"
         d="m -40.727221,180.7281 a 7.0442753,3.2758348 0 0 1 -6.981344,3.27571 7.0442753,3.2758348 0 0 1 -7.106082,-3.21718 7.0442753,3.2758348 0 0 1 6.85438,-3.33318 7.0442753,3.2758348 0 0 1 7.228549,3.15762" /><g
         id="g1450"
         transform="matrix(-0.38390878,-2.5294772,2.5467443,-0.4793161,18.351609,251.61929)"><path
           style="opacity:1;fill:#d3e300;fill-opacity:1;stroke:#000000;stroke-width:0.0720382;stroke-linecap:round;stroke-dasharray:none;paint-order:markers fill stroke"
           d="m 31.650946,-18.328307 c -8.34e-4,-0.17991 -0.02316,-0.421833 -0.161669,-0.601743 -0.127442,-0.210557 -0.125688,-0.338431 -0.09949,-0.569659 0.02693,-0.220698 0.04001,-0.338042 -0.104494,-0.571142 -0.176677,-0.257916 -0.06196,-0.386875 -0.116592,-0.525311 -0.03509,-0.08892 -0.0045,-0.303898 -0.0042,-0.476523 0.0027,-0.181575 0.01329,-0.329559 -0.135307,-0.542298 -0.149524,-0.207827 -0.116982,-0.290745 -0.138479,-0.470121 l 0.523015,-0.185183 c 0.200477,0.265237 0.05031,0.349222 0.234912,0.651965 0.07299,0.119702 0.123904,0.424206 0.05347,0.62061 -0.04719,0.131599 0.177975,0.362871 0.14293,0.495718 -0.08645,0.327724 0.07291,0.447759 0.122747,0.562396 0.04942,0.113676 -0.04162,0.303519 0.05328,0.479548 0.0506,0.09384 0.06937,0.407974 0.05402,0.510465 0.0447,0.220622 0.224523,0.306199 0.209396,0.504915 z"
           id="path1449"
           sodipodi:nodetypes="ccccsccccsssssccc"
           inkscape:transform-center-x="-0.021914208"
           inkscape:transform-center-y="0.39396267" /><path
           style="opacity:1;fill:#d3e300;fill-opacity:1;stroke:#000000;stroke-width:0.04;stroke-linecap:round;stroke-dasharray:none;stroke-opacity:1;paint-order:markers fill stroke"
           d="m 31.021641,-21.977073 c 0.274792,0.45408 0.295954,1.056517 0.309867,1.525942 0.03138,0.308108 0.310569,0.788129 0.233858,1.023141 0.01346,0.66435 0.183571,0.559914 0.233863,0.970523"
           id="path1450"
           sodipodi:nodetypes="cccc" /></g><g
         id="g1462"
         transform="matrix(-0.38390878,-2.5294772,2.5467443,-0.4793161,13.387205,250.20089)"><path
           style="opacity:1;fill:#d3e300;fill-opacity:1;stroke:#000000;stroke-width:0.0720382;stroke-linecap:round;stroke-dasharray:none;paint-order:markers fill stroke"
           d="m 31.650946,-18.328307 c -8.34e-4,-0.17991 -0.02316,-0.421833 -0.161669,-0.601743 -0.127442,-0.210557 -0.125688,-0.338431 -0.09949,-0.569659 0.02693,-0.220698 0.04001,-0.338042 -0.104494,-0.571142 -0.176677,-0.257916 -0.06196,-0.386875 -0.116592,-0.525311 -0.03509,-0.08892 -0.0045,-0.303898 -0.0042,-0.476523 0.0027,-0.181575 0.01329,-0.329559 -0.135307,-0.542298 -0.149524,-0.207827 -0.116982,-0.290745 -0.138479,-0.470121 l 0.523015,-0.185183 c 0.200477,0.265237 0.05031,0.349222 0.234912,0.651965 0.07299,0.119702 0.123904,0.424206 0.05347,0.62061 -0.04719,0.131599 0.177975,0.362871 0.14293,0.495718 -0.08645,0.327724 0.07291,0.447759 0.122747,0.562396 0.04942,0.113676 -0.04162,0.303519 0.05328,0.479548 0.0506,0.09384 0.06937,0.407974 0.05402,0.510465 0.0447,0.220622 0.224523,0.306199 0.209396,0.504915 z"
           id="path1461"
           sodipodi:nodetypes="ccccsccccsssssccc"
           inkscape:transform-center-x="-0.021914208"
           inkscape:transform-center-y="0.39396267" /><path
           style="opacity:1;fill:#d3e300;fill-opacity:1;stroke:#000000;stroke-width:0.04;stroke-linecap:round;stroke-dasharray:none;stroke-opacity:1;paint-order:markers fill stroke"
           d="m 31.021641,-21.977073 c 0.274792,0.45408 0.295954,1.056517 0.309867,1.525942 0.03138,0.308108 0.310569,0.788129 0.233858,1.023141 0.01346,0.66435 0.183571,0.559914 0.233863,0.970523"
           id="path1462"
           sodipodi:nodetypes="cccc" /></g><g
         id="g1464"
         transform="matrix(-0.38390878,-2.5294772,2.5467443,-0.4793161,11.056974,248.78249)"><path
           style="opacity:1;fill:#d3e300;fill-opacity:1;stroke:#000000;stroke-width:0.0720382;stroke-linecap:round;stroke-dasharray:none;paint-order:markers fill stroke"
           d="m 31.650946,-18.328307 c -8.34e-4,-0.17991 -0.02316,-0.421833 -0.161669,-0.601743 -0.127442,-0.210557 -0.125688,-0.338431 -0.09949,-0.569659 0.02693,-0.220698 0.04001,-0.338042 -0.104494,-0.571142 -0.176677,-0.257916 -0.06196,-0.386875 -0.116592,-0.525311 -0.03509,-0.08892 -0.0045,-0.303898 -0.0042,-0.476523 0.0027,-0.181575 0.01329,-0.329559 -0.135307,-0.542298 -0.149524,-0.207827 -0.116982,-0.290745 -0.138479,-0.470121 l 0.523015,-0.185183 c 0.200477,0.265237 0.05031,0.349222 0.234912,0.651965 0.07299,0.119702 0.123904,0.424206 0.05347,0.62061 -0.04719,0.131599 0.177975,0.362871 0.14293,0.495718 -0.08645,0.327724 0.07291,0.447759 0.122747,0.562396 0.04942,0.113676 -0.04162,0.303519 0.05328,0.479548 0.0506,0.09384 0.06937,0.407974 0.05402,0.510465 0.0447,0.220622 0.224523,0.306199 0.209396,0.504915 z"
           id="path1463"
           sodipodi:nodetypes="ccccsccccsssssccc"
           inkscape:transform-center-x="-0.021914208"
           inkscape:transform-center-y="0.39396267" /><path
           style="opacity:1;fill:#d3e300;fill-opacity:1;stroke:#000000;stroke-width:0.04;stroke-linecap:round;stroke-dasharray:none;stroke-opacity:1;paint-order:markers fill stroke"
           d="m 31.021641,-21.977073 c 0.274792,0.45408 0.295954,1.056517 0.309867,1.525942 0.03138,0.308108 0.310569,0.788129 0.233858,1.023141 0.01346,0.66435 0.183571,0.559914 0.233863,0.970523"
           id="path1464"
           sodipodi:nodetypes="cccc" /></g><g
         id="g1466"
         transform="matrix(0.75527178,-2.4444235,2.5014935,0.67689005,-20.782081,271.27586)"><path
           style="opacity:1;fill:#d3e300;fill-opacity:1;stroke:#000000;stroke-width:0.0720382;stroke-linecap:round;stroke-dasharray:none;paint-order:markers fill stroke"
           d="m 31.650946,-18.328307 c -8.34e-4,-0.17991 -0.02316,-0.421833 -0.161669,-0.601743 -0.127442,-0.210557 -0.125688,-0.338431 -0.09949,-0.569659 0.02693,-0.220698 0.04001,-0.338042 -0.104494,-0.571142 -0.176677,-0.257916 -0.06196,-0.386875 -0.116592,-0.525311 -0.03509,-0.08892 -0.0045,-0.303898 -0.0042,-0.476523 0.0027,-0.181575 0.01329,-0.329559 -0.135307,-0.542298 -0.149524,-0.207827 -0.116982,-0.290745 -0.138479,-0.470121 l 0.523015,-0.185183 c 0.200477,0.265237 0.05031,0.349222 0.234912,0.651965 0.07299,0.119702 0.123904,0.424206 0.05347,0.62061 -0.04719,0.131599 0.177975,0.362871 0.14293,0.495718 -0.08645,0.327724 0.07291,0.447759 0.122747,0.562396 0.04942,0.113676 -0.04162,0.303519 0.05328,0.479548 0.0506,0.09384 0.06937,0.407974 0.05402,0.510465 0.0447,0.220622 0.224523,0.306199 0.209396,0.504915 z"
           id="path1465"
           sodipodi:nodetypes="ccccsccccsssssccc"
           inkscape:transform-center-x="-0.021914208"
           inkscape:transform-center-y="0.39396267" /><path
           style="opacity:1;fill:#d3e300;fill-opacity:1;stroke:#000000;stroke-width:0.04;stroke-linecap:round;stroke-dasharray:none;stroke-opacity:1;paint-order:markers fill stroke"
           d="m 31.021641,-21.977073 c 0.274792,0.45408 0.295954,1.056517 0.309867,1.525942 0.03138,0.308108 0.310569,0.788129 0.233858,1.023141 0.01346,0.66435 0.183571,0.559914 0.233863,0.970523"
           id="path1466"
           sodipodi:nodetypes="cccc" /></g><g
         id="g1468"
         transform="matrix(1.4653559,-2.09723,2.1755014,1.4081347,-44.822916,273.05347)"><path
           style="opacity:1;fill:#d3e300;fill-opacity:1;stroke:#000000;stroke-width:0.0720382;stroke-linecap:round;stroke-dasharray:none;paint-order:markers fill stroke"
           d="m 31.650946,-18.328307 c -8.34e-4,-0.17991 -0.02316,-0.421833 -0.161669,-0.601743 -0.127442,-0.210557 -0.125688,-0.338431 -0.09949,-0.569659 0.02693,-0.220698 0.04001,-0.338042 -0.104494,-0.571142 -0.176677,-0.257916 -0.06196,-0.386875 -0.116592,-0.525311 -0.03509,-0.08892 -0.0045,-0.303898 -0.0042,-0.476523 0.0027,-0.181575 0.01329,-0.329559 -0.135307,-0.542298 -0.149524,-0.207827 -0.116982,-0.290745 -0.138479,-0.470121 l 0.523015,-0.185183 c 0.200477,0.265237 0.05031,0.349222 0.234912,0.651965 0.07299,0.119702 0.123904,0.424206 0.05347,0.62061 -0.04719,0.131599 0.177975,0.362871 0.14293,0.495718 -0.08645,0.327724 0.07291,0.447759 0.122747,0.562396 0.04942,0.113676 -0.04162,0.303519 0.05328,0.479548 0.0506,0.09384 0.06937,0.407974 0.05402,0.510465 0.0447,0.220622 0.224523,0.306199 0.209396,0.504915 z"
           id="path1467"
           sodipodi:nodetypes="ccccsccccsssssccc"
           inkscape:transform-center-x="-0.021914208"
           inkscape:transform-center-y="0.39396267" /><path
           style="opacity:1;fill:#d3e300;fill-opacity:1;stroke:#000000;stroke-width:0.04;stroke-linecap:round;stroke-dasharray:none;stroke-opacity:1;paint-order:markers fill stroke"
           d="m 31.021641,-21.977073 c 0.274792,0.45408 0.295954,1.056517 0.309867,1.525942 0.03138,0.308108 0.310569,0.788129 0.233858,1.023141 0.01346,0.66435 0.183571,0.559914 0.233863,0.970523"
           id="path1468"
           sodipodi:nodetypes="cccc" /></g><g
         id="g1470"
         transform="matrix(2.2585857,1.2018454,-1.1356058,2.3293881,-144.28066,187.76696)"
         inkscape:transform-center-x="1.0945024"
         inkscape:transform-center-y="0.19878298"><path
           style="opacity:1;fill:#d3e300;fill-opacity:1;stroke:#000000;stroke-width:0.0720382;stroke-linecap:round;stroke-dasharray:none;paint-order:markers fill stroke"
           d="m 31.650946,-18.328307 c -8.34e-4,-0.17991 -0.02316,-0.421833 -0.161669,-0.601743 -0.127442,-0.210557 -0.125688,-0.338431 -0.09949,-0.569659 0.02693,-0.220698 0.04001,-0.338042 -0.104494,-0.571142 -0.176677,-0.257916 -0.06196,-0.386875 -0.116592,-0.525311 -0.03509,-0.08892 -0.0045,-0.303898 -0.0042,-0.476523 0.0027,-0.181575 0.01329,-0.329559 -0.135307,-0.542298 -0.149524,-0.207827 -0.116982,-0.290745 -0.138479,-0.470121 l 0.523015,-0.185183 c 0.200477,0.265237 0.05031,0.349222 0.234912,0.651965 0.07299,0.119702 0.123904,0.424206 0.05347,0.62061 -0.04719,0.131599 0.177975,0.362871 0.14293,0.495718 -0.08645,0.327724 0.07291,0.447759 0.122747,0.562396 0.04942,0.113676 -0.04162,0.303519 0.05328,0.479548 0.0506,0.09384 0.06937,0.407974 0.05402,0.510465 0.0447,0.220622 0.224523,0.306199 0.209396,0.504915 z"
           id="path1469"
           sodipodi:nodetypes="ccccsccccsssssccc"
           inkscape:transform-center-x="-0.021914208"
           inkscape:transform-center-y="0.39396267" /><path
           style="opacity:1;fill:#d3e300;fill-opacity:1;stroke:#000000;stroke-width:0.04;stroke-linecap:round;stroke-dasharray:none;stroke-opacity:1;paint-order:markers fill stroke"
           d="m 31.021641,-21.977073 c 0.274792,0.45408 0.295954,1.056517 0.309867,1.525942 0.03138,0.308108 0.310569,0.788129 0.233858,1.023141 0.01346,0.66435 0.183571,0.559914 0.233863,0.970523"
           id="path1470"
           sodipodi:nodetypes="cccc" /></g><g
         id="g1472"
         transform="matrix(0.75527178,-2.4444235,2.5014935,0.67689005,-16.950571,269.86976)"><path
           style="opacity:1;fill:#d3e300;fill-opacity:1;stroke:#000000;stroke-width:0.0720382;stroke-linecap:round;stroke-dasharray:none;paint-order:markers fill stroke"
           d="m 31.650946,-18.328307 c -8.34e-4,-0.17991 -0.02316,-0.421833 -0.161669,-0.601743 -0.127442,-0.210557 -0.125688,-0.338431 -0.09949,-0.569659 0.02693,-0.220698 0.04001,-0.338042 -0.104494,-0.571142 -0.176677,-0.257916 -0.06196,-0.386875 -0.116592,-0.525311 -0.03509,-0.08892 -0.0045,-0.303898 -0.0042,-0.476523 0.0027,-0.181575 0.01329,-0.329559 -0.135307,-0.542298 -0.149524,-0.207827 -0.116982,-0.290745 -0.138479,-0.470121 l 0.523015,-0.185183 c 0.200477,0.265237 0.05031,0.349222 0.234912,0.651965 0.07299,0.119702 0.123904,0.424206 0.05347,0.62061 -0.04719,0.131599 0.177975,0.362871 0.14293,0.495718 -0.08645,0.327724 0.07291,0.447759 0.122747,0.562396 0.04942,0.113676 -0.04162,0.303519 0.05328,0.479548 0.0506,0.09384 0.06937,0.407974 0.05402,0.510465 0.0447,0.220622 0.224523,0.306199 0.209396,0.504915 z"
           id="path1471"
           sodipodi:nodetypes="ccccsccccsssssccc"
           inkscape:transform-center-x="-0.021914208"
           inkscape:transform-center-y="0.39396267" /><path
           style="opacity:1;fill:#d3e300;fill-opacity:1;stroke:#000000;stroke-width:0.04;stroke-linecap:round;stroke-dasharray:none;stroke-opacity:1;paint-order:markers fill stroke"
           d="m 31.021641,-21.977073 c 0.274792,0.45408 0.295954,1.056517 0.309867,1.525942 0.03138,0.308108 0.310569,0.788129 0.233858,1.023141 0.01346,0.66435 0.183571,0.559914 0.233863,0.970523"
           id="path1472"
           sodipodi:nodetypes="cccc" /></g><g
         id="g1474"
         transform="matrix(-0.30010828,-2.0347598,1.990835,-0.38557102,6.6823649,238.64535)"><path
           style="opacity:1;fill:#d3e300;fill-opacity:1;stroke:#000000;stroke-width:0.0720382;stroke-linecap:round;stroke-dasharray:none;paint-order:markers fill stroke"
           d="m 31.650946,-18.328307 c -8.34e-4,-0.17991 -0.02316,-0.421833 -0.161669,-0.601743 -0.127442,-0.210557 -0.125688,-0.338431 -0.09949,-0.569659 0.02693,-0.220698 0.04001,-0.338042 -0.104494,-0.571142 -0.176677,-0.257916 -0.06196,-0.386875 -0.116592,-0.525311 -0.03509,-0.08892 -0.0045,-0.303898 -0.0042,-0.476523 0.0027,-0.181575 0.01329,-0.329559 -0.135307,-0.542298 -0.149524,-0.207827 -0.116982,-0.290745 -0.138479,-0.470121 l 0.523015,-0.185183 c 0.200477,0.265237 0.05031,0.349222 0.234912,0.651965 0.07299,0.119702 0.123904,0.424206 0.05347,0.62061 -0.04719,0.131599 0.177975,0.362871 0.14293,0.495718 -0.08645,0.327724 0.07291,0.447759 0.122747,0.562396 0.04942,0.113676 -0.04162,0.303519 0.05328,0.479548 0.0506,0.09384 0.06937,0.407974 0.05402,0.510465 0.0447,0.220622 0.224523,0.306199 0.209396,0.504915 z"
           id="path1473"
           sodipodi:nodetypes="ccccsccccsssssccc"
           inkscape:transform-center-x="-0.021914208"
           inkscape:transform-center-y="0.39396267" /><path
           style="opacity:1;fill:#d3e300;fill-opacity:1;stroke:#000000;stroke-width:0.04;stroke-linecap:round;stroke-dasharray:none;stroke-opacity:1;paint-order:markers fill stroke"
           d="m 31.021641,-21.977073 c 0.274792,0.45408 0.295954,1.056517 0.309867,1.525942 0.03138,0.308108 0.310569,0.788129 0.233858,1.023141 0.01346,0.66435 0.183571,0.559914 0.233863,0.970523"
           id="path1474"
           sodipodi:nodetypes="cccc" /></g><g
         id="g1476"
         transform="matrix(-1.9100519,0.24785085,-0.43333933,-1.3054357,6.0646423,145.22242)"><path
           style="opacity:1;fill:#d3e300;fill-opacity:1;stroke:#000000;stroke-width:0.0720382;stroke-linecap:round;stroke-dasharray:none;paint-order:markers fill stroke"
           d="m 31.650946,-18.328307 c -8.34e-4,-0.17991 -0.02316,-0.421833 -0.161669,-0.601743 -0.127442,-0.210557 -0.125688,-0.338431 -0.09949,-0.569659 0.02693,-0.220698 0.04001,-0.338042 -0.104494,-0.571142 -0.176677,-0.257916 -0.06196,-0.386875 -0.116592,-0.525311 -0.03509,-0.08892 -0.0045,-0.303898 -0.0042,-0.476523 0.0027,-0.181575 0.01329,-0.329559 -0.135307,-0.542298 -0.149524,-0.207827 -0.116982,-0.290745 -0.138479,-0.470121 l 0.523015,-0.185183 c 0.200477,0.265237 0.05031,0.349222 0.234912,0.651965 0.07299,0.119702 0.123904,0.424206 0.05347,0.62061 -0.04719,0.131599 0.177975,0.362871 0.14293,0.495718 -0.08645,0.327724 0.07291,0.447759 0.122747,0.562396 0.04942,0.113676 -0.04162,0.303519 0.05328,0.479548 0.0506,0.09384 0.06937,0.407974 0.05402,0.510465 0.0447,0.220622 0.224523,0.306199 0.209396,0.504915 z"
           id="path1475"
           sodipodi:nodetypes="ccccsccccsssssccc"
           inkscape:transform-center-x="-0.021914208"
           inkscape:transform-center-y="0.39396267" /><path
           style="opacity:1;fill:#d3e300;fill-opacity:1;stroke:#000000;stroke-width:0.04;stroke-linecap:round;stroke-dasharray:none;stroke-opacity:1;paint-order:markers fill stroke"
           d="m 31.021641,-21.977073 c 0.274792,0.45408 0.295954,1.056517 0.309867,1.525942 0.03138,0.308108 0.310569,0.788129 0.233858,1.023141 0.01346,0.66435 0.183571,0.559914 0.233863,0.970523"
           id="path1476"
           sodipodi:nodetypes="cccc" /></g></g></g></svg>
