<?xml version="1.0" encoding="UTF-8" standalone="no"?>
<!-- Created with Inkscape (http://www.inkscape.org/) -->

<svg
   width="27.150484mm"
   height="17.031601mm"
   viewBox="0 0 27.150484 17.031601"
   version="1.1"
   id="svg1"
   inkscape:version="1.3.2 (091e20e, 2023-11-25, custom)"
   sodipodi:docname="APP_FONDA.svg"
   xml:space="preserve"
   xmlns:inkscape="http://www.inkscape.org/namespaces/inkscape"
   xmlns:sodipodi="http://sodipodi.sourceforge.net/DTD/sodipodi-0.dtd"
   xmlns="http://www.w3.org/2000/svg"
   xmlns:svg="http://www.w3.org/2000/svg"><sodipodi:namedview
     id="namedview1"
     pagecolor="#ffffff"
     bordercolor="#000000"
     borderopacity="0.25"
     inkscape:showpageshadow="2"
     inkscape:pageopacity="0.0"
     inkscape:pagecheckerboard="0"
     inkscape:deskcolor="#d1d1d1"
     inkscape:document-units="mm"
     inkscape:zoom="0.70710678"
     inkscape:cx="-317.49094"
     inkscape:cy="700.74282"
     inkscape:window-width="1920"
     inkscape:window-height="1017"
     inkscape:window-x="-8"
     inkscape:window-y="-8"
     inkscape:window-maximized="1"
     inkscape:current-layer="layer2"
     showguides="true"
     inkscape:export-bgcolor="#ffffff00" /><defs
     id="defs1" /><g
     id="g1668"
     transform="translate(60.230018,-197.22745)"><path
       style="opacity:1;fill:#f2b16f;fill-opacity:1;stroke:#ff5f00;stroke-width:0.342172;stroke-linecap:round;stroke-dasharray:none;stroke-opacity:1;paint-order:markers fill stroke"
       d="m -41.772248,204.58582 -0.688609,0.16959 -2.008445,1.07401 -0.975529,1.2436 0.229535,1.30013 2.008444,1.30013 2.524901,0.2261 3.90212,-0.6218 2.639668,-1.07401 0.229536,-0.56527 0.631225,-1.46971 -0.745993,-0.84791 -1.664139,-0.67833 -2.180596,-0.113 -2.065828,-0.16959 -0.459072,-0.113 -1.205067,0.113 z"
       id="path1652" /><path
       style="opacity:1;fill:#f2b16f;fill-opacity:1;stroke:#ff5f00;stroke-width:0.342172;stroke-linecap:round;stroke-dasharray:none;stroke-opacity:1;paint-order:markers fill stroke"
       d="m -41.930753,202.86502 -0.688609,0.13532 -2.008444,0.97405 -0.97553,1.19505 0.229535,1.31154 2.008444,1.4001 2.524902,0.35175 3.902119,-0.42758 2.639668,-0.94265 0.229537,-0.55384 0.631225,-1.43829 -0.745994,-0.88503 -1.664139,-0.76116 -2.180596,-0.22153 -2.065827,-0.2724 -0.459073,-0.13585 -1.205066,0.053 z"
       id="path1653" /><path
       style="opacity:1;fill:#f2b16f;fill-opacity:1;stroke:#ff5f00;stroke-width:0.342172;stroke-linecap:round;stroke-dasharray:none;stroke-opacity:1;paint-order:markers fill stroke"
       d="m -41.891127,201.385 -0.688609,0.16959 -2.008445,1.07401 -0.975529,1.2436 0.229535,1.30013 2.008444,1.30013 2.524902,0.22609 3.90212,-0.62179 2.639667,-1.07402 0.229537,-0.56526 0.631225,-1.46971 -0.745994,-0.84791 -1.664138,-0.67834 -2.180597,-0.113 -2.065827,-0.16958 -0.459073,-0.113 -1.205066,0.113 z"
       id="path1654" /><path
       style="opacity:1;fill:#f2b16f;fill-opacity:1;stroke:#ff5f00;stroke-width:0.342172;stroke-linecap:round;stroke-dasharray:none;stroke-opacity:1;paint-order:markers fill stroke"
       d="m -42.491791,199.89687 -0.701085,0.10925 -2.096578,0.89579 -1.082813,1.15424 0.112529,1.31497 1.884541,1.46916 2.494918,0.44403 3.942521,-0.28121 2.725355,-0.84109 0.279131,-0.54318 0.760039,-1.40931 -0.667373,-0.90927 -1.597104,-0.81993 -2.16205,-0.30153 -2.042671,-0.34797 -0.447201,-0.15234 -1.210485,0.008 z"
       id="path1655" /><path
       style="opacity:1;fill:#f2b16f;fill-opacity:1;stroke:#ff5f00;stroke-width:0.342172;stroke-linecap:round;stroke-dasharray:none;stroke-opacity:1;paint-order:markers fill stroke"
       d="m -41.778521,198.64777 -0.701085,0.10925 -2.096578,0.89579 -1.082814,1.15424 0.11253,1.31497 1.88454,1.46916 2.494919,0.44403 3.942522,-0.28121 2.725354,-0.84109 0.279131,-0.54318 0.760038,-1.40931 -0.667373,-0.90927 -1.597103,-0.81993 -2.16205,-0.30153 -2.042671,-0.34797 -0.447201,-0.15234 -1.210486,0.008 z"
       id="path1656" /><path
       style="display:inline;opacity:1;fill:#ffffff;fill-opacity:1;stroke:#000000;stroke-width:0.281;stroke-linecap:round;stroke-dasharray:none;stroke-opacity:1;paint-order:markers fill stroke"
       d="m -59.997342,203.01893 4.209495,8.79317 c 0.622762,2.6763 9.850167,3.28522 12.675257,0.42095 l 4.349811,-9.58829"
       id="path1484"
       sodipodi:nodetypes="cccc" /><ellipse
       style="display:inline;opacity:1;fill:#ffffff;fill-opacity:1;stroke:#071097;stroke-width:0.581;stroke-linecap:round;stroke-dasharray:none;stroke-opacity:1;paint-order:markers fill stroke"
       id="path1477"
       cx="-49.356182"
       cy="202.48221"
       rx="10.583333"
       ry="4.9642615" /><path
       style="display:inline;opacity:1;fill:#d98e6a;fill-opacity:1;stroke:#ff4809;stroke-width:0.281001;stroke-linecap:round;stroke-dasharray:none;stroke-opacity:1;paint-order:markers fill stroke"
       d="m -57.097467,205.49786 c -0.67011,-0.54044 -1.388124,-1.25074 -1.496711,-2.10475 -0.07158,-0.56298 0.259271,-1.13734 0.641112,-1.55718 0.482322,-0.53032 1.216871,-0.75236 1.894,-0.98767 1.035721,-0.35992 2.131052,-0.53717 3.217866,-0.68243 1.362084,-0.18205 2.743523,-0.30356 4.11595,-0.23386 1.482159,0.0753 2.966541,0.3048 4.396583,0.70159 1.085207,0.3011 2.262468,0.54923 3.133735,1.26284 0.505143,0.41373 1.077923,0.98408 1.07576,1.63703 -0.0022,0.67455 -1.122532,1.68379 -1.122532,1.68379 l -1.637026,0.8419 -2.47207,0.83071 -2.626096,0.15151 -2.623042,0.15109 -2.334807,-0.4785 -2.102908,-0.3337 c 0,0 -1.47839,-0.41345 -2.059814,-0.88237 z"
       id="path1485"
       sodipodi:nodetypes="ssssssssscccccccs" /><path
       style="display:inline;opacity:1;fill:#fff2ee;fill-opacity:1;stroke:#874e0f;stroke-width:0.0625729;stroke-linecap:round;stroke-dasharray:none;stroke-opacity:1;paint-order:markers fill stroke"
       d="m -44.896575,202.92016 h -0.07365 l -0.677546,0.45661 -0.324043,1.07523 0.279855,0.67754 0.942673,0.26513 0.883754,-0.42715 0.368231,-0.9574 -0.220938,-0.82484 -0.559711,-0.0294 -0.162022,0.47133 -0.250397,0.60389 -0.103105,-0.23566 0.220938,-0.53025 z"
       id="path1486" /><path
       style="display:inline;opacity:1;fill:#fff2ee;fill-opacity:1;stroke:#874e0f;stroke-width:0.0625729;stroke-linecap:round;stroke-dasharray:none;stroke-opacity:1;paint-order:markers fill stroke"
       d="m -42.295403,204.41285 0.07233,0.0139 0.751412,-0.32085 0.520732,-0.99497 -0.147254,-0.71812 -0.875877,-0.43791 -0.948383,0.25308 -0.541939,0.87093 0.06165,0.85169 0.54416,0.13428 0.247884,-0.43239 0.359641,-0.54593 0.05688,0.25086 -0.316842,0.47916 z"
       id="path1487" /><path
       style="display:inline;opacity:1;fill:#fff2ee;fill-opacity:1;stroke:#874e0f;stroke-width:0.0625729;stroke-linecap:round;stroke-dasharray:none;stroke-opacity:1;paint-order:markers fill stroke"
       d="m -42.295403,204.41285 0.07233,0.0139 0.751412,-0.32085 0.520732,-0.99497 -0.147254,-0.71812 -0.875877,-0.43791 -0.948383,0.25308 -0.541939,0.87093 0.06165,0.85169 0.54416,0.13428 0.247884,-0.43239 0.359641,-0.54593 0.05688,0.25086 -0.316842,0.47916 z"
       id="path1488"
       inkscape:transform-center-x="-1.8516093"
       inkscape:transform-center-y="1.7863154" /><path
       style="display:inline;opacity:1;fill:#fff2ee;fill-opacity:1;stroke:#874e0f;stroke-width:0.0625729;stroke-linecap:round;stroke-dasharray:none;stroke-opacity:1;paint-order:markers fill stroke"
       d="m -44.610507,202.82535 0.07233,0.0139 0.751412,-0.32085 0.520732,-0.99497 -0.147254,-0.71812 -0.875877,-0.43791 -0.948383,0.25308 -0.541939,0.87093 0.06165,0.85169 0.54416,0.13428 0.247884,-0.43239 0.359641,-0.54593 0.05688,0.25086 -0.316842,0.47916 z"
       id="path1489"
       inkscape:transform-center-x="-1.8516093"
       inkscape:transform-center-y="1.7863154" /><path
       style="display:inline;opacity:1;fill:#fff2ee;fill-opacity:1;stroke:#874e0f;stroke-width:0.0557652;stroke-linecap:round;stroke-dasharray:none;stroke-opacity:1;paint-order:markers fill stroke"
       d="m -55.134303,202.52871 0.05001,0.0425 0.723664,0.0807 0.84045,-0.5434 0.200806,-0.62168 -0.487351,-0.72396 -0.846734,-0.21972 -0.802485,0.43787 -0.325811,0.68774 0.363224,0.3429 0.381985,-0.22668 0.51849,-0.26573 -0.06593,0.21955 -0.455997,0.23272 z"
       id="path1490"
       inkscape:transform-center-x="-0.63230061"
       inkscape:transform-center-y="2.1763414" /><path
       style="display:inline;opacity:1;fill:#fff2ee;fill-opacity:1;stroke:#874e0f;stroke-width:0.0534246;stroke-linecap:round;stroke-dasharray:none;stroke-opacity:1;paint-order:markers fill stroke"
       d="m -55.720109,202.56098 -0.05984,-0.0193 -0.670182,0.19362 -0.544918,0.78892 0.04998,0.62389 0.696621,0.46233 0.830039,-0.11568 0.549969,-0.6816 0.03647,-0.72816 -0.447145,-0.17047 -0.255101,0.3406 -0.361632,0.42516 -0.02207,-0.2185 0.318409,-0.37305 z"
       id="path1491"
       inkscape:transform-center-x="1.3747737"
       inkscape:transform-center-y="-1.7179802" /><path
       style="display:inline;opacity:1;fill:#fff2ee;fill-opacity:1;stroke:#874e0f;stroke-width:0.0332149;stroke-linecap:round;stroke-dasharray:none;stroke-opacity:1;paint-order:markers fill stroke"
       d="m -54.037498,205.29453 0.0384,0.007 0.398863,-0.17032 0.276414,-0.52814 -0.07817,-0.3812 -0.464932,-0.23245 -0.503419,0.13434 -0.287671,0.46231 0.03272,0.45209 0.28885,0.0713 0.131581,-0.22952 0.190904,-0.28979 0.03019,0.13316 -0.168185,0.25435 z"
       id="path1492"
       inkscape:transform-center-x="-0.98287125"
       inkscape:transform-center-y="0.94782928" /><path
       style="display:inline;opacity:1;fill:#fff2ee;fill-opacity:1;stroke:#874e0f;stroke-width:0.0625729;stroke-linecap:round;stroke-dasharray:none;stroke-opacity:1;paint-order:markers fill stroke"
       d="m -47.388632,202.95764 0.07233,0.0139 0.751412,-0.32085 0.520732,-0.99497 -0.147254,-0.71812 -0.875877,-0.43791 -0.948383,0.25308 -0.541939,0.87093 0.06165,0.85169 0.54416,0.13428 0.247884,-0.43239 0.359641,-0.54593 0.05688,0.25086 -0.316842,0.47916 z"
       id="path1493"
       inkscape:transform-center-x="-1.8516093"
       inkscape:transform-center-y="1.7863154" /><path
       style="display:inline;opacity:1;fill:#fff2ee;fill-opacity:1;stroke:#874e0f;stroke-width:0.0451627;stroke-linecap:round;stroke-dasharray:none;stroke-opacity:1;paint-order:markers fill stroke"
       d="m -50.880155,201.52931 -0.04595,-0.0389 -0.632999,-0.15165 -0.695308,0.31119 -0.135375,0.45053 0.468163,0.61423 0.748481,0.27324 0.668965,-0.2352 0.23971,-0.48552 -0.336621,-0.30737 -0.317288,0.12591 -0.433299,0.13883 0.04348,-0.15974 0.381132,-0.12133 z"
       id="path1494"
       inkscape:transform-center-x="0.6834253"
       inkscape:transform-center-y="-1.7486751" /><path
       style="display:inline;opacity:1;fill:#fff2ee;fill-opacity:1;stroke:#874e0f;stroke-width:0.0537856;stroke-linecap:round;stroke-dasharray:none;stroke-opacity:1;paint-order:markers fill stroke"
       d="m -48.976454,206.207 0.07259,0.0102 0.754155,-0.2362 0.522633,-0.73246 -0.147792,-0.52866 -0.879074,-0.32237 -0.951845,0.18631 -0.543917,0.64115 0.06188,0.62698 0.546146,0.0989 0.248789,-0.31832 0.360954,-0.40189 0.05709,0.18467 -0.317999,0.35274 z"
       id="path1495"
       inkscape:transform-center-x="-1.8583644"
       inkscape:transform-center-y="1.3149977" /><path
       style="display:inline;opacity:1;fill:#fff2ee;fill-opacity:1;stroke:#874e0f;stroke-width:0.0508332;stroke-linecap:round;stroke-dasharray:none;stroke-opacity:1;paint-order:markers fill stroke"
       d="m -52.581744,206.43922 0.05877,0.0107 0.610433,-0.26066 0.423034,-0.80828 -0.119634,-0.5834 -0.711548,-0.35575 -0.77045,0.2056 -0.440261,0.70753 0.05008,0.69189 0.442066,0.10912 0.201376,-0.35126 0.292166,-0.44351 0.0462,0.2038 -0.257396,0.38926 z"
       id="path1667"
       inkscape:transform-center-x="-1.5042207"
       inkscape:transform-center-y="1.4505793" /><circle
       id="circle1542"
       style="fill:#36f762;stroke:#0abd11;stroke-width:0.264583"
       cx="-45.760395"
       cy="202.19084"
       r="0.00094186625" /><circle
       id="circle1543"
       style="fill:#ff0000;stroke:#0abd11;stroke-width:0.264583"
       cx="-52.761688"
       cy="204.02745"
       r="0.00070639962" /><path
       style="fill:#c8ab37;fill-opacity:1;stroke:#00ff0a;stroke-width:0.0799999;stroke-linecap:round;stroke-dasharray:none;stroke-opacity:1;paint-order:markers fill stroke"
       id="path1543"
       d="m -50.359599,205.70894 c 0.26751,-0.093 0.58815,-0.0916 0.86559,-0.0791 0.49312,0.0222 0.67219,0.0636 1.17464,0.13914 0.64856,0.0936 1.29317,0.27884 1.9547,0.26093 0.25246,-0.007 0.50227,-0.0535 0.7534,-0.0803 0,0 -0.50537,-0.49728 -0.50537,-0.49728 v 0 c -0.25827,0.0145 -0.51614,0.0444 -0.77481,0.0435 -0.66037,-0.002 -1.30538,-0.16316 -1.95278,-0.26879 -0.55888,-0.0962 -1.11363,-0.19959 -1.68139,-0.22409 -0.18158,-0.008 -0.30707,-0.009 -0.4781,0.0148 -0.0277,0.004 -0.0545,0.0124 -0.0817,0.0186 z" /><path
       style="fill:#c8ab37;fill-opacity:1;stroke:#00ff0a;stroke-width:0.0799999;stroke-linecap:round;stroke-dasharray:none;stroke-opacity:1;paint-order:markers fill stroke"
       id="path1545"
       d="m -49.17981,201.12843 c -0.473872,0.24863 -0.971894,0.44808 -1.464305,0.65644 -0.386919,0.13491 -0.722187,0.37468 -1.086037,0.55555 -0.32739,0.16275 -0.38056,0.16576 -0.74984,0.29175 -0.72447,0.17199 -0.35852,0.0984 -1.09794,0.22017 0,0 0.56502,0.54649 0.56502,0.54649 v 0 c 0.74917,-0.12878 0.37139,-0.0618 1.1333,-0.201 0.35983,-0.0989 0.48323,-0.11661 0.80832,-0.26048 0.366926,-0.16238 0.676991,-0.43206 1.055925,-0.57184 0.508725,-0.21203 1.02458,-0.4134 1.55594,-0.56161 z" /><path
       style="fill:#c8ab37;fill-opacity:1;stroke:#0abd11;stroke-width:0.0799999;stroke-linecap:round;stroke-dasharray:none;stroke-opacity:1;paint-order:markers fill stroke"
       id="path1546"
       d="m -51.782582,202.09811 c 0.0195,0.01 0.039,0.0201 0.0586,0.0299 0.0318,0.0158 0.0658,0.0277 0.0958,0.0468 0.0381,0.0243 0.14202,0.11176 0.10726,0.0829 -0.88859,-0.73772 -0.68293,-0.60259 -0.42492,-0.30505 0.0734,0.0847 0.14326,0.17244 0.2149,0.25866 0.12908,0.13311 0.25224,0.27225 0.38725,0.39934 0.457861,0.43098 1.291952,1.08713 1.716195,1.37182 0.467863,0.31395 1.018683,0.49505 1.537402,0.69676 0,0 -0.462482,-0.49843 -0.462482,-0.49843 v 0 c -1.65491,-0.65495 0.09141,0.0735 -1.540642,-0.72559 -0.02535,-0.0124 -0.062,0.0199 -0.08461,0.003 -0.353954,-0.26428 -0.521988,-0.46929 -0.808992,-0.77923 -0.06137,-0.0811 -0.122071,-0.16262 -0.184111,-0.24315 -0.0451,-0.0585 -0.0826,-0.12436 -0.1373,-0.17403 -0.3222,-0.29257 -0.70824,-0.71681 -1.16052,-0.87755 z" /><path
       style="fill:#c8ab37;fill-opacity:1;stroke:#00ff0a;stroke-width:0.0799999;stroke-linecap:round;stroke-dasharray:none;stroke-opacity:1;paint-order:markers fill stroke"
       id="path1547"
       d="m -50.606225,204.47113 c 0.0318,-0.003 0.0634,-0.009 0.0953,-0.0105 0.17755,-0.008 0.35154,5.3e-4 0.5295,0.008 0.18414,0.008 0.36833,0.015 0.55228,0.0265 0.47028,0.0293 1.298727,0.0984 1.739896,0.13383 1.565605,0.1141 0.764598,0.0584 2.403075,0.16624 0,0 -0.362394,-0.36791 -0.362394,-0.36791 v 0 c -1.679874,-0.14373 -0.855173,-0.0627 -2.474299,-0.24113 -0.340542,-0.0438 -0.681268,-0.0863 -1.021628,-0.13152 -0.72052,-0.0957 -1.43762,-0.21997 -2.161989,-0.284 z" /><path
       style="fill:#c8ab37;fill-opacity:1;stroke:#0abd11;stroke-width:0.0799999;stroke-linecap:round;stroke-dasharray:none;stroke-opacity:1;paint-order:markers fill stroke"
       id="path1548"
       d="m -53.275246,202.18232 c 0.0016,-0.0358 0.253267,0.17085 0.19518,0.121 -1.053161,-0.90388 -0.286305,-0.16493 0.530746,0.37577 0.293876,0.19448 0.982242,0.40885 1.283153,0.51424 0.26978,0.0703 0.539559,0.14071 0.809339,0.21107 0,0 -0.467521,-0.49302 -0.467521,-0.49302 v 0 c -0.273347,-0.0772 -0.546693,-0.15444 -0.820039,-0.23166 -0.250201,-0.0986 -0.506003,-0.18399 -0.750597,-0.29576 -0.207219,-0.0947 -0.376301,-0.29596 -0.602567,-0.32258 -0.132644,-0.0156 0.388175,0.36559 0.281789,0.28484 -0.352711,-0.2677 -0.639278,-0.63318 -1.033859,-0.8341 -0.03302,-0.0168 -0.06947,-0.0258 -0.104206,-0.0387 z" /><path
       style="fill:#c8ab37;fill-opacity:1;stroke:#0abd11;stroke-width:0.0799999;stroke-linecap:round;stroke-dasharray:none;stroke-opacity:1;paint-order:markers fill stroke"
       id="path1551"
       d="m -51.774606,199.56585 c 0.0038,0.0505 -0.0029,0.10293 0.01148,0.15148 0.0674,0.22701 0.187211,0.38862 0.370953,0.5468 0.333484,0.28709 0.672846,0.56981 1.03672,0.81725 0.300159,0.20412 0.836906,0.34256 1.165241,0.44599 0.237455,0.0463 0.474911,0.0926 0.712364,0.13895 0,0 -0.500587,-0.52147 -0.500587,-0.52147 v 0 c -0.239241,-0.0525 -0.47848,-0.10491 -0.717722,-0.15736 -0.219342,-0.0783 -0.444089,-0.14286 -0.658026,-0.2349 -0.186098,-0.0801 -0.338093,-0.25663 -0.5393,-0.28025 -0.111202,-0.013 0.290028,0.33907 0.230804,0.24405 -0.154684,-0.24819 -0.344001,-0.23188 -0.331203,-0.55942 z" /><path
       style="fill:#c8ab37;fill-opacity:1;stroke:#00ff0a;stroke-width:0.0799999;stroke-linecap:round;stroke-dasharray:none;stroke-opacity:1;paint-order:markers fill stroke"
       id="path1552"
       d="m -45.49338,202.0293 c -0.32417,0.0436 -0.628973,0.16524 -0.908836,0.33392 -0.159655,0.0962 -0.309898,0.2073 -0.462999,0.31365 -0.188439,0.13089 -0.374373,0.26535 -0.56156,0.39803 0,0 0.55054,0.49003 0.55054,0.49003 v 0 c 0.199043,-0.12085 0.395351,-0.24632 0.597133,-0.36254 0.453273,-0.26106 0.943443,-0.51704 1.482989,-0.47582 z" /><path
       style="fill:#c8ab37;fill-opacity:1;stroke:#00ff0a;stroke-width:0.0799999;stroke-linecap:round;stroke-dasharray:none;stroke-opacity:1;paint-order:markers fill stroke"
       id="path1553"
       d="m -49.899814,201.4622 c 0.187077,8e-4 0.155676,-0.005 0.395428,0.0333 0.448035,0.071 0.544161,0.10635 1.027695,0.19913 0.473048,0.0908 1.304337,0.23492 1.760222,0.31513 1.304915,0.20568 0.665313,0.10455 1.918811,0.30331 0,0 -0.454003,-0.46741 -0.454003,-0.46741 v 0 c -1.231265,-0.16516 -0.597625,-0.0704 -1.900352,-0.28816 -0.325749,-0.0667 -0.652727,-0.12759 -0.977249,-0.19999 -0.480189,-0.10715 -1.026051,-0.25297 -1.509194,-0.37779 -0.29691,-0.0767 -0.503142,-0.13648 -0.792062,-0.18994 -0.05408,-0.01 -0.109032,-0.0146 -0.163549,-0.0219 z" /><path
       style="fill:#decd87;fill-opacity:1;stroke:#0abd11;stroke-width:0.0799999;stroke-linecap:round;stroke-dasharray:none;stroke-opacity:1;paint-order:markers fill stroke"
       id="path1555"
       d="m -52.1168,204.24322 c 0.17268,-0.0824 0.47434,-0.1988 0.66595,-0.17132 0.0301,0.004 0.057,0.0214 0.0855,0.0321 0.0175,0.0188 0.0728,0.0725 0.0526,0.0564 -0.22959,-0.18339 -0.45167,-0.37606 -0.68169,-0.5589 -0.0251,-0.0199 0.0418,0.0488 0.0661,0.0696 0.65972,0.56592 0.59858,0.60868 1.14446,0.83483 0.34618,0.14238 0.70911,0.23808 1.05277,0.38725 0.18861,0.0819 0.227,0.10851 0.39995,0.20494 0.0543,0.0366 0.10858,0.0733 0.16287,0.10992 0,0 -0.61653,-0.69143 -0.61653,-0.69143 v 0 c -0.0555,-0.0341 -0.11106,-0.0681 -0.16659,-0.10216 -0.18176,-0.0906 -0.19333,-0.10097 -0.39072,-0.17899 -0.35291,-0.1395 -0.72065,-0.2414 -1.06315,-0.40709 -0.0662,-0.0335 -0.13409,-0.0638 -0.19855,-0.10052 -0.0476,-0.0271 -0.17765,-0.12722 -0.137,-0.0906 0.20627,0.18599 0.42142,0.36191 0.63493,0.53955 0.0232,0.0193 -0.0409,-0.0445 -0.0637,-0.0643 -0.26175,-0.22768 -0.52072,-0.4588 -0.78963,-0.67797 -0.0207,-0.0168 -0.0502,-0.018 -0.0753,-0.027 -0.0322,-0.002 -0.0643,-0.007 -0.0965,-0.005 -0.2398,0.0144 -0.47562,0.12125 -0.7073,0.17685 z" /><path
       style="fill:#decd87;fill-opacity:1;stroke:#0abd11;stroke-width:0.0799999;stroke-linecap:round;stroke-dasharray:none;stroke-opacity:1;paint-order:markers fill stroke"
       id="path1556"
       d="m -51.27819,205.2133 c -1.26363,-1.05162 -0.76882,-0.684 -0.53805,-0.41103 0.0201,0.0237 0.15985,0.19998 0.18113,0.21874 0.27126,0.23915 0.55177,0.4676 0.82765,0.7014 0.0483,0.0176 0.094,0.046 0.14501,0.0529 0.23924,0.0326 0.45612,-0.13543 0.66939,-0.20895 0.0478,-0.0165 0.0984,-0.023 0.14764,-0.0344 0.0471,0.01 0.0969,0.0115 0.14129,0.03 0.0685,0.0286 0.26179,0.171 0.31331,0.20919 0.14962,0.11091 0.29463,0.22252 0.45096,0.32399 0.0475,0.0179 0.0932,0.0418 0.14251,0.0537 0.20738,0.0497 0.51944,-0.0187 0.733221,-0.0466 0,0 -0.681301,-0.66232 -0.681301,-0.66232 v 0 c -0.28072,0.0433 -0.55851,0.10245 -0.81902,-0.0467 -0.14915,-0.0997 -0.29009,-0.2097 -0.43771,-0.31142 -0.1032,-0.0711 -0.23419,-0.1641 -0.3608,-0.19334 -0.0539,-0.0124 -0.11052,-0.003 -0.16578,-0.004 -0.0514,0.0163 -0.10397,0.0292 -0.1542,0.0488 -0.19144,0.0747 -0.40174,0.21691 -0.61846,0.1466 -0.0455,-0.0148 -0.0839,-0.0461 -0.12588,-0.0691 0.19856,0.17012 0.39231,0.34603 0.59568,0.51037 0.0366,0.0296 -0.0644,-0.0688 -0.0943,-0.1052 -0.0283,-0.0344 -0.053,-0.0717 -0.0801,-0.10706 -0.26298,-0.344 -0.50721,-0.53925 -0.92701,-0.83223 z" /><path
       style="fill:#decd87;fill-opacity:1;stroke:#0abd11;stroke-width:0.0799999;stroke-linecap:round;stroke-dasharray:none;stroke-opacity:1;paint-order:markers fill stroke"
       id="path1558"
       d="m -49.367875,201.31777 c 0.0415,-0.0929 0.0824,-0.22668 0.18629,-0.27106 0.0475,-0.0203 0.1439,-0.009 0.18754,-0.008 0.521548,0.0429 1.037351,-0.0584 1.549581,-0.14182 0.08343,-5.3e-4 0.167844,-0.0145 0.250302,-0.002 0.251692,0.0389 0.476395,0.21092 0.672385,0.35974 0.06396,0.0486 0.122513,0.10422 0.188172,0.15047 0.05559,0.0392 0.116525,0.0701 0.174789,0.10518 0.05921,0.0117 0.117398,0.0313 0.177636,0.0351 0.112069,0.007 0.338259,-0.0316 0.440362,-0.0421 0.101878,-0.0105 0.203877,-0.0206 0.306165,-0.0257 0.255095,-0.0127 0.470747,-0.006 0.726416,-0.002 0.47471,0.0139 0.240684,0.006 0.702083,0.0227 0,0 -0.614974,-0.61832 -0.614974,-0.61832 v 0 c -0.454996,-0.008 -0.223726,-0.004 -0.693822,-0.0129 -0.179938,-0.003 -0.565169,-0.01 -0.745543,-0.008 -0.108974,0.001 -0.2179,0.005 -0.326819,0.009 -0.129333,0.004 -0.306303,0.0225 -0.439708,-5.3e-4 -0.05159,-0.009 -0.09987,-0.0315 -0.14981,-0.0472 -0.05235,-0.0333 -0.106209,-0.0644 -0.157051,-0.0999 -0.277921,-0.19445 -0.546476,-0.43518 -0.903063,-0.46263 -0.08363,-0.006 -0.167325,0.0121 -0.250986,0.0181 -0.292849,0.0558 -0.584915,0.11206 -0.883745,0.12433 -0.21406,0.009 -0.31351,-0.004 -0.51882,-0.0204 -0.0599,-0.005 -0.11979,-0.0102 -0.17969,-0.0153 -0.1039,0.006 -0.14853,-0.005 -0.2395,0.0474 -0.10802,0.0624 -0.15665,0.18573 -0.22541,0.28249 z" /><path
       style="fill:#decd87;fill-opacity:1;stroke:#00ff0a;stroke-width:0.0799999;stroke-linecap:round;stroke-dasharray:none;stroke-opacity:1;paint-order:markers fill stroke"
       id="path1559"
       d="m -50.412375,202.96178 c 0.15221,-0.0765 0.32601,-0.18292 0.50401,-0.14342 0.0519,0.0115 0.0995,0.0376 0.14923,0.0565 0.22658,0.12262 0.42495,0.29417 0.66582,0.39084 0.18668,0.0749 0.2168,0.0669 0.41941,0.0972 0.182178,0.0395 0.280304,0.0463 0.445478,0.14119 0.07558,0.0434 0.277286,0.21118 0.210879,0.1547 -0.802727,-0.68269 -0.461407,-0.37698 -0.246589,-0.14706 0.06559,0.0702 0.128132,0.14321 0.192196,0.21481 0.419057,0.42504 0.395665,0.41684 1.131644,0.95821 0.125248,0.0921 0.507629,0.23795 0.642546,0.29133 0.156326,0.0619 0.573405,0.22127 0.732149,0.28212 0,0 -0.581636,-0.6256 -0.581636,-0.6256 v 0 c -0.361071,-0.13673 -0.730607,-0.26755 -1.076637,-0.44026 -0.102143,-0.051 -0.354161,-0.26771 -0.298373,-0.16811 0.09113,0.16269 0.271216,0.25636 0.414594,0.37559 0.07466,0.0621 -0.138732,-0.13592 -0.208098,-0.20388 -0.05748,-0.0648 -0.341119,-0.38785 -0.40295,-0.44332 -0.29229,-0.26226 -0.589973,-0.51875 -0.894973,-0.76611 -0.0717,-0.0581 -0.15089,-0.10762 -0.23339,-0.14899 -0.15539,-0.0779 -0.29512,-0.0975 -0.46221,-0.13387 -0.0725,-0.0163 -0.14641,-0.0272 -0.21751,-0.0488 -0.32056,-0.0974 -0.57081,-0.32882 -0.87426,-0.46144 -0.0588,-0.0145 -0.11616,-0.037 -0.17637,-0.0436 -0.19604,-0.0214 -0.36303,0.0915 -0.54877,0.12575 z" /><path
       style="fill:#decd87;fill-opacity:1;stroke:#0abd11;stroke-width:0.0799999;stroke-linecap:round;stroke-dasharray:none;stroke-opacity:1;paint-order:markers fill stroke"
       id="path1560"
       d="m -52.965829,203.75374 c -0.219083,-0.17938 -0.434155,-0.36378 -0.657252,-0.53815 -0.04517,-0.0353 0.08184,0.0803 0.122793,0.12042 0.09305,0.0912 0.160933,0.15928 0.256858,0.24622 0.287911,0.26096 0.684204,0.53086 0.945898,0.72899 0.04229,-0.0249 0.08951,-0.0428 0.12686,-0.0746 0.132972,-0.11322 0.225954,-0.29827 0.333134,-0.43536 0.03085,-0.0395 0.05883,-0.0827 0.09809,-0.11381 0.02672,-0.0212 0.06307,-0.0258 0.09461,-0.0388 0.201805,0.0172 0.350207,0.20554 0.557302,0.1983 0.06848,-0.002 0.135229,-0.0222 0.20284,-0.0333 0,0 -0.65745,-0.64865 -0.65745,-0.64865 v 0 c -0.06759,-0.002 -0.135734,0.003 -0.202766,-0.006 -0.213294,-0.0283 -0.373028,-0.22543 -0.610248,-0.15135 -0.03597,0.0251 -0.07686,0.0444 -0.107924,0.0754 -0.03672,0.0366 -0.06241,0.0829 -0.09281,0.12486 -0.09334,0.12898 -0.183491,0.293 -0.321945,0.38128 -0.02151,0.0137 -0.04922,0.0135 -0.07383,0.0202 0.209513,0.18539 0.420806,0.3688 0.628539,0.55619 0.03852,0.0347 -0.08141,-0.0644 -0.120777,-0.0982 -0.08835,-0.0758 -0.17426,-0.15744 -0.256022,-0.24022 -0.443158,-0.44871 0.580245,0.47286 -0.919689,-0.80479 z" /><path
       style="fill:#decd87;fill-opacity:1;stroke:#0abd11;stroke-width:0.0799999;stroke-linecap:round;stroke-dasharray:none;stroke-opacity:1;paint-order:markers fill stroke"
       id="path1561"
       d="m -48.331579,202.62288 c 0.303694,0.27116 -0.25269,-0.22706 -0.520078,-0.42906 -0.06445,-0.0487 0.114893,0.11369 0.169114,0.17356 0.147436,0.16282 0.278146,0.33986 0.422164,0.50564 0.271304,0.21665 0.516832,0.47027 0.813911,0.64996 0.04118,0.0249 0.0846,-0.0506 0.11385,-0.0888 0.05934,-0.0775 0.119986,-0.28764 0.147905,-0.36894 0.08723,-0.25402 0.05719,-0.17046 0.15272,-0.40998 0.04304,-0.0741 0.103061,-0.29118 0.236728,-0.27258 0.06242,0.009 0.253185,0.15493 0.307345,0.19119 0.130906,0.09 0.266494,0.17262 0.402339,0.25478 0,0 -0.627896,-0.70076 -0.627896,-0.70076 v 0 c -0.136684,-0.0841 -0.271724,-0.17065 -0.404799,-0.26043 -0.11185,-0.0682 -0.245822,-0.17333 -0.38857,-0.13497 -0.14863,0.04 -0.19382,0.2409 -0.249782,0.35462 -0.07315,0.19848 -0.138232,0.40508 -0.23209,0.59512 -0.01937,0.0392 -0.0406,0.0781 -0.06789,0.11227 -0.0082,0.0103 -0.04508,0.008 -0.03558,0.0173 0.200223,0.19297 0.417237,0.36772 0.625858,0.55158 -0.04407,-0.0443 -0.09068,-0.0862 -0.132201,-0.13284 -0.04589,-0.0516 -0.268248,-0.33377 -0.308213,-0.38262 -0.04692,-0.0574 -0.0879,-0.12069 -0.143108,-0.17011 -0.274818,-0.24603 -0.560859,-0.47925 -0.844992,-0.71445 -0.03041,-0.0252 -0.06543,-0.0442 -0.09814,-0.0663 z" /><path
       style="fill:#decd87;fill-opacity:1;stroke:#0abd11;stroke-width:0.0799999;stroke-linecap:round;stroke-dasharray:none;stroke-opacity:1;paint-order:markers fill stroke"
       id="path1566"
       d="m -53.461072,201.0619 c 0.18304,0.26364 0.35959,0.52956 0.56424,0.77732 0.28917,0.288 0.37072,0.37928 0.92592,0.66618 0.0404,0.0209 0.0625,-0.0663 0.0959,-0.0973 0.0983,-0.0913 0.15046,-0.0931 0.27994,-0.10468 0.13793,0.0219 0.22931,-0.0412 0.33662,-0.11593 0,0 -0.7149,-0.63629 -0.7149,-0.63629 v 0 c -0.11534,0.0703 -0.16726,0.0875 -0.30691,0.0861 -0.16364,0.0306 -0.19567,0.0383 -0.32427,0.14402 -0.0179,0.0147 -0.07,0.0273 -0.0539,0.044 0.20489,0.21365 0.44451,0.3911 0.66285,0.59098 0.0328,0.03 -0.0705,-0.054 -0.10583,-0.0811 -0.2042,-0.2315 -0.38356,-0.48146 -0.5373,-0.74949 z" /><path
       style="fill:#decd87;fill-opacity:1;stroke:#0abd11;stroke-width:0.0799999;stroke-linecap:round;stroke-dasharray:none;stroke-opacity:1;paint-order:markers fill stroke"
       id="path1567"
       d="m -45.241281,202.01616 c 0.09983,0.0673 0.203375,0.12812 0.309235,0.18531 0,0 -0.646123,-0.71547 -0.646123,-0.71547 v 0 c -0.112263,-0.0647 -0.219655,-0.13781 -0.335688,-0.19565 z" /><path
       style="fill:#decd87;fill-opacity:1;stroke:#0abd11;stroke-width:0.0799999;stroke-linecap:round;stroke-dasharray:none;stroke-opacity:1;paint-order:markers fill stroke"
       id="path1568"
       d="m -52.447529,200.70522 c 0.156027,0.0984 0.311417,0.21139 0.483118,0.28208 0.04385,0.018 0.09073,0.0276 0.136102,0.0414 0,0 -0.649129,-0.69313 -0.649129,-0.69313 v 0 c -0.03975,-0.0151 -0.08074,-0.0274 -0.119258,-0.0454 -0.181401,-0.0849 -0.340815,-0.20889 -0.512241,-0.31078 z" /><path
       style="fill:#decd87;fill-opacity:1;stroke:#0abd11;stroke-width:0.0799999;stroke-linecap:round;stroke-dasharray:none;stroke-opacity:1;paint-order:markers fill stroke"
       id="path1569"
       d="m -50.522319,202.82498 c 0.18021,0.10847 0.355036,0.22561 0.535656,0.33341 0.0481,0.0287 0.09438,0.0612 0.145503,0.0841 0.04563,0.0204 0.09536,0.0301 0.143041,0.0452 0.04778,-0.002 0.09709,0.006 0.143341,-0.006 0.182565,-0.0481 0.29564,-0.21968 0.407972,-0.35539 0.155151,-0.18743 0.0752,-0.10786 0.247134,-0.25169 0.04385,-0.0105 0.08648,-0.0305 0.131561,-0.0314 0.136403,-0.003 0.271021,0.0808 0.392525,0.12966 0.03677,0.0148 0.07479,0.0262 0.112194,0.0394 0,0 -0.653698,-0.69951 -0.653698,-0.69951 v 0 c -0.168063,-0.0593 -0.356039,-0.15359 -0.540086,-0.11493 -0.05363,0.0113 -0.100827,0.043 -0.151241,0.0645 -0.04252,0.0402 -0.08785,0.0776 -0.127569,0.12056 -0.136684,0.14782 -0.2643,0.39967 -0.489929,0.42489 -0.03938,0.004 -0.07886,-0.008 -0.118287,-0.0119 -0.04164,-0.0169 -0.08468,-0.0307 -0.124939,-0.0507 -0.251621,-0.12494 -0.471852,-0.30653 -0.711811,-0.45079 z" /><path
       style="fill:#decd87;fill-opacity:1;stroke:#0abd11;stroke-width:0.0799999;stroke-linecap:round;stroke-dasharray:none;stroke-opacity:1;paint-order:markers fill stroke"
       id="path1570"
       d="m -51.716538,200.61108 c 0.02003,0.0175 0.08054,0.0694 0.06011,0.0524 -0.618556,-0.51418 -0.801217,-0.67624 -0.414854,-0.3408 0.186352,0.16179 0.369845,0.32641 0.553437,0.49131 0.01752,0.0137 0.64779,0.91524 0.975135,0.58619 0.05717,-0.0575 0.120248,-0.24191 0.149699,-0.31242 0.07225,-0.17299 0.04933,-0.12251 0.139189,-0.27606 0.08754,-0.0977 0.1861,-0.11866 0.310999,-0.13525 0.05313,-0.007 0.110104,0.003 0.15983,-0.0174 0.0937,-0.0377 0.469125,-0.29027 0.537109,-0.33482 0,0 -0.649414,-0.58195 -0.649414,-0.58195 v 0 c -0.222179,0.12555 -0.3145,0.19937 -0.556871,0.26079 -0.05651,0.0143 -0.116528,0.007 -0.174157,0.016 -0.153109,0.0234 -0.264649,0.075 -0.361037,0.19939 -0.02532,0.0456 -0.053,0.0901 -0.07595,0.13693 -0.173032,0.35332 0.04089,-0.0468 -0.130495,0.29869 -0.01656,0.0334 -0.0293,0.0707 -0.05588,0.0969 -0.0155,0.0152 -0.07737,0.004 -0.0623,0.0193 0.179711,0.1868 0.386424,0.3456 0.579634,0.5184 -0.545285,-0.47391 -1.066451,-0.97846 -1.644425,-1.41331 z" /><path
       style="fill:#c8ab37;fill-opacity:1;stroke:#00ff0a;stroke-width:0.0799999;stroke-linecap:round;stroke-dasharray:none;stroke-opacity:1;paint-order:markers fill stroke"
       id="path1554"
       d="m -46.216986,200.31262 c -0.532222,0.59455 -1.158647,1.09439 -1.874845,1.45195 -0.260144,0.12988 -0.534258,0.22965 -0.801386,0.34448 -1.06898,0.38705 -2.193221,0.57193 -3.323291,0.65508 -0.209524,0.0154 -0.419656,0.021 -0.629484,0.0315 0,0 0.546598,0.53785 0.546598,0.53785 v 0 c 1.317236,-0.14945 2.637816,-0.32773 3.894196,-0.77304 0.277198,-0.10895 0.559694,-0.2053 0.831596,-0.32687 0.491781,-0.21988 0.846894,-0.43174 1.290446,-0.72277 0.140674,-0.0923 0.274932,-0.19402 0.413124,-0.29 0.224893,-0.15618 0.214611,-0.14812 0.394358,-0.26509 z" /><path
       style="fill:#c8ab37;fill-opacity:1;stroke:#00ff0a;stroke-width:0.0799999;stroke-linecap:round;stroke-dasharray:none;stroke-opacity:1;paint-order:markers fill stroke"
       id="path1657"
       d="m -48.735474,199.65511 c -0.473872,0.24863 -0.971894,0.44808 -1.464305,0.65644 -0.386919,0.13491 -0.722187,0.37468 -1.086037,0.55555 -0.32739,0.16275 -0.38056,0.16576 -0.74984,0.29175 -0.72447,0.17199 -0.35852,0.0984 -1.09794,0.22017 0,0 0.56502,0.54649 0.56502,0.54649 v 0 c 0.74917,-0.12878 0.37139,-0.0618 1.1333,-0.201 0.35983,-0.0989 0.48323,-0.11661 0.80832,-0.26048 0.366926,-0.16238 0.676991,-0.43206 1.055925,-0.57184 0.508725,-0.21203 1.02458,-0.4134 1.55594,-0.56161 z" /><path
       style="fill:#c8ab37;fill-opacity:1;stroke:#0abd11;stroke-width:0.0799999;stroke-linecap:round;stroke-dasharray:none;stroke-opacity:1;paint-order:markers fill stroke"
       id="path1658"
       d="m -51.33027,198.09253 c 0.0038,0.0505 -0.0029,0.10293 0.01148,0.15148 0.0674,0.22701 0.187211,0.38862 0.370953,0.5468 0.333484,0.28709 0.672846,0.56981 1.03672,0.81725 0.300159,0.20412 0.836906,0.34256 1.165241,0.44599 0.237455,0.0463 0.474911,0.0926 0.712364,0.13895 0,0 -0.500587,-0.52147 -0.500587,-0.52147 v 0 c -0.239241,-0.0525 -0.47848,-0.10491 -0.717722,-0.15736 -0.219342,-0.0783 -0.444089,-0.14286 -0.658026,-0.2349 -0.186098,-0.0801 -0.338093,-0.25663 -0.5393,-0.28025 -0.111202,-0.013 0.290028,0.33907 0.230804,0.24405 -0.154684,-0.24819 -0.344001,-0.23188 -0.331203,-0.55942 z" /><path
       style="fill:#decd87;fill-opacity:1;stroke:#0abd11;stroke-width:0.0799999;stroke-linecap:round;stroke-dasharray:none;stroke-opacity:1;paint-order:markers fill stroke"
       id="path1659"
       d="m -48.923539,199.84445 c 0.0415,-0.0929 0.0824,-0.22668 0.18629,-0.27106 0.0475,-0.0203 0.1439,-0.009 0.18754,-0.008 0.521548,0.0429 1.037351,-0.0584 1.549581,-0.14182 0.08343,-5.3e-4 0.167844,-0.0145 0.250302,-0.002 0.251692,0.0389 0.476395,0.21092 0.672385,0.35974 0.06396,0.0486 0.122513,0.10422 0.188172,0.15047 0.05559,0.0392 0.116525,0.0701 0.174789,0.10518 0.05921,0.0117 0.117398,0.0313 0.177636,0.0351 0.112069,0.007 0.338259,-0.0316 0.440362,-0.0421 0.101878,-0.0105 0.203877,-0.0206 0.306165,-0.0257 0.255095,-0.0127 0.470747,-0.006 0.726416,-0.002 0.47471,0.0139 0.240684,0.006 0.702083,0.0227 0,0 -0.614974,-0.61832 -0.614974,-0.61832 v 0 c -0.454996,-0.008 -0.223726,-0.004 -0.693822,-0.0129 -0.179938,-0.003 -0.565169,-0.01 -0.745543,-0.008 -0.108974,0.001 -0.2179,0.005 -0.326819,0.009 -0.129333,0.004 -0.306303,0.0225 -0.439708,-5.3e-4 -0.05159,-0.009 -0.09987,-0.0315 -0.14981,-0.0472 -0.05235,-0.0333 -0.106209,-0.0644 -0.157051,-0.0999 -0.277921,-0.19445 -0.546476,-0.43518 -0.903063,-0.46263 -0.08363,-0.006 -0.167325,0.0121 -0.250986,0.0181 -0.292849,0.0558 -0.584915,0.11206 -0.883745,0.12433 -0.21406,0.009 -0.31351,-0.004 -0.51882,-0.0204 -0.0599,-0.005 -0.11979,-0.0102 -0.17969,-0.0153 -0.1039,0.006 -0.14853,-0.005 -0.2395,0.0474 -0.10802,0.0624 -0.15665,0.18573 -0.22541,0.28249 z" /><path
       style="fill:#decd87;fill-opacity:1;stroke:#0abd11;stroke-width:0.0799999;stroke-linecap:round;stroke-dasharray:none;stroke-opacity:1;paint-order:markers fill stroke"
       id="path1660"
       d="m -51.272202,199.13776 c 0.02003,0.0175 0.08054,0.0694 0.06011,0.0524 -0.618556,-0.51418 -0.801217,-0.67624 -0.414854,-0.3408 0.186352,0.16179 0.369845,0.32641 0.553437,0.49131 0.01752,0.0137 0.64779,0.91524 0.975135,0.58619 0.05717,-0.0575 0.120248,-0.24191 0.149699,-0.31242 0.07225,-0.17299 0.04933,-0.12251 0.139189,-0.27606 0.08754,-0.0977 0.1861,-0.11866 0.310999,-0.13525 0.05313,-0.007 0.110104,0.003 0.15983,-0.0174 0.0937,-0.0377 0.469125,-0.29027 0.537109,-0.33482 0,0 -0.649414,-0.58195 -0.649414,-0.58195 v 0 c -0.222179,0.12555 -0.3145,0.19937 -0.556871,0.26079 -0.05651,0.0143 -0.116528,0.007 -0.174157,0.016 -0.153109,0.0234 -0.264649,0.075 -0.361037,0.19939 -0.02532,0.0456 -0.053,0.0901 -0.07595,0.13693 -0.173032,0.35332 0.04089,-0.0468 -0.130495,0.29869 -0.01656,0.0334 -0.0293,0.0707 -0.05588,0.0969 -0.0155,0.0152 -0.07737,0.004 -0.0623,0.0193 0.179711,0.1868 0.386424,0.3456 0.579634,0.5184 -0.545285,-0.47391 -1.066451,-0.97846 -1.644425,-1.41331 z" /><path
       style="fill:#c8ab37;fill-opacity:1;stroke:#00ff0a;stroke-width:0.0799999;stroke-linecap:round;stroke-dasharray:none;stroke-opacity:1;paint-order:markers fill stroke"
       id="path1661"
       d="m -45.77265,198.8393 c -0.532222,0.59455 -1.158647,1.09439 -1.874845,1.45195 -0.260144,0.12988 -0.534258,0.22965 -0.801386,0.34448 -1.06898,0.38705 -2.193221,0.57193 -3.323291,0.65508 -0.209524,0.0154 -0.419656,0.021 -0.629484,0.0315 0,0 0.546598,0.53785 0.546598,0.53785 v 0 c 1.317236,-0.14945 2.637816,-0.32773 3.894196,-0.77304 0.277198,-0.10895 0.559694,-0.2053 0.831596,-0.32687 0.491781,-0.21988 0.846894,-0.43174 1.290446,-0.72277 0.140674,-0.0923 0.274932,-0.19402 0.413124,-0.29 0.224893,-0.15618 0.214611,-0.14812 0.394358,-0.26509 z" /><path
       style="fill:#c8ab37;fill-opacity:1;stroke:#00ff0a;stroke-width:0.0799999;stroke-linecap:round;stroke-dasharray:none;stroke-opacity:1;paint-order:markers fill stroke"
       id="path1662"
       d="m -46.724271,204.63635 c -0.473872,0.24863 -0.971894,0.44808 -1.464305,0.65644 -0.386919,0.13491 -0.722187,0.37468 -1.086037,0.55555 -0.32739,0.16275 -0.38056,0.16576 -0.74984,0.29175 -0.72447,0.17199 -0.35852,0.0984 -1.09794,0.22017 0,0 0.56502,0.54649 0.56502,0.54649 v 0 c 0.74917,-0.12878 0.37139,-0.0618 1.1333,-0.201 0.35983,-0.0989 0.48323,-0.11661 0.80832,-0.26048 0.366926,-0.16238 0.676991,-0.43206 1.055925,-0.57184 0.508725,-0.21203 1.02458,-0.4134 1.55594,-0.56161 z" /><path
       style="fill:#c8ab37;fill-opacity:1;stroke:#0abd11;stroke-width:0.0799999;stroke-linecap:round;stroke-dasharray:none;stroke-opacity:1;paint-order:markers fill stroke"
       id="path1663"
       d="m -49.319067,203.07377 c 0.0038,0.0505 -0.0029,0.10293 0.01148,0.15148 0.0674,0.22701 0.187211,0.38862 0.370953,0.5468 0.333484,0.28709 0.672846,0.56981 1.03672,0.81725 0.300159,0.20412 0.836906,0.34256 1.165241,0.44599 0.237455,0.0463 0.474911,0.0926 0.712364,0.13895 0,0 -0.500587,-0.52147 -0.500587,-0.52147 v 0 c -0.239241,-0.0525 -0.47848,-0.10491 -0.717722,-0.15736 -0.219342,-0.0783 -0.444089,-0.14286 -0.658026,-0.2349 -0.186098,-0.0801 -0.338093,-0.25663 -0.5393,-0.28025 -0.111202,-0.013 0.290028,0.33907 0.230804,0.24405 -0.154684,-0.24819 -0.344001,-0.23188 -0.331203,-0.55942 z" /><path
       style="fill:#decd87;fill-opacity:1;stroke:#0abd11;stroke-width:0.0799999;stroke-linecap:round;stroke-dasharray:none;stroke-opacity:1;paint-order:markers fill stroke"
       id="path1664"
       d="m -46.912336,204.82569 c 0.0415,-0.0929 0.0824,-0.22668 0.18629,-0.27106 0.0475,-0.0203 0.1439,-0.009 0.18754,-0.008 0.521548,0.0429 1.037351,-0.0584 1.549581,-0.14182 0.08343,-5.3e-4 0.167844,-0.0145 0.250302,-0.002 0.251692,0.0389 0.476395,0.21092 0.672385,0.35974 0.06396,0.0486 0.122513,0.10422 0.188172,0.15047 0.05559,0.0392 0.116525,0.0701 0.174789,0.10518 0.05921,0.0117 0.117398,0.0313 0.177636,0.0351 0.112069,0.007 0.338259,-0.0316 0.440362,-0.0421 0.101878,-0.0105 0.203877,-0.0206 0.306165,-0.0257 0.255095,-0.0127 0.470747,-0.006 0.726416,-0.002 0.47471,0.0139 0.240684,0.006 0.702083,0.0227 0,0 -0.614974,-0.61832 -0.614974,-0.61832 v 0 c -0.454996,-0.008 -0.223726,-0.004 -0.693822,-0.0129 -0.179938,-0.003 -0.565169,-0.01 -0.745543,-0.008 -0.108974,10e-4 -0.2179,0.005 -0.326819,0.009 -0.129333,0.004 -0.306303,0.0225 -0.439708,-5.3e-4 -0.05159,-0.009 -0.09987,-0.0315 -0.14981,-0.0472 -0.05235,-0.0333 -0.106209,-0.0644 -0.157051,-0.0999 -0.277921,-0.19445 -0.546476,-0.43518 -0.903063,-0.46263 -0.08363,-0.006 -0.167325,0.0121 -0.250986,0.0181 -0.292849,0.0558 -0.584915,0.11206 -0.883745,0.12433 -0.21406,0.009 -0.31351,-0.004 -0.51882,-0.0204 -0.0599,-0.005 -0.11979,-0.0102 -0.17969,-0.0153 -0.1039,0.006 -0.14853,-0.005 -0.2395,0.0474 -0.10802,0.0624 -0.15665,0.18573 -0.22541,0.28249 z" /><path
       style="fill:#decd87;fill-opacity:1;stroke:#0abd11;stroke-width:0.0799999;stroke-linecap:round;stroke-dasharray:none;stroke-opacity:1;paint-order:markers fill stroke"
       id="path1665"
       d="m -49.260999,204.119 c 0.02003,0.0175 0.08054,0.0694 0.06011,0.0524 -0.618556,-0.51418 -0.801217,-0.67624 -0.414854,-0.3408 0.186352,0.16179 0.369845,0.32641 0.553437,0.49131 0.01752,0.0137 0.64779,0.91524 0.975135,0.58619 0.05717,-0.0575 0.120248,-0.24191 0.149699,-0.31242 0.07225,-0.17299 0.04933,-0.12251 0.139189,-0.27606 0.08754,-0.0977 0.1861,-0.11866 0.310999,-0.13525 0.05313,-0.007 0.110104,0.003 0.15983,-0.0174 0.0937,-0.0377 0.469125,-0.29027 0.537109,-0.33482 0,0 -0.649414,-0.58195 -0.649414,-0.58195 v 0 c -0.222179,0.12555 -0.3145,0.19937 -0.556871,0.26079 -0.05651,0.0143 -0.116528,0.007 -0.174157,0.016 -0.153109,0.0234 -0.264649,0.075 -0.361037,0.19939 -0.02532,0.0456 -0.053,0.0901 -0.07595,0.13693 -0.173032,0.35332 0.04089,-0.0468 -0.130495,0.29869 -0.01656,0.0334 -0.0293,0.0707 -0.05588,0.0969 -0.0155,0.0152 -0.07737,0.004 -0.0623,0.0193 0.179711,0.1868 0.386424,0.3456 0.579634,0.5184 -0.545285,-0.47391 -1.066451,-0.97846 -1.644425,-1.41331 z" /><path
       style="fill:#c8ab37;fill-opacity:1;stroke:#00ff0a;stroke-width:0.0799999;stroke-linecap:round;stroke-dasharray:none;stroke-opacity:1;paint-order:markers fill stroke"
       id="path1666"
       d="m -43.761447,203.82054 c -0.532222,0.59455 -1.158647,1.09439 -1.874845,1.45195 -0.260144,0.12988 -0.534258,0.22965 -0.801386,0.34448 -1.06898,0.38705 -2.193221,0.57193 -3.323291,0.65508 -0.209524,0.0154 -0.419656,0.021 -0.629484,0.0315 0,0 0.546598,0.53785 0.546598,0.53785 v 0 c 1.317236,-0.14945 2.637816,-0.32773 3.894196,-0.77304 0.277198,-0.10895 0.559694,-0.2053 0.831596,-0.32687 0.491781,-0.21988 0.846894,-0.43174 1.290446,-0.72277 0.140674,-0.0923 0.274932,-0.19402 0.413124,-0.29 0.224893,-0.15618 0.214611,-0.14812 0.394358,-0.26509 z" /><ellipse
       style="opacity:1;fill:#fff2ee;fill-opacity:1;stroke:#ff001e;stroke-width:0.496;stroke-linecap:round;stroke-dasharray:none;stroke-opacity:1;paint-order:markers fill stroke"
       id="path1646"
       cx="-174.43124"
       cy="115.47964"
       rx="1.5374728"
       ry="1.7636321"
       transform="rotate(-43.451767)" /><ellipse
       style="opacity:1;fill:#fff2ee;fill-opacity:1;stroke:#ff001e;stroke-width:0.496;stroke-linecap:round;stroke-dasharray:none;stroke-opacity:1;paint-order:markers fill stroke"
       id="ellipse1646"
       cx="-45.668674"
       cy="202.69165"
       rx="1.5374728"
       ry="1.7636321" /><ellipse
       style="opacity:1;fill:#fff2ee;fill-opacity:1;stroke:#ff001e;stroke-width:0.496;stroke-linecap:round;stroke-dasharray:none;stroke-opacity:1;paint-order:markers fill stroke"
       id="ellipse1647"
       cx="71.073364"
       cy="195.49509"
       rx="1.5374728"
       ry="1.7636321"
       transform="rotate(32.286459)" /><ellipse
       style="opacity:1;fill:#1aa327;fill-opacity:1;stroke:#008812;stroke-width:0.285;stroke-linecap:round;stroke-dasharray:none;stroke-opacity:1;paint-order:markers fill stroke"
       id="ellipse1667"
       cx="-173.83316"
       cy="126.479"
       rx="2.1237645"
       ry="2.436166"
       transform="rotate(-43.451767)" /><ellipse
       style="opacity:1;fill:#04de18;fill-opacity:1;stroke:#008812;stroke-width:0.152535;stroke-linecap:round;stroke-dasharray:none;stroke-opacity:1;paint-order:markers fill stroke"
       id="ellipse1668"
       cx="-38.874134"
       cy="225.007"
       rx="1.7567874"
       ry="2.0021167"
       transform="matrix(0.93382571,0.35772832,-0.00975559,0.99995241,0,0)" /></g></svg>
