<?xml version="1.0" encoding="UTF-8" standalone="no"?>
<!-- Created with Inkscape (http://www.inkscape.org/) -->

<svg
   width="9.0276518mm"
   height="14.319067mm"
   viewBox="0 0 9.0276518 14.319067"
   version="1.1"
   id="svg1"
   inkscape:version="1.3.2 (091e20e, 2023-11-25, custom)"
   sodipodi:docname="APP_FONDA.svg"
   xml:space="preserve"
   xmlns:inkscape="http://www.inkscape.org/namespaces/inkscape"
   xmlns:sodipodi="http://sodipodi.sourceforge.net/DTD/sodipodi-0.dtd"
   xmlns="http://www.w3.org/2000/svg"
   xmlns:svg="http://www.w3.org/2000/svg"><sodipodi:namedview
     id="namedview1"
     pagecolor="#ffffff"
     bordercolor="#000000"
     borderopacity="0.25"
     inkscape:showpageshadow="2"
     inkscape:pageopacity="0.0"
     inkscape:pagecheckerboard="0"
     inkscape:deskcolor="#d1d1d1"
     inkscape:document-units="mm"
     inkscape:zoom="7.9999996"
     inkscape:cx="211.06251"
     inkscape:cy="18.437501"
     inkscape:window-width="1920"
     inkscape:window-height="1017"
     inkscape:window-x="-8"
     inkscape:window-y="-8"
     inkscape:window-maximized="1"
     inkscape:current-layer="layer2"
     showguides="false"
     inkscape:export-bgcolor="#ffffff00" /><defs
     id="defs1"><filter
       inkscape:collect="always"
       style="color-interpolation-filters:sRGB"
       id="filter120"
       x="-3.1142968"
       y="-0.020972237"
       width="7.2260177"
       height="1.0419445"><feGaussianBlur
         inkscape:collect="always"
         stdDeviation="0.001 0"
         id="feGaussianBlur120" /></filter></defs><g
     inkscape:groupmode="layer"
     id="layer2"
     inkscape:label="Capa 2"
     style="display:inline"
     transform="translate(-5.7558156,-5.9663633)"><g
       id="g60"
       transform="matrix(1.8415561,0,0,1.8415561,-95.664192,-1.3929688)"><path
         style="display:inline;opacity:0.454545;fill:#56c623;fill-opacity:0.498252;stroke:#000000;stroke-width:0;stroke-linecap:round;stroke-dasharray:none;stroke-opacity:1;paint-order:markers fill stroke"
         d="m 57.070494,4.7408874 0.18855,0.0053 -0.0517,0.592585 c -0.11499,0.766499 -0.38813,1.169907 -0.62471,1.693223 -0.0781,0.440448 -0.1607,0.907404 -0.10453,1.260799 0.10163,0.63939 0.31783,0.9874946 0.17901,1.6345576 l -0.1924,1.245666 c 0.68409,0.675885 1.42176,0.672891 2.19935,0.133296 l -0.15934,-1.463649 c -0.0783,-0.7728836 0.0775,-0.7436906 0.16229,-1.5732126 0.0255,-0.249713 -0.0206,-0.841552 -0.0981,-1.226879 -0.23202,-0.544091 -0.50145,-0.980601 -0.58279,-1.675371 l -0.11177,-0.649432 0.21314,-0.02421 -0.20584,-0.5011089 -0.652018,0.030986 z"
         id="path116"
         sodipodi:nodetypes="ccccsccccsccccccc" /><path
         style="display:inline;fill:none;fill-opacity:1;stroke:#000000;stroke-width:0.15;stroke-linecap:round;stroke-dasharray:none;stroke-opacity:1;paint-order:markers fill stroke"
         d="m 57.134806,4.7759665 0.147624,0.081305 -0.07509,0.4815011 c -0.11499,0.766499 -0.38813,1.169907 -0.62471,1.693223 -0.0781,0.440448 -0.1607,0.907404 -0.10453,1.260799 0.10163,0.63939 0.31783,0.9874954 0.17901,1.6345584 l -0.1924,1.245666 c 0.68409,0.675884 1.42176,0.67289 2.19935,0.133295 L 58.50472,9.842666 c -0.0783,-0.7728844 0.0775,-0.7436914 0.16229,-1.5732134 0.0255,-0.249713 -0.0206,-0.841552 -0.0981,-1.226879 C 58.33689,6.4984826 58.044074,6.021047 57.962734,5.326277 l -0.07084,-0.5149621 0.166367,-0.047596 C 58.066061,4.4891114 57.987921,4.3495917 57.8875,4.2450703 l -0.652017,-0.00409 c -0.135993,0.165871 -0.177694,0.2743292 -0.100677,0.5349895 z"
         id="path118"
         sodipodi:nodetypes="ccccsccccsccccccc" /><path
         style="display:inline;fill:#000000;fill-opacity:0.498252;stroke:#000000;stroke-width:0;stroke-linecap:round;stroke-dasharray:none;stroke-opacity:1;paint-order:markers fill stroke"
         d="m 57.240414,5.3387724 c -0.11499,0.766499 -0.38813,1.169907 -0.62471,1.693223 -0.0781,0.440448 -0.1607,0.907404 -0.10453,1.260799 0.10163,0.63939 0.31783,0.9874946 0.17901,1.6345576 l -0.1924,1.245666 c 0.68409,0.675885 1.42176,0.672891 2.19935,0.133296 l -0.15934,-1.463649 c -0.0783,-0.7728836 0.0775,-0.7436906 0.16229,-1.5732126 0.0255,-0.249713 -0.0206,-0.841552 -0.0981,-1.226879 -0.23202,-0.544091 -0.5924,-1.0219421 -0.67374,-1.7167121 z"
         id="path119"
         sodipodi:nodetypes="ccsccccsccc" /><rect
         style="display:inline;mix-blend-mode:normal;fill:#ff0300;fill-opacity:1;stroke:#ff001f;stroke-width:0.1;stroke-linecap:round;stroke-dasharray:none;stroke-opacity:1;paint-order:markers fill stroke"
         id="rect119"
         width="1.9176588"
         height="1.2160764"
         x="56.617531"
         y="7.1003122"
         ry="0.18124178" /><path
         style="display:inline;mix-blend-mode:normal;fill:none;fill-opacity:1;stroke:#1c90bb;stroke-width:0.1;stroke-linecap:round;stroke-dasharray:none;stroke-opacity:1;paint-order:markers fill stroke;filter:url(#filter120)"
         d="m 57.513295,8.6755141 c -0.02641,0.6035367 0.01884,1.7162169 0.0061,2.6569559"
         id="path123"
         sodipodi:nodetypes="cc" /><path
         style="display:inline;mix-blend-mode:normal;fill:none;fill-opacity:1;stroke:#1c90bb;stroke-width:0.1;stroke-linecap:round;stroke-dasharray:none;stroke-opacity:1;paint-order:markers fill stroke;filter:url(#filter120)"
         d="m 57.143818,8.5101495 c 0.07776,0.5843581 0.121438,1.8986455 0.03397,2.7714705 -0.0061,0.06111 0.05182,0.0354 0.18597,0.04241"
         id="path125"
         sodipodi:nodetypes="csc" /><path
         style="display:inline;fill:none;fill-opacity:1;stroke:#ffffff;stroke-width:0.0858046;stroke-linecap:round;stroke-dasharray:none;stroke-opacity:1;paint-order:markers fill stroke"
         d="m 57.101321,7.5891625 -0.01612,-0.2528796 -0.322439,0.365271 0.03761,0.3793198 c 0.171455,-0.086135 0.253903,-0.2346939 0.360058,-0.3746373 l -0.04299,0.2341481 -0.01612,0.1404887 0.268699,-0.3652709 -0.02687,0.37932 0.182715,-0.3184414 -0.01612,0.2809777 0.225708,-0.5994191 0.343934,-0.145172 -0.413794,0.2950268 0.04836,0.4448813 0.231079,-0.00469 0.107475,-0.2060502 0.112857,-0.1123908 -0.06449,0.3324902 0.32746,-0.7054753 -0.183552,0.7015664 0.201781,-0.2769611 0.0037,0.2820336"
         id="path126"
         sodipodi:nodetypes="ccccccccccccccccccccccc" /><path
         style="display:inline;fill:#c62330;fill-opacity:1;stroke:#000000;stroke-width:0.104622;stroke-linecap:round;stroke-linejoin:round;stroke-dasharray:none;stroke-opacity:1;paint-order:fill markers stroke"
         d="m 56.949791,4.4205398 0.228283,-0.065856 0.197824,0.063389 0.21305,-0.090275 0.19357,0.079979 0.157494,-0.1153757 0.242408,0.123884 c 0,0 -0.03148,-0.3643349 -0.185192,-0.3615539 -0.2636,0.0048 -0.678127,-0.02527 -0.919721,0.01916 -0.144233,0.02653 -0.127716,0.3466436 -0.127716,0.3466436 z"
         id="path127"
         sodipodi:nodetypes="cccccccsscc" /><path
         style="display:inline;mix-blend-mode:normal;fill:none;fill-opacity:1;stroke:#1c90bb;stroke-width:0.068;stroke-linecap:round;stroke-dasharray:none;stroke-opacity:1;paint-order:markers fill stroke;filter:url(#filter120)"
         d="m 57.595146,4.8168103 c -0.02023,0.6056627 0.02214,1.1889306 -0.01144,2.1219992"
         id="path129"
         sodipodi:nodetypes="cc" /><path
         style="display:inline;mix-blend-mode:normal;fill:none;fill-opacity:1;stroke:#1c90bb;stroke-width:0.068;stroke-linecap:round;stroke-dasharray:none;stroke-opacity:1;paint-order:markers fill stroke;filter:url(#filter120)"
         d="m 57.764695,4.8168103 c 0.06116,0.7122752 0.168521,1.4881319 0.535318,2.0834988 0.03492,0.05668 -0.341844,-0.037377 -0.314265,0.025095"
         id="path32"
         sodipodi:nodetypes="csc" /><path
         style="display:inline;mix-blend-mode:normal;fill:none;fill-opacity:1;stroke:#1c90bb;stroke-width:0.068;stroke-linecap:round;stroke-dasharray:none;stroke-opacity:1;paint-order:markers fill stroke;filter:url(#filter120)"
         d="m 57.421513,4.841615 c -0.01858,0.556246 -0.168883,1.386593 -0.569803,2.0897774 -0.02496,0.043776 0.418502,-0.073107 0.38473,-0.00912"
         id="path57"
         sodipodi:nodetypes="csc" /><path
         style="display:inline;mix-blend-mode:normal;fill:none;fill-opacity:1;stroke:#1c90bb;stroke-width:0.1;stroke-linecap:round;stroke-dasharray:none;stroke-opacity:1;paint-order:markers fill stroke;filter:url(#filter120)"
         d="m 58.356654,8.5432224 c -0.07408,0.5439406 -0.197779,1.6697026 0.02853,2.5286226 0.02335,0.08864 -0.394858,0.106237 -0.377966,0.194479"
         id="path58"
         sodipodi:nodetypes="csc" /><path
         style="display:inline;mix-blend-mode:normal;fill:none;fill-opacity:1;stroke:#1c90bb;stroke-width:0.1;stroke-linecap:round;stroke-dasharray:none;stroke-opacity:1;paint-order:markers fill stroke;filter:url(#filter120)"
         d="m 56.777423,8.5514907 c 0.12106,0.5180397 0.229435,1.4360885 -0.04827,2.5192973 -0.02393,0.09333 0.06119,0.143475 0.222328,0.167851"
         id="path59"
         sodipodi:nodetypes="csc" /><path
         style="display:inline;mix-blend-mode:normal;fill:none;fill-opacity:1;stroke:#1c90bb;stroke-width:0.1;stroke-linecap:round;stroke-dasharray:none;stroke-opacity:1;paint-order:markers fill stroke;filter:url(#filter120)"
         d="m 57.968048,8.6259047 c -0.04908,0.5922013 -0.02616,1.4125933 0.02264,2.3841043"
         id="path60"
         sodipodi:nodetypes="cc" /></g></g></svg>
