<?xml version="1.0" encoding="UTF-8" standalone="no"?>
<!-- Created with Inkscape (http://www.inkscape.org/) -->

<svg
   width="4.9226403mm"
   height="5.1154037mm"
   viewBox="0 0 4.9226403 5.1154037"
   version="1.1"
   id="svg1"
   inkscape:version="1.3.2 (091e20e, 2023-11-25, custom)"
   sodipodi:docname="APP_FONDA.svg"
   xml:space="preserve"
   xmlns:inkscape="http://www.inkscape.org/namespaces/inkscape"
   xmlns:sodipodi="http://sodipodi.sourceforge.net/DTD/sodipodi-0.dtd"
   xmlns="http://www.w3.org/2000/svg"
   xmlns:svg="http://www.w3.org/2000/svg"><sodipodi:namedview
     id="namedview1"
     pagecolor="#ffffff"
     bordercolor="#000000"
     borderopacity="0.25"
     inkscape:showpageshadow="2"
     inkscape:pageopacity="0.0"
     inkscape:pagecheckerboard="0"
     inkscape:deskcolor="#d1d1d1"
     inkscape:document-units="mm"
     inkscape:zoom="7.9999996"
     inkscape:cx="211.06251"
     inkscape:cy="18.437501"
     inkscape:window-width="1920"
     inkscape:window-height="1017"
     inkscape:window-x="-8"
     inkscape:window-y="-8"
     inkscape:window-maximized="1"
     inkscape:current-layer="layer2"
     showguides="false"
     inkscape:export-bgcolor="#ffffff00" /><defs
     id="defs1" /><g
     inkscape:groupmode="layer"
     id="layer2"
     inkscape:label="Capa 2"
     style="display:inline"
     transform="translate(-52.702276,-5.8903149)"><g
       id="g128"
       transform="translate(-2.1270611,-0.01937367)"><path
         style="display:inline;fill:#fdd9d9;fill-opacity:1;stroke:#000000;stroke-width:0;stroke-linecap:round;stroke-dasharray:none;paint-order:markers fill stroke"
         d="m 55.166615,10.182722 c 0.01883,0.293453 0.92219,0.849563 2.338608,0.841899 1.203343,0.02122 2.245547,-0.679557 2.174906,-1.1576116 -0.545639,-0.972713 -1.962007,-0.864206 -2.478926,-0.876977 -1.783532,0.08976 -2.117637,1.00992 -2.034588,1.1926896 z"
         id="path95"
         sodipodi:nodetypes="ccccc" /><path
         style="display:inline;fill:#ffffff;fill-opacity:1;stroke:#000000;stroke-width:0.1;stroke-linecap:round;stroke-dasharray:none;paint-order:markers fill stroke"
         d="m 54.880222,8.2564654 c 0.07424,1.057895 0.701977,2.1083196 2.505236,2.0842836 1.891199,-0.147339 2.194371,-1.0065516 2.303528,-1.9527376 -0.0042,-0.48698 -0.348916,-0.747006 -0.818512,-0.92375 -0.502801,-0.194155 -1.005602,-0.338325 -1.508403,-0.315712 -0.712477,0.02485 -1.427786,0.0869 -1.955661,0.450181 -0.538275,0.494328 -0.480359,0.572016 -0.526188,0.657735 z"
         id="path79"
         sodipodi:nodetypes="ccccccc" /><path
         style="display:inline;fill:#ffffff;fill-opacity:1;stroke:#000000;stroke-width:0.1;stroke-linecap:round;stroke-dasharray:none;paint-order:markers fill stroke"
         d="m 56.403242,10.235512 c 0,0 0.138289,0.262695 0.340881,0.333667 0.198487,0.06953 0.466995,0.112525 0.676412,0.09313 0.236269,-0.02188 0.668829,-0.0556 0.818515,-0.239708 0.05661,-0.06962 0.02338,-0.222168 0.02338,-0.222168 0,0 -0.674992,0.138141 -1.017293,0.140317 -0.282811,0.0018 -0.841898,-0.105237 -0.841898,-0.105237 z"
         id="path80"
         sodipodi:nodetypes="cssscsc" /><path
         style="display:inline;fill:#ffffff;fill-opacity:1;stroke:#000000;stroke-width:0.1;stroke-linecap:round;stroke-dasharray:none;paint-order:markers fill stroke"
         d="m 54.883145,8.3295464 c 0.404698,0.574086 0.933883,0.826177 2.549083,0.853592 1.144878,-0.09571 2.14031,-0.281994 2.26845,-0.993909 -0.288392,-0.984406 -1.891848,-1.016216 -2.408767,-1.028987 -1.783532,0.08976 -2.339805,0.635743 -2.408766,1.169304 z"
         id="path93"
         sodipodi:nodetypes="ccccc" /><path
         style="display:inline;fill:#ffffff;fill-opacity:1;stroke:#000000;stroke-width:0.0812732;stroke-linecap:round;stroke-dasharray:none;paint-order:markers fill stroke"
         d="m 55.263999,8.2882924 c 0.328911,0.466578 0.829154,0.683153 2.141879,0.705434 0.930478,-0.07779 1.903201,-0.229185 2.007344,-0.807781 -0.234385,-0.800058 -1.701268,-0.825911 -2.121384,-0.836291 -1.449534,0.07295 -1.971792,0.504996 -2.027839,0.938638 z"
         id="path94"
         sodipodi:nodetypes="ccccc" /><path
         style="display:inline;fill:#ffe900;fill-opacity:1;stroke:#000000;stroke-width:0.072;stroke-linecap:round;stroke-dasharray:none;paint-order:markers fill stroke"
         d="m 55.432914,8.4331454 c 0.02868,0.231432 0.738688,0.546036 1.995944,0.564751 0.891163,-0.06534 1.814867,-0.248065 1.922527,-0.678498 -0.200724,-0.394213 -1.43933,-0.520101 -1.968397,-0.535765 -1.15072,-0.01512 -2.07853,0.424172 -1.950074,0.649512 z"
         id="path96"
         sodipodi:nodetypes="ccccc" /><rect
         style="fill:#b0a20e;fill-opacity:1;stroke:#000000;stroke-width:0.0095172;stroke-linecap:round;stroke-dasharray:none;paint-order:markers fill stroke"
         id="rect96"
         width="0.14143728"
         height="0.1391063"
         x="57.563221"
         y="8.3243065"
         ry="0.042593189" /><rect
         style="fill:#b0a20e;fill-opacity:1;stroke:#000000;stroke-width:0.0095172;stroke-linecap:round;stroke-dasharray:none;paint-order:markers fill stroke"
         id="rect98"
         width="0.14143728"
         height="0.1391063"
         x="56.393917"
         y="8.3535385"
         ry="0.042593189" /><rect
         style="fill:#b0a20e;fill-opacity:1;stroke:#000000;stroke-width:0.0095172;stroke-linecap:round;stroke-dasharray:none;paint-order:markers fill stroke"
         id="rect99"
         width="0.14143728"
         height="0.1391063"
         x="57.013645"
         y="8.0729046"
         ry="0.042593189" /><rect
         style="fill:#b0a20e;fill-opacity:1;stroke:#000000;stroke-width:0.0095172;stroke-linecap:round;stroke-dasharray:none;paint-order:markers fill stroke"
         id="rect106"
         width="0.14143728"
         height="0.1391063"
         x="58.557125"
         y="8.2483006"
         ry="0.042593189" /><rect
         style="fill:#b0a20e;fill-opacity:1;stroke:#000000;stroke-width:0.0095172;stroke-linecap:round;stroke-dasharray:none;paint-order:markers fill stroke"
         id="rect107"
         width="0.14143728"
         height="0.1391063"
         x="56.961033"
         y="8.5698605"
         ry="0.042593189" /><path
         style="display:inline;opacity:0.457851;fill:none;fill-opacity:0.5;stroke:#65651e;stroke-width:0.204;stroke-linecap:round;stroke-dasharray:none;stroke-opacity:1;paint-order:markers fill stroke"
         d="m 56.346161,8.1196544 c 0.526643,-0.612072 -0.631267,-1.551427 0.122747,-2.107966"
         id="path113"
         sodipodi:nodetypes="cc" /><path
         style="display:inline;opacity:0.457851;fill:none;fill-opacity:0.5;stroke:#65651e;stroke-width:0.204;stroke-linecap:round;stroke-dasharray:none;stroke-opacity:1;paint-order:markers fill stroke"
         d="m 57.390904,8.1775314 c 0.526643,-0.612072 -0.631266,-1.551427 0.122748,-2.107966"
         id="path114"
         sodipodi:nodetypes="cc" /><path
         style="display:inline;opacity:0.457851;fill:none;fill-opacity:0.5;stroke:#65651e;stroke-width:0.204;stroke-linecap:round;stroke-dasharray:none;stroke-opacity:1;paint-order:markers fill stroke"
         d="M 58.230509,8.0783134 C 58.53391,7.4166314 57.93824,6.7749334 58.42767,6.3424174"
         id="path115"
         sodipodi:nodetypes="cc" /></g></g></svg>
