<?xml version="1.0" encoding="UTF-8" standalone="no"?>
<!-- Created with Inkscape (http://www.inkscape.org/) -->

<svg
   width="27.124773mm"
   height="12.700275mm"
   viewBox="0 0 27.124773 12.700275"
   version="1.1"
   id="svg1"
   inkscape:version="1.3.2 (091e20e, 2023-11-25, custom)"
   sodipodi:docname="APP_FONDA.svg"
   xml:space="preserve"
   xmlns:inkscape="http://www.inkscape.org/namespaces/inkscape"
   xmlns:sodipodi="http://sodipodi.sourceforge.net/DTD/sodipodi-0.dtd"
   xmlns="http://www.w3.org/2000/svg"
   xmlns:svg="http://www.w3.org/2000/svg"><sodipodi:namedview
     id="namedview1"
     pagecolor="#ffffff"
     bordercolor="#000000"
     borderopacity="0.25"
     inkscape:showpageshadow="2"
     inkscape:pageopacity="0.0"
     inkscape:pagecheckerboard="0"
     inkscape:deskcolor="#d1d1d1"
     inkscape:document-units="mm"
     inkscape:zoom="0.70710678"
     inkscape:cx="-317.49094"
     inkscape:cy="700.74282"
     inkscape:window-width="1920"
     inkscape:window-height="1017"
     inkscape:window-x="-8"
     inkscape:window-y="-8"
     inkscape:window-maximized="1"
     inkscape:current-layer="layer2"
     showguides="true"
     inkscape:export-bgcolor="#ffffff00" /><defs
     id="defs1" /><g
     id="g1307"
     transform="translate(5.0050889,-220.73292)"><g
       id="g1420"
       transform="translate(106.48728,36.354838)"><g
         id="g1065"
         transform="translate(-35.312988,18.802411)"><path
           style="fill:#ffffff;fill-opacity:1;stroke:#000000;stroke-width:0.161255;stroke-linecap:round;stroke-dasharray:none;stroke-opacity:1;paint-order:markers fill stroke"
           id="path1027"
           sodipodi:type="arc"
           sodipodi:cx="-62.616974"
           sodipodi:cy="171.92583"
           sodipodi:rx="13.481741"
           sodipodi:ry="6.2694817"
           sodipodi:start="0"
           sodipodi:end="6.2474506"
           sodipodi:open="true"
           sodipodi:arc-type="arc"
           d="m -49.135233,171.92583 a 13.481741,6.2694817 0 0 1 -13.361301,6.26923 13.481741,6.2694817 0 0 1 -13.600029,-6.15722 13.481741,6.2694817 0 0 1 13.118308,-6.37924 13.481741,6.2694817 0 0 1 13.834415,6.04324" /><path
           style="opacity:0.616529;fill:#ffffff;fill-opacity:1;stroke:#000000;stroke-width:0.161255;stroke-linecap:round;stroke-dasharray:none;stroke-opacity:1;paint-order:markers fill stroke"
           id="path1028"
           sodipodi:type="arc"
           sodipodi:cx="-62.616982"
           sodipodi:cy="171.92583"
           sodipodi:rx="8.2527351"
           sodipodi:ry="3.8378108"
           sodipodi:start="0"
           sodipodi:end="6.2474506"
           sodipodi:open="true"
           sodipodi:arc-type="arc"
           d="m -54.364246,171.92583 a 8.2527351,3.8378108 0 0 1 -8.179009,3.83765 8.2527351,3.8378108 0 0 1 -8.325144,-3.76909 8.2527351,3.8378108 0 0 1 8.030262,-3.905 8.2527351,3.8378108 0 0 1 8.468622,3.69932" /></g><g
         id="g1110"
         transform="translate(-35.312988,19.530015)"><path
           style="fill:#ff9a83;fill-opacity:1;stroke:#000000;stroke-width:0.18;stroke-linecap:round;stroke-dasharray:none;stroke-opacity:1;paint-order:markers fill stroke"
           d="m -69.589933,174.12945 c -1.373702,0.89551 -3.313624,0.61216 -2.590867,-1.91531 l 6.285869,-5.75532 c 0.538845,-0.24747 3.076898,-0.94121 2.057976,1.63702 z"
           id="path1066"
           sodipodi:nodetypes="ccccc" /><path
           style="fill:#ee502b;fill-opacity:1;stroke:#000000;stroke-width:0.18;stroke-linecap:round;stroke-dasharray:none;stroke-opacity:1;paint-order:markers fill stroke"
           d="m -71.867447,172.29336 c 0,0 0.641603,-0.10684 0.942578,-0.0165 0.345593,0.10373 0.674727,0.32451 0.892969,0.61185 0.144442,0.19017 0.264583,0.77721 0.264583,0.77721"
           id="path1067"
           sodipodi:nodetypes="cssc" /><g
           id="g1073"
           transform="matrix(0.96769809,0,0,0.96769809,-3.0233307,5.211212)"><path
             style="opacity:1;fill:#ffe0a8;fill-opacity:1;stroke:#000000;stroke-width:0.08;stroke-linecap:round;stroke-dasharray:none;stroke-opacity:1;paint-order:markers fill stroke"
             d="m -70.953376,172.69453 -0.479414,0.40926 0.02339,0.58465 0.549572,0.36249 0.982209,-0.8419 -0.409258,-0.44434 z"
             id="path1071"
             sodipodi:nodetypes="ccccccc" /><path
             style="opacity:1;fill:#ffe0a8;fill-opacity:1;stroke:#000000;stroke-width:0.0799999;stroke-linecap:round;stroke-dasharray:none;stroke-opacity:1;paint-order:markers fill stroke"
             d="m -70.836446,173.86384 0.02339,-0.63143 0.362485,-0.29232"
             id="path1072" /><path
             style="opacity:1;fill:#ffe0a8;fill-opacity:1;stroke:#000000;stroke-width:0.0799999;stroke-linecap:round;stroke-dasharray:none;stroke-opacity:1;paint-order:markers fill stroke"
             d="m -71.234009,173.18564 0.245552,0.11693"
             id="path1073" /></g><g
           id="g1070"
           transform="matrix(0.85464141,0,0,0.85464141,-10.566091,25.631147)"><path
             style="opacity:1;fill:#ffe0a8;fill-opacity:1;stroke:#000000;stroke-width:0.08;stroke-linecap:round;stroke-dasharray:none;stroke-opacity:1;paint-order:markers fill stroke"
             d="m -70.953376,172.69453 -0.479414,0.40926 0.02339,0.58465 0.549572,0.36249 0.982209,-0.8419 -0.409258,-0.44434 z"
             id="path1068"
             sodipodi:nodetypes="ccccccc" /><path
             style="opacity:1;fill:#ffe0a8;fill-opacity:1;stroke:#000000;stroke-width:0.0799999;stroke-linecap:round;stroke-dasharray:none;stroke-opacity:1;paint-order:markers fill stroke"
             d="m -70.836446,173.86384 0.02339,-0.63143 0.362485,-0.29232"
             id="path1069" /><path
             style="opacity:1;fill:#ffe0a8;fill-opacity:1;stroke:#000000;stroke-width:0.0799999;stroke-linecap:round;stroke-dasharray:none;stroke-opacity:1;paint-order:markers fill stroke"
             d="m -71.234009,173.18564 0.245552,0.11693"
             id="path1070" /></g><g
           id="g1076"
           transform="matrix(0.91453162,0,0,0.80264338,-5.9491675,34.061754)"><path
             style="opacity:1;fill:#ffe0a8;fill-opacity:1;stroke:#000000;stroke-width:0.08;stroke-linecap:round;stroke-dasharray:none;stroke-opacity:1;paint-order:markers fill stroke"
             d="m -70.953376,172.69453 -0.479414,0.40926 0.02339,0.58465 0.549572,0.36249 0.982209,-0.8419 -0.409258,-0.44434 z"
             id="path1074"
             sodipodi:nodetypes="ccccccc" /><path
             style="opacity:1;fill:#ffe0a8;fill-opacity:1;stroke:#000000;stroke-width:0.0799999;stroke-linecap:round;stroke-dasharray:none;stroke-opacity:1;paint-order:markers fill stroke"
             d="m -70.836446,173.86384 0.02339,-0.63143 0.362485,-0.29232"
             id="path1075" /><path
             style="opacity:1;fill:#ffe0a8;fill-opacity:1;stroke:#000000;stroke-width:0.0799999;stroke-linecap:round;stroke-dasharray:none;stroke-opacity:1;paint-order:markers fill stroke"
             d="m -71.234009,173.18564 0.245552,0.11693"
             id="path1076" /></g></g><g
         id="g1121"
         transform="translate(-31.840329,19.530015)"><path
           style="fill:#ff9a83;fill-opacity:1;stroke:#000000;stroke-width:0.18;stroke-linecap:round;stroke-dasharray:none;stroke-opacity:1;paint-order:markers fill stroke"
           d="m -69.589933,174.12945 c -1.373702,0.89551 -3.313624,0.61216 -2.590867,-1.91531 l 6.285869,-5.75532 c 0.538845,-0.24747 3.076898,-0.94121 2.057976,1.63702 z"
           id="path1110"
           sodipodi:nodetypes="ccccc" /><path
           style="fill:#ee502b;fill-opacity:1;stroke:#000000;stroke-width:0.18;stroke-linecap:round;stroke-dasharray:none;stroke-opacity:1;paint-order:markers fill stroke"
           d="m -71.867447,172.29336 c 0,0 0.641603,-0.10684 0.942578,-0.0165 0.345593,0.10373 0.674727,0.32451 0.892969,0.61185 0.144442,0.19017 0.264583,0.77721 0.264583,0.77721"
           id="path1111"
           sodipodi:nodetypes="cssc" /><g
           id="g1114"
           transform="matrix(0.96769809,0,0,0.96769809,-3.0233307,5.211212)"><path
             style="opacity:1;fill:#ffe0a8;fill-opacity:1;stroke:#000000;stroke-width:0.08;stroke-linecap:round;stroke-dasharray:none;stroke-opacity:1;paint-order:markers fill stroke"
             d="m -70.953376,172.69453 -0.479414,0.40926 0.02339,0.58465 0.549572,0.36249 0.982209,-0.8419 -0.409258,-0.44434 z"
             id="path1112"
             sodipodi:nodetypes="ccccccc" /><path
             style="opacity:1;fill:#ffe0a8;fill-opacity:1;stroke:#000000;stroke-width:0.0799999;stroke-linecap:round;stroke-dasharray:none;stroke-opacity:1;paint-order:markers fill stroke"
             d="m -70.836446,173.86384 0.02339,-0.63143 0.362485,-0.29232"
             id="path1113" /><path
             style="opacity:1;fill:#ffe0a8;fill-opacity:1;stroke:#000000;stroke-width:0.0799999;stroke-linecap:round;stroke-dasharray:none;stroke-opacity:1;paint-order:markers fill stroke"
             d="m -71.234009,173.18564 0.245552,0.11693"
             id="path1114" /></g><g
           id="g1117"
           transform="matrix(0.85464141,0,0,0.85464141,-10.566091,25.631147)"><path
             style="opacity:1;fill:#ffe0a8;fill-opacity:1;stroke:#000000;stroke-width:0.08;stroke-linecap:round;stroke-dasharray:none;stroke-opacity:1;paint-order:markers fill stroke"
             d="m -70.953376,172.69453 -0.479414,0.40926 0.02339,0.58465 0.549572,0.36249 0.982209,-0.8419 -0.409258,-0.44434 z"
             id="path1115"
             sodipodi:nodetypes="ccccccc" /><path
             style="opacity:1;fill:#ffe0a8;fill-opacity:1;stroke:#000000;stroke-width:0.0799999;stroke-linecap:round;stroke-dasharray:none;stroke-opacity:1;paint-order:markers fill stroke"
             d="m -70.836446,173.86384 0.02339,-0.63143 0.362485,-0.29232"
             id="path1116" /><path
             style="opacity:1;fill:#ffe0a8;fill-opacity:1;stroke:#000000;stroke-width:0.0799999;stroke-linecap:round;stroke-dasharray:none;stroke-opacity:1;paint-order:markers fill stroke"
             d="m -71.234009,173.18564 0.245552,0.11693"
             id="path1117" /></g><g
           id="g1120"
           transform="matrix(0.91453162,0,0,0.80264338,-5.9491675,34.061754)"><path
             style="opacity:1;fill:#ffe0a8;fill-opacity:1;stroke:#000000;stroke-width:0.08;stroke-linecap:round;stroke-dasharray:none;stroke-opacity:1;paint-order:markers fill stroke"
             d="m -70.953376,172.69453 -0.479414,0.40926 0.02339,0.58465 0.549572,0.36249 0.982209,-0.8419 -0.409258,-0.44434 z"
             id="path1118"
             sodipodi:nodetypes="ccccccc" /><path
             style="opacity:1;fill:#ffe0a8;fill-opacity:1;stroke:#000000;stroke-width:0.0799999;stroke-linecap:round;stroke-dasharray:none;stroke-opacity:1;paint-order:markers fill stroke"
             d="m -70.836446,173.86384 0.02339,-0.63143 0.362485,-0.29232"
             id="path1119" /><path
             style="opacity:1;fill:#ffe0a8;fill-opacity:1;stroke:#000000;stroke-width:0.0799999;stroke-linecap:round;stroke-dasharray:none;stroke-opacity:1;paint-order:markers fill stroke"
             d="m -71.234009,173.18564 0.245552,0.11693"
             id="path1120" /></g></g><g
         id="g1132"
         transform="translate(-28.400748,19.530015)"><path
           style="fill:#ff9a83;fill-opacity:1;stroke:#000000;stroke-width:0.18;stroke-linecap:round;stroke-dasharray:none;stroke-opacity:1;paint-order:markers fill stroke"
           d="m -69.589933,174.12945 c -1.373702,0.89551 -3.313624,0.61216 -2.590867,-1.91531 l 6.285869,-5.75532 c 0.538845,-0.24747 3.076898,-0.94121 2.057976,1.63702 z"
           id="path1121"
           sodipodi:nodetypes="ccccc" /><path
           style="fill:#ee502b;fill-opacity:1;stroke:#000000;stroke-width:0.18;stroke-linecap:round;stroke-dasharray:none;stroke-opacity:1;paint-order:markers fill stroke"
           d="m -71.867447,172.29336 c 0,0 0.641603,-0.10684 0.942578,-0.0165 0.345593,0.10373 0.674727,0.32451 0.892969,0.61185 0.144442,0.19017 0.264583,0.77721 0.264583,0.77721"
           id="path1122"
           sodipodi:nodetypes="cssc" /><g
           id="g1125"
           transform="matrix(0.96769809,0,0,0.96769809,-3.0233307,5.211212)"><path
             style="opacity:1;fill:#ffe0a8;fill-opacity:1;stroke:#000000;stroke-width:0.08;stroke-linecap:round;stroke-dasharray:none;stroke-opacity:1;paint-order:markers fill stroke"
             d="m -70.953376,172.69453 -0.479414,0.40926 0.02339,0.58465 0.549572,0.36249 0.982209,-0.8419 -0.409258,-0.44434 z"
             id="path1123"
             sodipodi:nodetypes="ccccccc" /><path
             style="opacity:1;fill:#ffe0a8;fill-opacity:1;stroke:#000000;stroke-width:0.0799999;stroke-linecap:round;stroke-dasharray:none;stroke-opacity:1;paint-order:markers fill stroke"
             d="m -70.836446,173.86384 0.02339,-0.63143 0.362485,-0.29232"
             id="path1124" /><path
             style="opacity:1;fill:#ffe0a8;fill-opacity:1;stroke:#000000;stroke-width:0.0799999;stroke-linecap:round;stroke-dasharray:none;stroke-opacity:1;paint-order:markers fill stroke"
             d="m -71.234009,173.18564 0.245552,0.11693"
             id="path1125" /></g><g
           id="g1128"
           transform="matrix(0.85464141,0,0,0.85464141,-10.566091,25.631147)"><path
             style="opacity:1;fill:#ffe0a8;fill-opacity:1;stroke:#000000;stroke-width:0.08;stroke-linecap:round;stroke-dasharray:none;stroke-opacity:1;paint-order:markers fill stroke"
             d="m -70.953376,172.69453 -0.479414,0.40926 0.02339,0.58465 0.549572,0.36249 0.982209,-0.8419 -0.409258,-0.44434 z"
             id="path1126"
             sodipodi:nodetypes="ccccccc" /><path
             style="opacity:1;fill:#ffe0a8;fill-opacity:1;stroke:#000000;stroke-width:0.0799999;stroke-linecap:round;stroke-dasharray:none;stroke-opacity:1;paint-order:markers fill stroke"
             d="m -70.836446,173.86384 0.02339,-0.63143 0.362485,-0.29232"
             id="path1127" /><path
             style="opacity:1;fill:#ffe0a8;fill-opacity:1;stroke:#000000;stroke-width:0.0799999;stroke-linecap:round;stroke-dasharray:none;stroke-opacity:1;paint-order:markers fill stroke"
             d="m -71.234009,173.18564 0.245552,0.11693"
             id="path1128" /></g><g
           id="g1131"
           transform="matrix(0.91453162,0,0,0.80264338,-5.9491675,34.061754)"><path
             style="opacity:1;fill:#ffe0a8;fill-opacity:1;stroke:#000000;stroke-width:0.08;stroke-linecap:round;stroke-dasharray:none;stroke-opacity:1;paint-order:markers fill stroke"
             d="m -70.953376,172.69453 -0.479414,0.40926 0.02339,0.58465 0.549572,0.36249 0.982209,-0.8419 -0.409258,-0.44434 z"
             id="path1129"
             sodipodi:nodetypes="ccccccc" /><path
             style="opacity:1;fill:#ffe0a8;fill-opacity:1;stroke:#000000;stroke-width:0.0799999;stroke-linecap:round;stroke-dasharray:none;stroke-opacity:1;paint-order:markers fill stroke"
             d="m -70.836446,173.86384 0.02339,-0.63143 0.362485,-0.29232"
             id="path1130" /><path
             style="opacity:1;fill:#ffe0a8;fill-opacity:1;stroke:#000000;stroke-width:0.0799999;stroke-linecap:round;stroke-dasharray:none;stroke-opacity:1;paint-order:markers fill stroke"
             d="m -71.234009,173.18564 0.245552,0.11693"
             id="path1131" /></g></g><g
         id="g1143"
         transform="translate(-25.02731,19.530015)"><path
           style="fill:#ff9a83;fill-opacity:1;stroke:#000000;stroke-width:0.18;stroke-linecap:round;stroke-dasharray:none;stroke-opacity:1;paint-order:markers fill stroke"
           d="m -69.589933,174.12945 c -1.373702,0.89551 -3.313624,0.61216 -2.590867,-1.91531 l 6.285869,-5.75532 c 0.538845,-0.24747 3.076898,-0.94121 2.057976,1.63702 z"
           id="path1132"
           sodipodi:nodetypes="ccccc" /><path
           style="fill:#ee502b;fill-opacity:1;stroke:#000000;stroke-width:0.18;stroke-linecap:round;stroke-dasharray:none;stroke-opacity:1;paint-order:markers fill stroke"
           d="m -71.867447,172.29336 c 0,0 0.641603,-0.10684 0.942578,-0.0165 0.345593,0.10373 0.674727,0.32451 0.892969,0.61185 0.144442,0.19017 0.264583,0.77721 0.264583,0.77721"
           id="path1133"
           sodipodi:nodetypes="cssc" /><g
           id="g1136"
           transform="matrix(0.96769809,0,0,0.96769809,-3.0233307,5.211212)"><path
             style="opacity:1;fill:#ffe0a8;fill-opacity:1;stroke:#000000;stroke-width:0.08;stroke-linecap:round;stroke-dasharray:none;stroke-opacity:1;paint-order:markers fill stroke"
             d="m -70.953376,172.69453 -0.479414,0.40926 0.02339,0.58465 0.549572,0.36249 0.982209,-0.8419 -0.409258,-0.44434 z"
             id="path1134"
             sodipodi:nodetypes="ccccccc" /><path
             style="opacity:1;fill:#ffe0a8;fill-opacity:1;stroke:#000000;stroke-width:0.0799999;stroke-linecap:round;stroke-dasharray:none;stroke-opacity:1;paint-order:markers fill stroke"
             d="m -70.836446,173.86384 0.02339,-0.63143 0.362485,-0.29232"
             id="path1135" /><path
             style="opacity:1;fill:#ffe0a8;fill-opacity:1;stroke:#000000;stroke-width:0.0799999;stroke-linecap:round;stroke-dasharray:none;stroke-opacity:1;paint-order:markers fill stroke"
             d="m -71.234009,173.18564 0.245552,0.11693"
             id="path1136" /></g><g
           id="g1139"
           transform="matrix(0.85464141,0,0,0.85464141,-10.566091,25.631147)"><path
             style="opacity:1;fill:#ffe0a8;fill-opacity:1;stroke:#000000;stroke-width:0.08;stroke-linecap:round;stroke-dasharray:none;stroke-opacity:1;paint-order:markers fill stroke"
             d="m -70.953376,172.69453 -0.479414,0.40926 0.02339,0.58465 0.549572,0.36249 0.982209,-0.8419 -0.409258,-0.44434 z"
             id="path1137"
             sodipodi:nodetypes="ccccccc" /><path
             style="opacity:1;fill:#ffe0a8;fill-opacity:1;stroke:#000000;stroke-width:0.0799999;stroke-linecap:round;stroke-dasharray:none;stroke-opacity:1;paint-order:markers fill stroke"
             d="m -70.836446,173.86384 0.02339,-0.63143 0.362485,-0.29232"
             id="path1138" /><path
             style="opacity:1;fill:#ffe0a8;fill-opacity:1;stroke:#000000;stroke-width:0.0799999;stroke-linecap:round;stroke-dasharray:none;stroke-opacity:1;paint-order:markers fill stroke"
             d="m -71.234009,173.18564 0.245552,0.11693"
             id="path1139" /></g><g
           id="g1142"
           transform="matrix(0.91453162,0,0,0.80264338,-5.9491675,34.061754)"><path
             style="opacity:1;fill:#ffe0a8;fill-opacity:1;stroke:#000000;stroke-width:0.08;stroke-linecap:round;stroke-dasharray:none;stroke-opacity:1;paint-order:markers fill stroke"
             d="m -70.953376,172.69453 -0.479414,0.40926 0.02339,0.58465 0.549572,0.36249 0.982209,-0.8419 -0.409258,-0.44434 z"
             id="path1140"
             sodipodi:nodetypes="ccccccc" /><path
             style="opacity:1;fill:#ffe0a8;fill-opacity:1;stroke:#000000;stroke-width:0.0799999;stroke-linecap:round;stroke-dasharray:none;stroke-opacity:1;paint-order:markers fill stroke"
             d="m -70.836446,173.86384 0.02339,-0.63143 0.362485,-0.29232"
             id="path1141" /><path
             style="opacity:1;fill:#ffe0a8;fill-opacity:1;stroke:#000000;stroke-width:0.0799999;stroke-linecap:round;stroke-dasharray:none;stroke-opacity:1;paint-order:markers fill stroke"
             d="m -71.234009,173.18564 0.245552,0.11693"
             id="path1142" /></g></g><g
         id="g1308"
         transform="translate(-1.1405289,11.354956)"><circle
           id="path1185"
           style="fill:#36f762;stroke:#0abd11;stroke-width:0.264583"
           cx="-90.504143"
           cy="176.00366"
           r="0.00094186625" /><circle
           id="path1230"
           style="fill:#ff0000;stroke:#0abd11;stroke-width:0.264583"
           cx="-104.34871"
           cy="177.78101"
           r="0.00070639962" /><path
           style="opacity:1;fill:#c8ab37;fill-opacity:1;stroke:#00ff0a;stroke-width:0.0799999;stroke-linecap:round;stroke-dasharray:none;stroke-opacity:1;paint-order:markers fill stroke"
           id="path1275"
           d="m -105.22067,179.27541 c 0.26751,-0.093 0.58815,-0.0916 0.86559,-0.0791 0.49312,0.0222 0.67219,0.0636 1.17464,0.13914 0.64856,0.0936 1.29317,0.27884 1.9547,0.26093 0.25246,-0.007 0.50227,-0.0535 0.7534,-0.0803 0,0 -0.50537,-0.49728 -0.50537,-0.49728 v 0 c -0.25827,0.0145 -0.51614,0.0444 -0.77481,0.0435 -0.66037,-0.002 -1.30538,-0.16316 -1.95278,-0.26879 -0.55888,-0.0962 -1.11363,-0.19959 -1.68139,-0.22409 -0.18158,-0.008 -0.30707,-0.009 -0.4781,0.0148 -0.0277,0.004 -0.0545,0.0124 -0.0817,0.0186 z" /><path
           style="opacity:1;fill:#c8ab37;fill-opacity:1;stroke:#00ff0a;stroke-width:0.0799999;stroke-linecap:round;stroke-dasharray:none;stroke-opacity:1;paint-order:markers fill stroke"
           id="path1276"
           d="m -103.29804,177.20567 c 0.19161,-0.14338 0.42822,-0.22081 0.65748,-0.2785 0.20364,-0.0512 0.4081,-0.10526 0.61689,-0.12769 0.88328,-0.0949 1.36157,-0.0293 2.275813,0.0173 0.835583,0.0742 1.940943,0.17668 2.775878,0.23366 0.444818,0.0303 0.889731,0.064 1.335442,0.0752 1.145056,0.0287 2.283709,-0.0619 3.423309,-0.1558 0,0 -0.441489,-0.43274 -0.441489,-0.43274 v 0 c -0.792914,0.0944 -1.285851,0.16576 -2.096772,0.20681 -0.411039,0.0208 -0.822807,0.0329 -1.234356,0.029 -1.377923,-0.0128 -2.748401,-0.17409 -4.116985,-0.31629 -0.44306,-0.0413 -0.88536,-0.0916 -1.32916,-0.12397 -0.37605,-0.0274 -0.75275,-0.0584 -1.12977,-0.0552 -0.23031,0.002 -0.45912,0.0395 -0.68737,0.0704 -0.26802,0.0362 -0.53553,0.0902 -0.78467,0.1977 z" /><path
           style="opacity:1;fill:#c8ab37;fill-opacity:1;stroke:#00ff0a;stroke-width:0.0799999;stroke-linecap:round;stroke-dasharray:none;stroke-opacity:1;paint-order:markers fill stroke"
           id="path1277"
           d="m -98.147588,175.30294 c -0.473872,0.24863 -0.971894,0.44808 -1.464305,0.65644 -0.386919,0.13491 -0.722187,0.37468 -1.086037,0.55555 -0.32739,0.16275 -0.38056,0.16576 -0.74984,0.29175 -0.72447,0.17199 -0.35852,0.0984 -1.09794,0.22017 0,0 0.56502,0.54649 0.56502,0.54649 v 0 c 0.74917,-0.12878 0.37139,-0.0618 1.1333,-0.201 0.35983,-0.0989 0.48323,-0.11661 0.80832,-0.26048 0.366926,-0.16238 0.676991,-0.43206 1.055925,-0.57184 0.508725,-0.21203 1.02458,-0.4134 1.55594,-0.56161 z" /><path
           style="opacity:1;fill:#c8ab37;fill-opacity:1;stroke:#0abd11;stroke-width:0.0799999;stroke-linecap:round;stroke-dasharray:none;stroke-opacity:1;paint-order:markers fill stroke"
           id="path1278"
           d="m -100.75036,176.27262 c 0.0195,0.01 0.039,0.0201 0.0586,0.0299 0.0318,0.0158 0.0658,0.0277 0.0958,0.0468 0.0381,0.0243 0.14202,0.11176 0.10726,0.0829 -0.88859,-0.73772 -0.68293,-0.60259 -0.42492,-0.30505 0.0734,0.0847 0.14326,0.17244 0.2149,0.25866 0.12908,0.13311 0.25224,0.27225 0.38725,0.39934 0.457861,0.43098 1.291952,1.08713 1.716195,1.37182 0.467863,0.31395 1.018683,0.49505 1.537402,0.69676 0,0 -0.462482,-0.49843 -0.462482,-0.49843 v 0 c -1.65491,-0.65495 0.09141,0.0735 -1.540642,-0.72559 -0.02535,-0.0124 -0.062,0.0199 -0.08461,0.003 -0.353954,-0.26428 -0.521988,-0.46929 -0.808992,-0.77923 -0.06137,-0.0811 -0.122071,-0.16262 -0.184111,-0.24315 -0.0451,-0.0585 -0.0826,-0.12436 -0.1373,-0.17403 -0.3222,-0.29257 -0.70824,-0.71681 -1.16052,-0.87755 z" /><path
           style="opacity:1;fill:#c8ab37;fill-opacity:1;stroke:#00ff0a;stroke-width:0.0799999;stroke-linecap:round;stroke-dasharray:none;stroke-opacity:1;paint-order:markers fill stroke"
           id="path1279"
           d="m -102.0997,178.73918 c 0.0318,-0.003 0.0634,-0.009 0.0953,-0.0105 0.17755,-0.008 0.35154,5.3e-4 0.5295,0.008 0.18414,0.008 0.36833,0.015 0.55228,0.0265 0.47028,0.0293 1.298727,0.0984 1.739896,0.13383 1.565605,0.1141 0.764598,0.0584 2.403075,0.16624 0,0 -0.362394,-0.36791 -0.362394,-0.36791 v 0 c -1.679874,-0.14373 -0.855173,-0.0627 -2.474299,-0.24113 -0.340542,-0.0438 -0.681268,-0.0863 -1.021628,-0.13152 -0.72052,-0.0957 -1.43762,-0.21997 -2.16199,-0.284 z" /><path
           style="opacity:1;fill:#c8ab37;fill-opacity:1;stroke:#0abd11;stroke-width:0.0799999;stroke-linecap:round;stroke-dasharray:none;stroke-opacity:1;paint-order:markers fill stroke"
           id="path1280"
           d="m -96.709374,177.67894 c 0.0016,-0.0358 0.253267,0.17085 0.19518,0.121 -1.053161,-0.90388 -0.286305,-0.16493 0.530746,0.37577 0.293876,0.19448 0.982242,0.40885 1.283153,0.51424 0.26978,0.0703 0.539559,0.14071 0.809339,0.21107 0,0 -0.467521,-0.49302 -0.467521,-0.49302 v 0 c -0.273347,-0.0772 -0.546693,-0.15444 -0.820039,-0.23166 -0.250201,-0.0986 -0.506003,-0.18399 -0.750597,-0.29576 -0.207219,-0.0947 -0.376301,-0.29596 -0.602567,-0.32258 -0.132644,-0.0156 0.388175,0.36559 0.281789,0.28484 -0.352711,-0.2677 -0.639278,-0.63318 -1.033859,-0.8341 -0.03302,-0.0168 -0.06947,-0.0258 -0.104206,-0.0387 z" /><path
           style="opacity:1;fill:#c8ab37;fill-opacity:1;stroke:#00ff0a;stroke-width:0.0799999;stroke-linecap:round;stroke-dasharray:none;stroke-opacity:1;paint-order:markers fill stroke"
           id="path1281"
           d="m -99.968268,179.87536 c 0.275166,-0.45491 0.901737,-0.5414 1.377143,-0.57575 0.33207,-0.024 0.66575,-0.0128 0.998624,-0.0193 1.660184,0.0594 0.823712,0.0166 2.509343,0.12978 0,0 -0.360733,-0.36568 -0.360733,-0.36568 v 0 c -1.71083,-0.11827 -0.852498,-0.0543 -2.57498,-0.19202 -0.361725,-0.0191 -0.723014,-0.0504 -1.085181,-0.0572 -0.264737,-0.005 -0.531259,-0.0106 -0.794057,0.0218 -0.130161,0.016 -0.252481,0.0728 -0.373981,0.12219 -0.17611,0.0716 -0.33618,0.17423 -0.46102,0.31736 z" /><path
           style="opacity:1;fill:#c8ab37;fill-opacity:1;stroke:#00ff0a;stroke-width:0.0799999;stroke-linecap:round;stroke-dasharray:none;stroke-opacity:1;paint-order:markers fill stroke"
           id="path1282"
           d="m -97.220875,176.95958 c 0.417402,-0.0508 0.81869,0.0935 1.20546,0.23065 0.209929,0.0744 0.418894,0.15158 0.628341,0.22737 0.264231,0.10347 0.52846,0.20693 0.792692,0.31039 0,0 -0.452515,-0.48906 -0.452515,-0.48906 v 0 c -0.278045,-0.11816 -0.556088,-0.23632 -0.834133,-0.35448 -0.359085,-0.15655 -0.742678,-0.33907 -1.120971,-0.46252 -0.296315,-0.0967 -0.60453,-0.14035 -0.914633,-0.15811 z" /><path
           style="opacity:1;fill:#c8ab37;fill-opacity:1;stroke:#0abd11;stroke-width:0.0799999;stroke-linecap:round;stroke-dasharray:none;stroke-opacity:1;paint-order:markers fill stroke"
           id="path1283"
           d="m -95.208734,175.06247 c 0.0038,0.0505 -0.0029,0.10293 0.01148,0.15148 0.0674,0.22701 0.187211,0.38862 0.370953,0.5468 0.333484,0.28709 0.672846,0.56981 1.03672,0.81725 0.300159,0.20412 0.836906,0.34256 1.165241,0.44599 0.237455,0.0463 0.474911,0.0926 0.712364,0.13895 0,0 -0.500587,-0.52147 -0.500587,-0.52147 v 0 c -0.239241,-0.0525 -0.47848,-0.10491 -0.717722,-0.15736 -0.219342,-0.0783 -0.444089,-0.14286 -0.658026,-0.2349 -0.186098,-0.0801 -0.338093,-0.25663 -0.5393,-0.28025 -0.111202,-0.013 0.290028,0.33907 0.230804,0.24405 -0.154684,-0.24819 -0.344001,-0.23188 -0.331203,-0.55942 z" /><path
           style="opacity:1;fill:#c8ab37;fill-opacity:1;stroke:#00ff0a;stroke-width:0.0799999;stroke-linecap:round;stroke-dasharray:none;stroke-opacity:1;paint-order:markers fill stroke"
           id="path1284"
           d="m -90.237129,175.84212 c -0.32417,0.0436 -0.628973,0.16524 -0.908836,0.33392 -0.159655,0.0962 -0.309898,0.2073 -0.462999,0.31365 -0.188439,0.13089 -0.374373,0.26535 -0.56156,0.39803 0,0 0.55054,0.49003 0.55054,0.49003 v 0 c 0.199043,-0.12085 0.395351,-0.24632 0.597133,-0.36254 0.453273,-0.26106 0.943443,-0.51704 1.482989,-0.47582 z" /><path
           style="opacity:1;fill:#c8ab37;fill-opacity:1;stroke:#00ff0a;stroke-width:0.0799999;stroke-linecap:round;stroke-dasharray:none;stroke-opacity:1;paint-order:markers fill stroke"
           id="path1285"
           d="m -97.449893,177.70718 c 0.187077,8e-4 0.155676,-0.005 0.395428,0.0333 0.448035,0.071 0.544161,0.10635 1.027695,0.19913 0.473048,0.0908 1.304337,0.23492 1.760222,0.31513 1.304915,0.20568 0.665313,0.10455 1.918811,0.30331 0,0 -0.454003,-0.46741 -0.454003,-0.46741 v 0 c -1.231265,-0.16516 -0.597625,-0.0704 -1.900352,-0.28816 -0.325749,-0.0667 -0.652727,-0.12759 -0.977249,-0.19999 -0.480189,-0.10715 -1.026051,-0.25297 -1.509194,-0.37779 -0.29691,-0.0767 -0.503142,-0.13648 -0.792062,-0.18994 -0.05408,-0.01 -0.109032,-0.0146 -0.163549,-0.0219 z" /><path
           style="opacity:1;fill:#c8ab37;fill-opacity:1;stroke:#00ff0a;stroke-width:0.0799999;stroke-linecap:round;stroke-dasharray:none;stroke-opacity:1;paint-order:markers fill stroke"
           id="path1286"
           d="m -89.931747,176.74469 c -0.532222,0.59455 -1.158647,1.09439 -1.874845,1.45195 -0.260144,0.12988 -0.534258,0.22965 -0.801386,0.34448 -1.06898,0.38705 -2.193221,0.57193 -3.323291,0.65508 -0.209524,0.0154 -0.419656,0.021 -0.629484,0.0315 0,0 0.546598,0.53785 0.546598,0.53785 v 0 c 1.317236,-0.14945 2.637816,-0.32773 3.894196,-0.77304 0.277198,-0.10895 0.559694,-0.2053 0.831596,-0.32687 0.491781,-0.21988 0.846894,-0.43174 1.290446,-0.72277 0.140674,-0.0923 0.274932,-0.19402 0.413124,-0.29 0.224893,-0.15618 0.214611,-0.14812 0.394358,-0.26509 z" /><path
           style="opacity:1;fill:#decd87;fill-opacity:1;stroke:#0abd11;stroke-width:0.0799999;stroke-linecap:round;stroke-dasharray:none;stroke-opacity:1;paint-order:markers fill stroke"
           id="path1291"
           d="m -103.70382,177.99678 c 0.17268,-0.0824 0.47434,-0.1988 0.66595,-0.17132 0.0301,0.004 0.057,0.0214 0.0855,0.0321 0.0175,0.0188 0.0728,0.0725 0.0526,0.0564 -0.22959,-0.18339 -0.45167,-0.37606 -0.68169,-0.5589 -0.0251,-0.0199 0.0418,0.0488 0.0661,0.0696 0.65972,0.56592 0.59858,0.60868 1.14446,0.83483 0.34618,0.14238 0.70911,0.23808 1.05277,0.38725 0.18861,0.0819 0.227,0.10851 0.39995,0.20494 0.0543,0.0366 0.10858,0.0733 0.16287,0.10992 0,0 -0.61653,-0.69143 -0.61653,-0.69143 v 0 c -0.0555,-0.0341 -0.11106,-0.0681 -0.16659,-0.10216 -0.18176,-0.0906 -0.19333,-0.10097 -0.39072,-0.17899 -0.35291,-0.1395 -0.72065,-0.2414 -1.06315,-0.40709 -0.0662,-0.0335 -0.13409,-0.0638 -0.19855,-0.10052 -0.0476,-0.0271 -0.17765,-0.12722 -0.137,-0.0906 0.20627,0.18599 0.42142,0.36191 0.63493,0.53955 0.0232,0.0193 -0.0409,-0.0445 -0.0637,-0.0643 -0.26175,-0.22768 -0.52072,-0.4588 -0.78963,-0.67797 -0.0207,-0.0168 -0.0502,-0.018 -0.0753,-0.027 -0.0322,-0.002 -0.0643,-0.007 -0.0965,-0.005 -0.2398,0.0144 -0.47562,0.12125 -0.7073,0.17685 z" /><path
           style="opacity:1;fill:#decd87;fill-opacity:1;stroke:#0abd11;stroke-width:0.0799999;stroke-linecap:round;stroke-dasharray:none;stroke-opacity:1;paint-order:markers fill stroke"
           id="path1292"
           d="m -102.86521,178.96686 c -1.26363,-1.05162 -0.76882,-0.684 -0.53805,-0.41103 0.0201,0.0237 0.15985,0.19998 0.18113,0.21874 0.27126,0.23915 0.55177,0.4676 0.82765,0.7014 0.0483,0.0176 0.094,0.046 0.14501,0.0529 0.23924,0.0326 0.45612,-0.13543 0.66939,-0.20895 0.0478,-0.0165 0.0984,-0.023 0.14764,-0.0344 0.0471,0.01 0.0969,0.0115 0.14129,0.03 0.0685,0.0286 0.26179,0.171 0.31331,0.20919 0.14962,0.11091 0.29463,0.22252 0.45096,0.32399 0.0475,0.0179 0.0932,0.0418 0.14251,0.0537 0.20738,0.0497 0.51944,-0.0187 0.733221,-0.0466 0,0 -0.681301,-0.66232 -0.681301,-0.66232 v 0 c -0.28072,0.0433 -0.55851,0.10245 -0.81902,-0.0467 -0.14915,-0.0997 -0.29009,-0.2097 -0.43771,-0.31142 -0.1032,-0.0711 -0.23419,-0.1641 -0.3608,-0.19334 -0.0539,-0.0124 -0.11052,-0.003 -0.16578,-0.004 -0.0514,0.0163 -0.10397,0.0292 -0.1542,0.0488 -0.19144,0.0747 -0.40174,0.21691 -0.61846,0.1466 -0.0455,-0.0148 -0.0839,-0.0461 -0.12588,-0.0691 0.19856,0.17012 0.39231,0.34603 0.59568,0.51037 0.0366,0.0296 -0.0644,-0.0688 -0.0943,-0.1052 -0.0283,-0.0344 -0.053,-0.0717 -0.0801,-0.10706 -0.26298,-0.344 -0.50721,-0.53925 -0.92701,-0.83223 z" /><path
           style="opacity:1;fill:#decd87;fill-opacity:1;stroke:#0abd11;stroke-width:0.0799999;stroke-linecap:round;stroke-dasharray:none;stroke-opacity:1;paint-order:markers fill stroke"
           id="path1293"
           d="m -98.117302,177.65078 c 0.01371,-0.003 0.0271,-0.009 0.04113,-0.009 0.0149,2.7e-4 0.02893,0.007 0.04341,0.0105 0.08779,0.0209 0.171673,0.0494 0.258459,0.0733 0.04621,0.0128 0.09336,0.0218 0.140041,0.0328 0.06081,0.009 0.120978,0.028 0.18243,0.0268 0.09091,-0.002 0.180745,-0.0206 0.270486,-0.0352 0.284867,-0.0464 0.573297,-0.1461 0.863865,-0.15049 0.07638,-0.001 0.152011,0.0152 0.228015,0.0229 0.189114,0.0358 0.357804,0.12832 0.536345,0.19479 0.05527,0.0206 0.10936,0.0467 0.167352,0.0574 0.153693,0.0284 0.259029,0.002 0.412451,-0.0184 0.69519,-0.14596 1.406538,-0.15884 2.112563,-0.20593 0.137414,-0.0131 0.27483,-0.0261 0.412247,-0.0391 0,0 -0.603631,-0.59141 -0.603631,-0.59141 v 0 c -0.134091,0.0148 -0.268179,0.0297 -0.40227,0.0445 -0.145473,0.009 -0.290812,0.0208 -0.436422,0.0275 -0.635439,0.029 -0.242777,-0.005 -0.850715,0.0297 -0.311859,0.0178 -0.346342,0.0257 -0.640977,0.0608 -0.08223,0.01 -0.164441,0.0198 -0.246663,0.0296 -0.181994,0.008 -0.220967,0.0242 -0.394438,-0.0197 -0.05629,-0.0142 -0.109525,-0.0386 -0.163933,-0.0589 -0.177909,-0.0663 -0.351992,-0.14345 -0.544042,-0.16004 -0.07763,-8e-4 -0.155549,-0.009 -0.232881,-0.002 -0.08551,0.008 -0.169331,0.0284 -0.253563,0.0449 -0.351692,0.0689 -0.711587,0.16863 -1.066438,0.0569 -0.176255,-0.0541 -0.358862,-0.13945 -0.54664,-0.10816 z" /><path
           style="opacity:1;fill:#decd87;fill-opacity:1;stroke:#0abd11;stroke-width:0.0799999;stroke-linecap:round;stroke-dasharray:none;stroke-opacity:1;paint-order:markers fill stroke"
           id="path1294"
           d="m -100.86135,175.58582 c 0.0415,-0.0929 0.0824,-0.22668 0.18629,-0.27106 0.0475,-0.0203 0.1439,-0.009 0.18754,-0.008 0.521548,0.0429 1.037351,-0.0584 1.549581,-0.14182 0.08343,-5.3e-4 0.167844,-0.0145 0.250302,-0.002 0.251692,0.0389 0.476395,0.21092 0.672385,0.35974 0.06396,0.0486 0.122513,0.10422 0.188172,0.15047 0.05559,0.0392 0.116525,0.0701 0.174789,0.10518 0.05921,0.0117 0.117398,0.0313 0.177636,0.0351 0.112069,0.007 0.338259,-0.0316 0.440362,-0.0421 0.101878,-0.0105 0.203877,-0.0206 0.306165,-0.0257 0.255095,-0.0127 0.470747,-0.006 0.726416,-0.002 0.47471,0.0139 0.240684,0.006 0.702083,0.0227 0,0 -0.614974,-0.61832 -0.614974,-0.61832 v 0 c -0.454996,-0.008 -0.223726,-0.004 -0.693822,-0.0129 -0.179938,-0.003 -0.565169,-0.01 -0.745543,-0.008 -0.108974,0.001 -0.2179,0.005 -0.326819,0.009 -0.129333,0.004 -0.306303,0.0225 -0.439708,-5.3e-4 -0.05159,-0.009 -0.09987,-0.0315 -0.14981,-0.0472 -0.05235,-0.0333 -0.106209,-0.0644 -0.157051,-0.0999 -0.277921,-0.19445 -0.546476,-0.43518 -0.903063,-0.46263 -0.08363,-0.006 -0.167325,0.0121 -0.250986,0.0181 -0.292849,0.0558 -0.584915,0.11206 -0.883745,0.12433 -0.21406,0.009 -0.31351,-0.004 -0.51882,-0.0204 -0.0599,-0.005 -0.11979,-0.0102 -0.17969,-0.0153 -0.1039,0.006 -0.14853,-0.005 -0.2395,0.0474 -0.10802,0.0624 -0.15665,0.18573 -0.22541,0.28249 z" /><path
           style="opacity:1;fill:#decd87;fill-opacity:1;stroke:#00ff0a;stroke-width:0.0799999;stroke-linecap:round;stroke-dasharray:none;stroke-opacity:1;paint-order:markers fill stroke"
           id="path1295"
           d="m -101.90585,177.22983 c 0.15221,-0.0765 0.32601,-0.18292 0.50401,-0.14342 0.0519,0.0115 0.0995,0.0376 0.14923,0.0565 0.22658,0.12262 0.42495,0.29417 0.66582,0.39084 0.18668,0.0749 0.2168,0.0669 0.41941,0.0972 0.182178,0.0395 0.280304,0.0463 0.445478,0.14119 0.07558,0.0434 0.277286,0.21118 0.210879,0.1547 -0.802727,-0.68269 -0.461407,-0.37698 -0.246589,-0.14706 0.06559,0.0702 0.128132,0.14321 0.192196,0.21481 0.419057,0.42504 0.395665,0.41684 1.131644,0.95821 0.125248,0.0921 0.507629,0.23795 0.642546,0.29133 0.156326,0.0619 0.573405,0.22127 0.732149,0.28212 0,0 -0.581636,-0.6256 -0.581636,-0.6256 v 0 c -0.361071,-0.13673 -0.730607,-0.26755 -1.076637,-0.44026 -0.102143,-0.051 -0.354161,-0.26771 -0.298373,-0.16811 0.09113,0.16269 0.271216,0.25636 0.414594,0.37559 0.07466,0.0621 -0.138732,-0.13592 -0.208098,-0.20388 -0.05748,-0.0648 -0.341119,-0.38785 -0.40295,-0.44332 -0.29229,-0.26226 -0.589973,-0.51875 -0.894973,-0.76611 -0.0717,-0.0581 -0.15089,-0.10762 -0.23339,-0.14899 -0.15539,-0.0779 -0.29512,-0.0975 -0.46221,-0.13387 -0.0725,-0.0163 -0.14641,-0.0272 -0.21751,-0.0488 -0.32056,-0.0974 -0.57081,-0.32882 -0.87426,-0.46144 -0.0588,-0.0145 -0.11616,-0.037 -0.17637,-0.0436 -0.19604,-0.0214 -0.36303,0.0915 -0.54877,0.12575 z" /><path
           style="opacity:1;fill:#decd87;fill-opacity:1;stroke:#0abd11;stroke-width:0.0799999;stroke-linecap:round;stroke-dasharray:none;stroke-opacity:1;paint-order:markers fill stroke"
           id="path1296"
           d="m -96.399957,179.25036 c -0.219083,-0.17938 -0.434155,-0.36378 -0.657252,-0.53815 -0.04517,-0.0353 0.08184,0.0803 0.122793,0.12042 0.09305,0.0912 0.160933,0.15928 0.256858,0.24622 0.287911,0.26096 0.684204,0.53086 0.945898,0.72899 0.04229,-0.0249 0.08951,-0.0428 0.12686,-0.0746 0.132972,-0.11322 0.225954,-0.29827 0.333134,-0.43536 0.03085,-0.0395 0.05883,-0.0827 0.09809,-0.11381 0.02672,-0.0212 0.06307,-0.0258 0.09461,-0.0388 0.201805,0.0172 0.350207,0.20554 0.557302,0.1983 0.06848,-0.002 0.135229,-0.0222 0.20284,-0.0333 0,0 -0.65745,-0.64865 -0.65745,-0.64865 v 0 c -0.06759,-0.002 -0.135734,0.003 -0.202766,-0.006 -0.213294,-0.0283 -0.373028,-0.22543 -0.610248,-0.15135 -0.03597,0.0251 -0.07686,0.0444 -0.107924,0.0754 -0.03672,0.0366 -0.06241,0.0829 -0.09281,0.12486 -0.09334,0.12898 -0.183491,0.293 -0.321945,0.38128 -0.02151,0.0137 -0.04922,0.0135 -0.07383,0.0202 0.209513,0.18539 0.420806,0.3688 0.628539,0.55619 0.03852,0.0347 -0.08141,-0.0644 -0.120777,-0.0982 -0.08835,-0.0758 -0.17426,-0.15744 -0.256022,-0.24022 -0.443158,-0.44871 0.580245,0.47286 -0.919689,-0.80479 z" /><path
           style="opacity:1;fill:#decd87;fill-opacity:1;stroke:#0abd11;stroke-width:0.0799999;stroke-linecap:round;stroke-dasharray:none;stroke-opacity:1;paint-order:markers fill stroke"
           id="path1297"
           d="m -93.075328,176.4357 c 0.303694,0.27116 -0.25269,-0.22706 -0.520078,-0.42906 -0.06445,-0.0487 0.114893,0.11369 0.169114,0.17356 0.147436,0.16282 0.278146,0.33986 0.422164,0.50564 0.271304,0.21665 0.516832,0.47027 0.813911,0.64996 0.04118,0.0249 0.0846,-0.0506 0.11385,-0.0888 0.05934,-0.0775 0.119986,-0.28764 0.147905,-0.36894 0.08723,-0.25402 0.05719,-0.17046 0.15272,-0.40998 0.04304,-0.0741 0.103061,-0.29118 0.236728,-0.27258 0.06242,0.009 0.253185,0.15493 0.307345,0.19119 0.130906,0.09 0.266494,0.17262 0.402339,0.25478 0,0 -0.627896,-0.70076 -0.627896,-0.70076 v 0 c -0.136684,-0.0841 -0.271724,-0.17065 -0.404799,-0.26043 -0.11185,-0.0682 -0.245822,-0.17333 -0.38857,-0.13497 -0.14863,0.04 -0.19382,0.2409 -0.249782,0.35462 -0.07315,0.19848 -0.138232,0.40508 -0.23209,0.59512 -0.01937,0.0392 -0.0406,0.0781 -0.06789,0.11227 -0.0082,0.0103 -0.04508,0.008 -0.03558,0.0173 0.200223,0.19297 0.417237,0.36772 0.625858,0.55158 -0.04407,-0.0443 -0.09068,-0.0862 -0.132201,-0.13284 -0.04589,-0.0516 -0.268248,-0.33377 -0.308213,-0.38262 -0.04692,-0.0574 -0.0879,-0.12069 -0.143108,-0.17011 -0.274818,-0.24603 -0.560859,-0.47925 -0.844992,-0.71445 -0.03041,-0.0252 -0.06543,-0.0442 -0.09814,-0.0663 z" /><path
           style="opacity:1;fill:#decd87;fill-opacity:1;stroke:#0abd11;stroke-width:0.0799999;stroke-linecap:round;stroke-dasharray:none;stroke-opacity:1;paint-order:markers fill stroke"
           id="path1298"
           d="m -92.642043,180.32793 c 0.353052,0.004 0.703622,0.0705 1.056169,0.067 0.03144,-0.0139 0.07062,-0.0169 0.09433,-0.0418 0.124208,-0.13048 -0.03192,-0.362 -0.06727,-0.49811 -0.008,-0.031 -0.0076,-0.0635 -0.01143,-0.0953 0.02561,-0.0196 0.04835,-0.0437 0.07682,-0.0588 0.08862,-0.0471 0.294315,-0.11738 0.38022,-0.14984 0.144957,-0.0548 0.293007,-0.1101 0.431316,-0.18079 0.06285,-0.0321 0.122195,-0.0707 0.183295,-0.10605 0.05227,-0.0389 0.10455,-0.0778 0.156824,-0.11672 0,0 -0.697955,-0.61267 -0.697955,-0.61267 v 0 c -0.04846,0.0376 -0.09692,0.0753 -0.145386,0.11291 -0.05668,0.0348 -0.111204,0.0733 -0.170034,0.1043 -0.133528,0.0703 -0.28397,0.12501 -0.425741,0.17492 -0.05714,0.0201 -0.369084,0.11894 -0.426697,0.15201 -0.05401,0.031 -0.09465,0.081 -0.141972,0.12146 5.29e-4,0.0412 -0.0067,0.0832 0.0013,0.12365 0.0085,0.0429 0.03174,0.0815 0.04753,0.12236 0.01577,0.0407 0.03117,0.0816 0.04712,0.12222 0.0045,0.0114 0.05195,0.11888 0.04536,0.13037 -0.0097,0.0169 -0.03368,0.0195 -0.05052,0.0293 -0.04239,0.004 -0.08461,0.0122 -0.12717,0.0117 -0.06969,-0.001 -0.139067,-0.01 -0.208473,-0.0162 -0.249293,-0.023 -0.497218,-0.0575 -0.744953,-0.0931 z" /><path
           style="opacity:1;fill:#decd87;fill-opacity:1;stroke:#0abd11;stroke-width:0.0799999;stroke-linecap:round;stroke-dasharray:none;stroke-opacity:1;paint-order:markers fill stroke"
           id="path1299"
           d="m -91.183591,179.7759 c 0.08589,0.30377 0.165962,0.61441 0.320463,0.89183 0.267909,0.20384 0.509342,0.44823 0.803722,0.61153 0.0423,0.0235 0.05975,-0.0778 0.07719,-0.12288 0.02886,-0.0746 0.04266,-0.25572 0.05037,-0.33196 0.02093,-0.20691 0.005,-0.0966 0.03732,-0.28233 0.06179,-0.24765 0.139269,-0.19119 0.350134,-0.21878 0.03954,-0.005 0.07796,-0.0168 0.116943,-0.0252 0.135128,-0.099 0.0782,-0.0383 0.169291,-0.18323 0,0 -0.744103,-0.60519 -0.744103,-0.60519 v 0 c -0.05896,0.1027 -0.01977,0.0617 -0.115808,0.12477 -0.266108,0.0496 -0.475443,0.008 -0.53621,0.33741 -0.02109,0.14952 -0.02154,0.3026 -0.04739,0.45116 -0.0074,0.0425 -0.02101,0.0837 -0.0325,0.12521 -0.003,0.0108 -0.01902,0.0241 -0.01085,0.0317 0.223435,0.20767 0.460507,0.40017 0.690763,0.60025 -0.02793,-0.0301 -0.06153,-0.0558 -0.0838,-0.0903 -0.0329,-0.0509 -0.05612,-0.10763 -0.08001,-0.16335 -0.07985,-0.18626 -0.131482,-0.38224 -0.156718,-0.5831 z" /><path
           style="opacity:1;fill:#decd87;fill-opacity:1;stroke:#0abd11;stroke-width:0.0799999;stroke-linecap:round;stroke-dasharray:none;stroke-opacity:1;paint-order:markers fill stroke"
           id="path1300"
           d="m -89.576999,179.2382 c 0.145743,0.065 -0.0053,-0.001 0.185685,0.0784 0.107164,0.0448 0.152434,0.0908 0.274944,0.0409 0.142111,-0.0579 0.159835,-0.1538 0.227423,-0.28109 0.02252,-0.0787 0.04793,-0.15669 0.06756,-0.23619 0.01982,-0.0803 0.03043,-0.16268 0.05072,-0.24285 0.04868,-0.19224 0.120127,-0.37132 0.240861,-0.52862 0.07635,-0.085 0.09751,-0.19765 0.126947,-0.30428 0,0 -0.75897,-0.5823 -0.75897,-0.5823 v 0 c -0.02514,0.0976 -0.04682,0.19449 -0.111387,0.27523 -0.113001,0.18397 -0.172625,0.38108 -0.221144,0.5911 -0.01791,0.0775 -0.02807,0.15683 -0.04864,0.23369 -0.01902,0.0711 -0.04662,0.13954 -0.06993,0.20931 -0.04889,0.081 -0.07339,0.17094 -0.177731,0.19404 -0.131292,0.0291 -0.332044,-0.12381 -0.450961,-0.17664 z" /><path
           style="opacity:1;fill:#decd87;fill-opacity:1;stroke:#0abd11;stroke-width:0.0799999;stroke-linecap:round;stroke-dasharray:none;stroke-opacity:1;paint-order:markers fill stroke"
           id="path1301"
           d="m -105.58497,177.81643 c 0.21924,0.0432 0.42167,0.14632 0.62133,0.24307 0.16308,0.079 0.0784,0.0669 0.21828,0.0645 0.0903,-0.14766 0.0472,-0.18175 0.004,-0.32843 -0.009,-0.029 -0.0372,-0.10078 -0.009,-0.0903 0.018,0.007 0.0305,0.0231 0.0458,0.0347 0.18988,0.042 0.38109,0.10207 0.56916,0.0152 0.10363,-0.0479 0.15481,-0.10971 0.23394,-0.18644 0,0 -0.72216,-0.61782 -0.72216,-0.61782 v 0 c -0.0673,0.0674 -0.10302,0.11712 -0.19603,0.1523 -0.18859,0.0713 -0.38189,-0.0291 -0.56949,-0.0487 -0.0411,0.0112 -0.088,0.01 -0.12338,0.0336 -0.0898,0.0603 -0.0204,0.19095 0.008,0.25923 0.0102,0.0245 0.0153,0.0525 0.0325,0.0728 0.009,0.0102 0.0255,0.007 0.0383,0.0111 -0.0803,-0.0108 -0.0322,-7.9e-4 -0.1574,-0.0562 -0.21973,-0.0974 -0.43712,-0.20483 -0.67197,-0.26189 z" /><path
           style="opacity:1;fill:#decd87;fill-opacity:1;stroke:#0abd11;stroke-width:0.0799999;stroke-linecap:round;stroke-dasharray:none;stroke-opacity:1;paint-order:markers fill stroke"
           id="path1302"
           d="m -102.42885,175.23641 c 0.18304,0.26364 0.35959,0.52956 0.56424,0.77732 0.28917,0.288 0.37072,0.37928 0.92592,0.66618 0.0404,0.0209 0.0625,-0.0663 0.0959,-0.0973 0.0983,-0.0913 0.15046,-0.0931 0.27994,-0.10468 0.13793,0.0219 0.22931,-0.0412 0.33662,-0.11593 0,0 -0.7149,-0.63629 -0.7149,-0.63629 v 0 c -0.11534,0.0703 -0.16726,0.0875 -0.30691,0.0861 -0.16364,0.0306 -0.19567,0.0383 -0.32427,0.14402 -0.0179,0.0147 -0.07,0.0273 -0.0539,0.044 0.20489,0.21365 0.44451,0.3911 0.66285,0.59098 0.0328,0.03 -0.0705,-0.054 -0.10583,-0.0811 -0.2042,-0.2315 -0.38356,-0.48146 -0.5373,-0.74949 z" /><path
           style="opacity:1;fill:#decd87;fill-opacity:1;stroke:#0abd11;stroke-width:0.0799999;stroke-linecap:round;stroke-dasharray:none;stroke-opacity:1;paint-order:markers fill stroke"
           id="path1303"
           d="m -96.734756,176.28421 c 0.09983,0.0673 0.203375,0.12812 0.309235,0.18531 0,0 -0.646123,-0.71547 -0.646123,-0.71547 v 0 c -0.112263,-0.0647 -0.219655,-0.13781 -0.335688,-0.19565 z" /><path
           style="opacity:1;fill:#decd87;fill-opacity:1;stroke:#0abd11;stroke-width:0.0799999;stroke-linecap:round;stroke-dasharray:none;stroke-opacity:1;paint-order:markers fill stroke"
           id="path1304"
           d="m -95.881657,176.20184 c 0.156027,0.0984 0.311417,0.21139 0.483118,0.28208 0.04385,0.018 0.09073,0.0276 0.136102,0.0414 0,0 -0.649129,-0.69313 -0.649129,-0.69313 v 0 c -0.03975,-0.0151 -0.08074,-0.0274 -0.119258,-0.0454 -0.181401,-0.0849 -0.340815,-0.20889 -0.512241,-0.31078 z" /><path
           style="opacity:1;fill:#decd87;fill-opacity:1;stroke:#0abd11;stroke-width:0.0799999;stroke-linecap:round;stroke-dasharray:none;stroke-opacity:1;paint-order:markers fill stroke"
           id="path1305"
           d="m -99.490097,176.99949 c 0.18021,0.10847 0.355036,0.22561 0.535656,0.33341 0.0481,0.0287 0.09438,0.0612 0.145503,0.0841 0.04563,0.0204 0.09536,0.0301 0.143041,0.0452 0.04778,-0.002 0.09709,0.006 0.143341,-0.006 0.182565,-0.0481 0.29564,-0.21968 0.407972,-0.35539 0.155151,-0.18743 0.0752,-0.10786 0.247134,-0.25169 0.04385,-0.0105 0.08648,-0.0305 0.131561,-0.0314 0.136403,-0.003 0.271021,0.0808 0.392525,0.12966 0.03677,0.0148 0.07479,0.0262 0.112194,0.0394 0,0 -0.653698,-0.69951 -0.653698,-0.69951 v 0 c -0.168063,-0.0593 -0.356039,-0.15359 -0.540086,-0.11493 -0.05363,0.0113 -0.100827,0.043 -0.151241,0.0645 -0.04252,0.0402 -0.08785,0.0776 -0.127569,0.12056 -0.136684,0.14782 -0.2643,0.39967 -0.489929,0.42489 -0.03938,0.004 -0.07886,-0.008 -0.118287,-0.0119 -0.04164,-0.0169 -0.08468,-0.0307 -0.124939,-0.0507 -0.251621,-0.12494 -0.471852,-0.30653 -0.711811,-0.45079 z" /><path
           style="opacity:1;fill:#decd87;fill-opacity:1;stroke:#0abd11;stroke-width:0.0799999;stroke-linecap:round;stroke-dasharray:none;stroke-opacity:1;paint-order:markers fill stroke"
           id="path1306"
           d="m -95.150666,176.1077 c 0.02003,0.0175 0.08054,0.0694 0.06011,0.0524 -0.618556,-0.51418 -0.801217,-0.67624 -0.414854,-0.3408 0.186352,0.16179 0.369845,0.32641 0.553437,0.49131 0.01752,0.0137 0.64779,0.91524 0.975135,0.58619 0.05717,-0.0575 0.120248,-0.24191 0.149699,-0.31242 0.07225,-0.17299 0.04933,-0.12251 0.139189,-0.27606 0.08754,-0.0977 0.1861,-0.11866 0.310999,-0.13525 0.05313,-0.007 0.110104,0.003 0.15983,-0.0174 0.0937,-0.0377 0.469125,-0.29027 0.537109,-0.33482 0,0 -0.649414,-0.58195 -0.649414,-0.58195 v 0 c -0.222179,0.12555 -0.3145,0.19937 -0.556871,0.26079 -0.05651,0.0143 -0.116528,0.007 -0.174157,0.016 -0.153109,0.0234 -0.264649,0.075 -0.361037,0.19939 -0.02532,0.0456 -0.053,0.0901 -0.07595,0.13693 -0.173032,0.35332 0.04089,-0.0468 -0.130495,0.29869 -0.01656,0.0334 -0.0293,0.0707 -0.05588,0.0969 -0.0155,0.0152 -0.07737,0.004 -0.0623,0.0193 0.179711,0.1868 0.386424,0.3456 0.579634,0.5184 -0.545285,-0.47391 -1.066451,-0.97846 -1.644425,-1.41331 z" /></g><path
         style="opacity:1;fill:#ffffff;fill-opacity:1;stroke:#ffffff;stroke-width:0.12;stroke-linecap:round;stroke-dasharray:none;stroke-opacity:1;paint-order:markers fill stroke"
         id="path1382"
         d="m -104.41873,189.56313 c 0.0223,-0.0128 0.0457,-0.0239 0.0668,-0.0385 0.18678,-0.12907 0.3589,-0.28221 0.54001,-0.4187 0.32101,-0.24193 0.38868,-0.28315 0.73476,-0.52264 0.67452,-0.44614 1.31985,-0.93356 1.96879,-1.41548 -0.27952,-0.21114 0.32212,-0.0587 0.24821,-0.11121 -0.13658,-0.097 -0.27527,-0.21584 -0.44084,-0.2415 -0.0567,-0.009 0.004,0.11573 -0.007,0.17206 -0.0425,0.21632 -0.12942,0.38277 -0.21693,0.58549 -0.26968,0.60186 -0.74357,1.07186 -1.0931,1.62179 -0.0908,0.25613 -0.11656,0.24344 0.51696,0.39869 0.0694,0.017 0.10562,-0.0964 0.15912,-0.14379 0.1081,-0.0958 0.21448,-0.19365 0.32566,-0.28584 0.34504,-0.28611 0.62401,-0.48806 0.98656,-0.76034 0.45903,-0.33389 0.922396,-0.66279 1.401126,-0.96808 0.09642,-0.0615 0.397144,-0.25425 0.533145,-0.29942 0.04268,-0.0142 0.08978,-0.006 0.134665,-0.008 -0.145402,-0.0795 -0.270486,-0.23728 -0.436205,-0.23855 -0.08436,-5.3e-4 -0.05353,0.16115 -0.0952,0.2345 -0.0713,0.12547 -0.157115,0.24229 -0.242025,0.35898 -0.29458,0.40486 -0.62347,0.78613 -0.943296,1.17093 -0.19228,0.24268 -0.40955,0.46952 -0.57529,0.73266 -0.026,0.0413 -0.05,0.0842 -0.0681,0.12949 -0.009,0.0221 -0.0312,0.0564 -0.012,0.0704 0.17101,0.12453 0.36539,0.21332 0.54809,0.31998 0.0436,-0.0384 0.0896,-0.0743 0.1309,-0.11521 0.15458,-0.153 0.293496,-0.32113 0.444966,-0.47721 0.10745,-0.11073 0.21601,-0.2205 0.3283,-0.32634 0.386193,-0.36399 0.427833,-0.38178 0.854429,-0.72062 0.471371,-0.34345 0.961895,-0.66092 1.467713,-0.95127 0.143682,-0.0825 0.540699,-0.31087 0.732967,-0.35898 0.06299,-0.0158 0.129826,0.003 0.194738,0.004 -0.13544,-0.0625 -0.259709,-0.21498 -0.406323,-0.1875 -0.09228,0.0173 -0.02909,0.18665 -0.06072,0.27505 -0.04893,0.13674 -0.113533,0.26763 -0.179726,0.3969 -0.08119,0.15854 -0.17222,0.31188 -0.261996,0.46572 -0.0481,0.0824 -0.554773,0.91779 -0.603848,0.99877 -0.212542,0.37663 -0.470874,0.73836 -0.620519,1.14805 -0.0047,0.0129 -0.111821,0.27967 -0.01775,0.33544 0.200242,0.11874 0.42485,0.19049 0.637273,0.28574 0.08834,-0.0552 0.179686,-0.1058 0.265025,-0.1655 0.251063,-0.17566 0.526503,-0.4063 0.753623,-0.60609 0.453938,-0.39931 0.884468,-0.82506 1.321057,-1.24297 0.327504,-0.2956 0.647912,-0.59959 0.987581,-0.88146 0.06002,-0.0498 0.118041,-0.10277 0.183518,-0.14514 0.02588,-0.0168 0.112445,-0.0122 0.08741,-0.0302 -0.153776,-0.11048 -0.334195,-0.17811 -0.501293,-0.26716 -0.42737,0.7148 -0.959178,1.35924 -1.467003,2.01703 -0.14324,0.2274 -0.373811,0.45232 -0.404638,0.7363 -0.03241,0.29858 0.374936,0.44202 0.578805,0.53394 0.05924,0.0267 0.124394,-0.0377 0.18659,-0.0565 0.08236,-0.0533 0.168542,-0.10109 0.247097,-0.15984 0.134133,-0.10032 0.258667,-0.2129 0.390107,-0.31672 0.166531,-0.13154 0.334399,-0.26141 0.503745,-0.3893 0.531397,-0.40131 1.076053,-0.78355 1.621761,-1.16495 0.09467,-0.0642 0.577943,-0.39701 0.714296,-0.47244 0.06258,-0.0346 0.12737,-0.0716 0.198059,-0.0825 0.02445,-0.004 0.08347,0.0523 0.06069,0.0427 -0.613601,-0.2594 -0.3976,-0.39443 -0.685932,-0.0106 -0.298532,0.34856 -0.602951,0.692 -0.904584,1.03787 -0.12396,0.14214 -0.422871,0.48151 -0.549042,0.64103 -0.06183,0.0782 -0.117677,0.16091 -0.176515,0.24137 -0.05063,0.0898 -0.14415,0.22475 -0.154826,0.33904 -0.02146,0.22962 0.489199,0.41102 0.596104,0.45132 0.05703,0.0215 0.115808,-0.0406 0.168124,-0.0719 0.07815,-0.0467 0.147264,-0.10708 0.220895,-0.16062 0.763818,-0.69818 1.577557,-1.33765 2.392643,-1.9742 0.59595,-0.45068 0.302779,-0.2356 0.878539,-0.64657 0,0 -0.386115,-0.28962 -0.386115,-0.28962 v 0 c -0.561954,0.42398 -0.27355,0.2046 -0.864894,0.65854 -0.455758,0.35589 -0.914953,0.7075 -1.367877,1.06699 -0.262549,0.20839 -0.520282,0.42281 -0.783275,0.63064 -0.09831,0.0777 -0.198736,0.15265 -0.298106,0.22896 -0.07651,0.0454 -0.148426,0.0996 -0.229537,0.13611 -0.05046,0.0227 -0.188716,-0.008 -0.161171,0.0398 0.07945,0.13843 0.236556,0.21489 0.363136,0.31212 0.02421,0.0186 -0.04978,-0.044 -0.05352,-0.0743 -0.01257,-0.10177 0.08249,-0.26765 0.116231,-0.34164 0.0526,-0.0832 0.100963,-0.16916 0.15779,-0.24949 0.13898,-0.19648 0.374936,-0.47779 0.527111,-0.65392 0.30149,-0.34894 0.616709,-0.68587 0.943588,-1.01113 0.325292,-0.34226 0.308047,-0.18189 -0.184142,-0.69138 -0.01452,-0.0151 -0.04322,0.001 -0.06185,0.0106 -0.061,0.0311 -0.117692,0.0703 -0.173765,0.10963 -0.09889,0.0693 -0.194175,0.1437 -0.29082,0.21614 -0.127791,0.0958 -0.254992,0.19236 -0.382489,0.28855 -0.532339,0.39887 -1.069409,0.78888 -1.613488,1.17164 -0.211685,0.14892 -0.710215,0.50518 -0.954341,0.65331 -0.08178,0.0496 -0.170233,0.0873 -0.25535,0.13096 -0.250219,0.0259 -0.404084,5.3e-4 0.177049,0.30297 0.03963,0.0206 -0.04283,-0.0818 -0.04448,-0.12643 -0.01037,-0.28092 0.221345,-0.52414 0.346279,-0.74899 0.49199,-0.67743 1.014976,-1.33184 1.543444,-1.98106 -0.147537,-0.13645 -0.276871,-0.29571 -0.442611,-0.40936 -0.02484,-0.017 -0.04672,0.0381 -0.06854,0.0589 -0.05539,0.0527 -0.108411,0.10779 -0.162976,0.16131 -0.312772,0.30684 -0.626697,0.61253 -0.942803,0.91594 -0.432361,0.42251 -0.862473,0.84684 -1.329796,1.2314 -0.236138,0.19431 -0.520271,0.41326 -0.788659,0.56819 -0.08895,0.0513 -0.185645,0.0879 -0.278469,0.13191 0.09947,0.11495 0.198546,0.23023 0.298405,0.34484 0.02678,0.0307 -0.07296,-0.0529 -0.07916,-0.0932 -0.01151,-0.0748 0.01077,-0.15193 0.03019,-0.2251 0.111993,-0.42204 0.359026,-0.79749 0.568198,-1.17386 0.511313,-0.84302 0.09164,-0.15722 0.613347,-0.99289 0.149698,-0.23979 0.36867,-0.5792 0.494008,-0.84208 0.04443,-0.0932 0.160057,-0.19888 0.110366,-0.28938 -0.109601,-0.1996 -0.343628,-0.29887 -0.515443,-0.44831 -0.06005,0.0109 -0.123311,0.0104 -0.180144,0.0326 -0.164875,0.0645 -0.577834,0.32099 -0.697039,0.39369 -0.498579,0.3041 -0.992733,0.61642 -1.465551,0.95971 -0.446595,0.34221 -0.468515,0.34664 -0.879555,0.708 -0.11714,0.10297 -0.230966,0.20965 -0.345156,0.31588 -0.0995,0.0926 -0.35408,0.34355 -0.47965,0.44199 -0.041,0.0321 -0.0882,0.0555 -0.1323,0.0833 0.13467,0.1175 0.2619,0.24413 0.40403,0.35248 0.016,0.0122 -0.0207,-0.0379 -0.0175,-0.0578 0.007,-0.0465 0.0272,-0.0906 0.048,-0.13291 0.13613,-0.27744 0.34692,-0.51171 0.526076,-0.76007 0.31198,-0.39388 0.63245,-0.77977 0.950744,-1.16848 0.09341,-0.11408 0.190664,-0.22532 0.277148,-0.34474 0.05851,-0.0808 0.204002,-0.16676 0.157006,-0.25474 -0.102287,-0.19151 -0.339785,-0.27037 -0.50968,-0.40555 -0.04168,0.013 -0.08604,0.0195 -0.125029,0.0391 -0.133739,0.0675 -0.393649,0.25947 -0.496619,0.33381 -0.456686,0.32972 -0.905946,0.6696 -1.364146,0.99725 -0.46555,0.3282 -0.92607,0.66471 -1.39824,0.98342 -0.0558,0.0377 -0.19932,0.0486 -0.16989,0.1091 0.43659,0.89763 0.402,0.46313 0.39542,0.28165 0.0285,-0.056 0.0531,-0.11418 0.0856,-0.16793 0.0604,-0.0998 0.28813,-0.41521 0.34357,-0.49298 0.17674,-0.24795 0.27982,-0.38341 0.44068,-0.64503 0.0685,-0.11147 0.13043,-0.22687 0.19565,-0.3403 0.099,-0.20186 0.18992,-0.36539 0.25798,-0.57791 0.0196,-0.0611 0.0811,-0.1379 0.0412,-0.18819 -0.15621,-0.19667 -0.36844,-0.52188 -0.60501,-0.36963 -0.0518,0.0334 -0.0963,0.0769 -0.1445,0.11537 -0.6196,0.50943 -1.23494,1.02653 -1.92152,1.44619 -0.32281,0.20802 -0.45864,0.29337 -0.7678,0.50033 -0.18681,0.12507 -0.37387,0.2761 -0.57752,0.37558 -0.0209,0.0102 -0.0443,0.0145 -0.0664,0.0217 z" /><g
         id="g1382"
         transform="matrix(0.47555803,-0.40448543,0.40448543,0.47555803,-130.48936,58.998262)"><circle
           id="path1341"
           style="fill:#ffffff;stroke:#010401;stroke-width:0.264583"
           cx="-99.484398"
           cy="187.27576"
           r="0.00047105772" /><g
           id="g1347"
           transform="matrix(0.26379603,0,0,0.26379603,-75.230932,140.36074)"><path
             style="opacity:1;fill:#ffffff;fill-opacity:1;stroke:#000000;stroke-width:0.12;stroke-linecap:round;stroke-dasharray:none;stroke-opacity:1;paint-order:markers fill stroke"
             d="m -101.30851,175.53594 -1.54348,3.55468 2.899869,2.5257 2.759559,-2.5257 -0.187089,-2.52569 -2.478924,-0.8419 z"
             id="path1345" /><path
             style="opacity:1;fill:#ffffff;fill-opacity:1;stroke:#000000;stroke-width:0.12;stroke-linecap:round;stroke-dasharray:none;stroke-opacity:1;paint-order:markers fill stroke"
             d="m -100.51339,176.93911 0.748359,-0.23387 0.420949,0.65482 1.169305,0.0935 -0.280633,0.60804"
             id="path1346" /><path
             style="opacity:1;fill:#ffffff;fill-opacity:1;stroke:#000000;stroke-width:0.12;stroke-linecap:round;stroke-dasharray:none;stroke-opacity:1;paint-order:markers fill stroke"
             d="m -99.390855,178.57613 0.748356,0.88867 -0.888672,0.46772 -0.46772,0.5145"
             id="path1347" /></g><g
           id="g1350"
           transform="matrix(-0.31611692,0.20446886,-0.20446886,-0.31611692,-95.134104,266.64471)"><path
             style="opacity:1;fill:#ffffff;fill-opacity:1;stroke:#000000;stroke-width:0.12;stroke-linecap:round;stroke-dasharray:none;stroke-opacity:1;paint-order:markers fill stroke"
             d="m -101.30851,175.53594 -1.54348,3.55468 2.899869,2.5257 2.759559,-2.5257 -0.187089,-2.52569 -2.478924,-0.8419 z"
             id="path1348" /><path
             style="opacity:1;fill:#ffffff;fill-opacity:1;stroke:#000000;stroke-width:0.12;stroke-linecap:round;stroke-dasharray:none;stroke-opacity:1;paint-order:markers fill stroke"
             d="m -100.51339,176.93911 0.748359,-0.23387 0.420949,0.65482 1.169305,0.0935 -0.280633,0.60804"
             id="path1349" /><path
             style="opacity:1;fill:#ffffff;fill-opacity:1;stroke:#000000;stroke-width:0.12;stroke-linecap:round;stroke-dasharray:none;stroke-opacity:1;paint-order:markers fill stroke"
             d="m -99.390855,178.57613 0.748356,0.88867 -0.888672,0.46772 -0.46772,0.5145"
             id="path1350" /></g><g
           id="g1353"
           transform="matrix(0.37648031,0,0,0.37648031,-57.973524,120.40086)"><path
             style="opacity:1;fill:#ffffff;fill-opacity:1;stroke:#000000;stroke-width:0.12;stroke-linecap:round;stroke-dasharray:none;stroke-opacity:1;paint-order:markers fill stroke"
             d="m -101.30851,175.53594 -1.54348,3.55468 2.899869,2.5257 2.759559,-2.5257 -0.187089,-2.52569 -2.478924,-0.8419 z"
             id="path1351" /><path
             style="opacity:1;fill:#ffffff;fill-opacity:1;stroke:#000000;stroke-width:0.12;stroke-linecap:round;stroke-dasharray:none;stroke-opacity:1;paint-order:markers fill stroke"
             d="m -100.51339,176.93911 0.748359,-0.23387 0.420949,0.65482 1.169305,0.0935 -0.280633,0.60804"
             id="path1352" /><path
             style="opacity:1;fill:#ffffff;fill-opacity:1;stroke:#000000;stroke-width:0.12;stroke-linecap:round;stroke-dasharray:none;stroke-opacity:1;paint-order:markers fill stroke"
             d="m -99.390855,178.57613 0.748356,0.88867 -0.888672,0.46772 -0.46772,0.5145"
             id="path1353" /></g><g
           id="g1356"
           transform="matrix(0.02889316,-0.26220894,0.26220894,0.02889316,-146.30229,158.00011)"><path
             style="opacity:1;fill:#ffffff;fill-opacity:1;stroke:#000000;stroke-width:0.12;stroke-linecap:round;stroke-dasharray:none;stroke-opacity:1;paint-order:markers fill stroke"
             d="m -101.30851,175.53594 -1.54348,3.55468 2.899869,2.5257 2.759559,-2.5257 -0.187089,-2.52569 -2.478924,-0.8419 z"
             id="path1354" /><path
             style="opacity:1;fill:#ffffff;fill-opacity:1;stroke:#000000;stroke-width:0.12;stroke-linecap:round;stroke-dasharray:none;stroke-opacity:1;paint-order:markers fill stroke"
             d="m -100.51339,176.93911 0.748359,-0.23387 0.420949,0.65482 1.169305,0.0935 -0.280633,0.60804"
             id="path1355" /><path
             style="opacity:1;fill:#ffffff;fill-opacity:1;stroke:#000000;stroke-width:0.12;stroke-linecap:round;stroke-dasharray:none;stroke-opacity:1;paint-order:markers fill stroke"
             d="m -99.390855,178.57613 0.748356,0.88867 -0.888672,0.46772 -0.46772,0.5145"
             id="path1356" /></g><g
           id="g1359"
           transform="matrix(0.26379603,0,0,0.26379603,-72.237513,140.96878)"><path
             style="opacity:1;fill:#ffffff;fill-opacity:1;stroke:#000000;stroke-width:0.12;stroke-linecap:round;stroke-dasharray:none;stroke-opacity:1;paint-order:markers fill stroke"
             d="m -101.30851,175.53594 -1.54348,3.55468 2.899869,2.5257 2.759559,-2.5257 -0.187089,-2.52569 -2.478924,-0.8419 z"
             id="path1357" /><path
             style="opacity:1;fill:#ffffff;fill-opacity:1;stroke:#000000;stroke-width:0.12;stroke-linecap:round;stroke-dasharray:none;stroke-opacity:1;paint-order:markers fill stroke"
             d="m -100.51339,176.93911 0.748359,-0.23387 0.420949,0.65482 1.169305,0.0935 -0.280633,0.60804"
             id="path1358" /><path
             style="opacity:1;fill:#ffffff;fill-opacity:1;stroke:#000000;stroke-width:0.12;stroke-linecap:round;stroke-dasharray:none;stroke-opacity:1;paint-order:markers fill stroke"
             d="m -99.390855,178.57613 0.748356,0.88867 -0.888672,0.46772 -0.46772,0.5145"
             id="path1359" /></g><g
           id="g1362"
           transform="matrix(0.26379603,0,0,0.26379603,-72.034374,142.25101)"><path
             style="opacity:1;fill:#ffffff;fill-opacity:1;stroke:#000000;stroke-width:0.12;stroke-linecap:round;stroke-dasharray:none;stroke-opacity:1;paint-order:markers fill stroke"
             d="m -101.30851,175.53594 -1.54348,3.55468 2.899869,2.5257 2.759559,-2.5257 -0.187089,-2.52569 -2.478924,-0.8419 z"
             id="path1360" /><path
             style="opacity:1;fill:#ffffff;fill-opacity:1;stroke:#000000;stroke-width:0.12;stroke-linecap:round;stroke-dasharray:none;stroke-opacity:1;paint-order:markers fill stroke"
             d="m -100.51339,176.93911 0.748359,-0.23387 0.420949,0.65482 1.169305,0.0935 -0.280633,0.60804"
             id="path1361" /><path
             style="opacity:1;fill:#ffffff;fill-opacity:1;stroke:#000000;stroke-width:0.12;stroke-linecap:round;stroke-dasharray:none;stroke-opacity:1;paint-order:markers fill stroke"
             d="m -99.390855,178.57613 0.748356,0.88867 -0.888672,0.46772 -0.46772,0.5145"
             id="path1362" /></g><g
           id="g1365"
           transform="matrix(0.26379603,0,0,0.26379603,-69.80536,142.55904)"><path
             style="opacity:1;fill:#ffffff;fill-opacity:1;stroke:#000000;stroke-width:0.12;stroke-linecap:round;stroke-dasharray:none;stroke-opacity:1;paint-order:markers fill stroke"
             d="m -101.30851,175.53594 -1.54348,3.55468 2.899869,2.5257 2.759559,-2.5257 -0.187089,-2.52569 -2.478924,-0.8419 z"
             id="path1363" /><path
             style="opacity:1;fill:#ffffff;fill-opacity:1;stroke:#000000;stroke-width:0.12;stroke-linecap:round;stroke-dasharray:none;stroke-opacity:1;paint-order:markers fill stroke"
             d="m -100.51339,176.93911 0.748359,-0.23387 0.420949,0.65482 1.169305,0.0935 -0.280633,0.60804"
             id="path1364" /><path
             style="opacity:1;fill:#ffffff;fill-opacity:1;stroke:#000000;stroke-width:0.12;stroke-linecap:round;stroke-dasharray:none;stroke-opacity:1;paint-order:markers fill stroke"
             d="m -99.390855,178.57613 0.748356,0.88867 -0.888672,0.46772 -0.46772,0.5145"
             id="path1365" /></g><g
           id="g1368"
           transform="matrix(0.26379603,0,0,0.26379603,-68.074789,141.57682)"><path
             style="opacity:1;fill:#ffffff;fill-opacity:1;stroke:#000000;stroke-width:0.12;stroke-linecap:round;stroke-dasharray:none;stroke-opacity:1;paint-order:markers fill stroke"
             d="m -101.30851,175.53594 -1.54348,3.55468 2.899869,2.5257 2.759559,-2.5257 -0.187089,-2.52569 -2.478924,-0.8419 z"
             id="path1366" /><path
             style="opacity:1;fill:#ffffff;fill-opacity:1;stroke:#000000;stroke-width:0.12;stroke-linecap:round;stroke-dasharray:none;stroke-opacity:1;paint-order:markers fill stroke"
             d="m -100.51339,176.93911 0.748359,-0.23387 0.420949,0.65482 1.169305,0.0935 -0.280633,0.60804"
             id="path1367" /><path
             style="opacity:1;fill:#ffffff;fill-opacity:1;stroke:#000000;stroke-width:0.12;stroke-linecap:round;stroke-dasharray:none;stroke-opacity:1;paint-order:markers fill stroke"
             d="m -99.390855,178.57613 0.748356,0.88867 -0.888672,0.46772 -0.46772,0.5145"
             id="path1368" /></g><g
           id="g1371"
           transform="matrix(0.26379603,0,0,0.26379603,-68.30865,142.93321)"><path
             style="opacity:1;fill:#ffffff;fill-opacity:1;stroke:#000000;stroke-width:0.12;stroke-linecap:round;stroke-dasharray:none;stroke-opacity:1;paint-order:markers fill stroke"
             d="m -101.30851,175.53594 -1.54348,3.55468 2.899869,2.5257 2.759559,-2.5257 -0.187089,-2.52569 -2.478924,-0.8419 z"
             id="path1369" /><path
             style="opacity:1;fill:#ffffff;fill-opacity:1;stroke:#000000;stroke-width:0.12;stroke-linecap:round;stroke-dasharray:none;stroke-opacity:1;paint-order:markers fill stroke"
             d="m -100.51339,176.93911 0.748359,-0.23387 0.420949,0.65482 1.169305,0.0935 -0.280633,0.60804"
             id="path1370" /><path
             style="opacity:1;fill:#ffffff;fill-opacity:1;stroke:#000000;stroke-width:0.12;stroke-linecap:round;stroke-dasharray:none;stroke-opacity:1;paint-order:markers fill stroke"
             d="m -99.390855,178.57613 0.748356,0.88867 -0.888672,0.46772 -0.46772,0.5145"
             id="path1371" /></g><g
           id="g1374"
           transform="matrix(0.17880422,0,0,0.17880422,-82.851,156.23853)"><path
             style="opacity:1;fill:#ffffff;fill-opacity:1;stroke:#000000;stroke-width:0.12;stroke-linecap:round;stroke-dasharray:none;stroke-opacity:1;paint-order:markers fill stroke"
             d="m -101.30851,175.53594 -1.54348,3.55468 2.899869,2.5257 2.759559,-2.5257 -0.187089,-2.52569 -2.478924,-0.8419 z"
             id="path1372" /><path
             style="opacity:1;fill:#ffffff;fill-opacity:1;stroke:#000000;stroke-width:0.12;stroke-linecap:round;stroke-dasharray:none;stroke-opacity:1;paint-order:markers fill stroke"
             d="m -100.51339,176.93911 0.748359,-0.23387 0.420949,0.65482 1.169305,0.0935 -0.280633,0.60804"
             id="path1373" /><path
             style="opacity:1;fill:#ffffff;fill-opacity:1;stroke:#000000;stroke-width:0.12;stroke-linecap:round;stroke-dasharray:none;stroke-opacity:1;paint-order:markers fill stroke"
             d="m -99.390855,178.57613 0.748356,0.88867 -0.888672,0.46772 -0.46772,0.5145"
             id="path1374" /></g><g
           id="g1377"
           transform="matrix(0.17880422,0,0,0.17880422,-83.64475,158.3552)"><path
             style="opacity:1;fill:#ffffff;fill-opacity:1;stroke:#000000;stroke-width:0.12;stroke-linecap:round;stroke-dasharray:none;stroke-opacity:1;paint-order:markers fill stroke"
             d="m -101.30851,175.53594 -1.54348,3.55468 2.899869,2.5257 2.759559,-2.5257 -0.187089,-2.52569 -2.478924,-0.8419 z"
             id="path1375" /><path
             style="opacity:1;fill:#ffffff;fill-opacity:1;stroke:#000000;stroke-width:0.12;stroke-linecap:round;stroke-dasharray:none;stroke-opacity:1;paint-order:markers fill stroke"
             d="m -100.51339,176.93911 0.748359,-0.23387 0.420949,0.65482 1.169305,0.0935 -0.280633,0.60804"
             id="path1376" /><path
             style="opacity:1;fill:#ffffff;fill-opacity:1;stroke:#000000;stroke-width:0.12;stroke-linecap:round;stroke-dasharray:none;stroke-opacity:1;paint-order:markers fill stroke"
             d="m -99.390855,178.57613 0.748356,0.88867 -0.888672,0.46772 -0.46772,0.5145"
             id="path1377" /></g><g
           id="g1380"
           transform="matrix(0.17880422,0,0,0.17880422,-78.948396,156.96614)"><path
             style="opacity:1;fill:#ffffff;fill-opacity:1;stroke:#000000;stroke-width:0.12;stroke-linecap:round;stroke-dasharray:none;stroke-opacity:1;paint-order:markers fill stroke"
             d="m -101.30851,175.53594 -1.54348,3.55468 2.899869,2.5257 2.759559,-2.5257 -0.187089,-2.52569 -2.478924,-0.8419 z"
             id="path1378" /><path
             style="opacity:1;fill:#ffffff;fill-opacity:1;stroke:#000000;stroke-width:0.12;stroke-linecap:round;stroke-dasharray:none;stroke-opacity:1;paint-order:markers fill stroke"
             d="m -100.51339,176.93911 0.748359,-0.23387 0.420949,0.65482 1.169305,0.0935 -0.280633,0.60804"
             id="path1379" /><path
             style="opacity:1;fill:#ffffff;fill-opacity:1;stroke:#000000;stroke-width:0.12;stroke-linecap:round;stroke-dasharray:none;stroke-opacity:1;paint-order:markers fill stroke"
             d="m -99.390855,178.57613 0.748356,0.88867 -0.888672,0.46772 -0.46772,0.5145"
             id="path1380" /></g></g><g
         id="g1419"
         transform="matrix(-0.617264,-0.09353637,0.09353637,-0.617264,-174.17198,296.30056)"><circle
           id="circle1382"
           style="fill:#ffffff;stroke:#010401;stroke-width:0.264583"
           cx="-99.484398"
           cy="187.27576"
           r="0.00047105772" /><g
           id="g1385"
           transform="matrix(0.26379603,0,0,0.26379603,-75.230932,140.36074)"><path
             style="opacity:1;fill:#ffffff;fill-opacity:1;stroke:#000000;stroke-width:0.12;stroke-linecap:round;stroke-dasharray:none;stroke-opacity:1;paint-order:markers fill stroke"
             d="m -101.30851,175.53594 -1.54348,3.55468 2.899869,2.5257 2.759559,-2.5257 -0.187089,-2.52569 -2.478924,-0.8419 z"
             id="path1383" /><path
             style="opacity:1;fill:#ffffff;fill-opacity:1;stroke:#000000;stroke-width:0.12;stroke-linecap:round;stroke-dasharray:none;stroke-opacity:1;paint-order:markers fill stroke"
             d="m -100.51339,176.93911 0.748359,-0.23387 0.420949,0.65482 1.169305,0.0935 -0.280633,0.60804"
             id="path1384" /><path
             style="opacity:1;fill:#ffffff;fill-opacity:1;stroke:#000000;stroke-width:0.12;stroke-linecap:round;stroke-dasharray:none;stroke-opacity:1;paint-order:markers fill stroke"
             d="m -99.390855,178.57613 0.748356,0.88867 -0.888672,0.46772 -0.46772,0.5145"
             id="path1385" /></g><g
           id="g1388"
           transform="matrix(-0.31611692,0.20446886,-0.20446886,-0.31611692,-95.134104,266.64471)"><path
             style="opacity:1;fill:#ffffff;fill-opacity:1;stroke:#000000;stroke-width:0.12;stroke-linecap:round;stroke-dasharray:none;stroke-opacity:1;paint-order:markers fill stroke"
             d="m -101.30851,175.53594 -1.54348,3.55468 2.899869,2.5257 2.759559,-2.5257 -0.187089,-2.52569 -2.478924,-0.8419 z"
             id="path1386" /><path
             style="opacity:1;fill:#ffffff;fill-opacity:1;stroke:#000000;stroke-width:0.12;stroke-linecap:round;stroke-dasharray:none;stroke-opacity:1;paint-order:markers fill stroke"
             d="m -100.51339,176.93911 0.748359,-0.23387 0.420949,0.65482 1.169305,0.0935 -0.280633,0.60804"
             id="path1387" /><path
             style="opacity:1;fill:#ffffff;fill-opacity:1;stroke:#000000;stroke-width:0.12;stroke-linecap:round;stroke-dasharray:none;stroke-opacity:1;paint-order:markers fill stroke"
             d="m -99.390855,178.57613 0.748356,0.88867 -0.888672,0.46772 -0.46772,0.5145"
             id="path1388" /></g><g
           id="g1391"
           transform="matrix(0.37648031,0,0,0.37648031,-57.973524,120.40086)"><path
             style="opacity:1;fill:#ffffff;fill-opacity:1;stroke:#000000;stroke-width:0.12;stroke-linecap:round;stroke-dasharray:none;stroke-opacity:1;paint-order:markers fill stroke"
             d="m -101.30851,175.53594 -1.54348,3.55468 2.899869,2.5257 2.759559,-2.5257 -0.187089,-2.52569 -2.478924,-0.8419 z"
             id="path1389" /><path
             style="opacity:1;fill:#ffffff;fill-opacity:1;stroke:#000000;stroke-width:0.12;stroke-linecap:round;stroke-dasharray:none;stroke-opacity:1;paint-order:markers fill stroke"
             d="m -100.51339,176.93911 0.748359,-0.23387 0.420949,0.65482 1.169305,0.0935 -0.280633,0.60804"
             id="path1390" /><path
             style="opacity:1;fill:#ffffff;fill-opacity:1;stroke:#000000;stroke-width:0.12;stroke-linecap:round;stroke-dasharray:none;stroke-opacity:1;paint-order:markers fill stroke"
             d="m -99.390855,178.57613 0.748356,0.88867 -0.888672,0.46772 -0.46772,0.5145"
             id="path1391" /></g><g
           id="g1394"
           transform="matrix(0.02889316,-0.26220894,0.26220894,0.02889316,-146.30229,158.00011)"><path
             style="opacity:1;fill:#ffffff;fill-opacity:1;stroke:#000000;stroke-width:0.12;stroke-linecap:round;stroke-dasharray:none;stroke-opacity:1;paint-order:markers fill stroke"
             d="m -101.30851,175.53594 -1.54348,3.55468 2.899869,2.5257 2.759559,-2.5257 -0.187089,-2.52569 -2.478924,-0.8419 z"
             id="path1392" /><path
             style="opacity:1;fill:#ffffff;fill-opacity:1;stroke:#000000;stroke-width:0.12;stroke-linecap:round;stroke-dasharray:none;stroke-opacity:1;paint-order:markers fill stroke"
             d="m -100.51339,176.93911 0.748359,-0.23387 0.420949,0.65482 1.169305,0.0935 -0.280633,0.60804"
             id="path1393" /><path
             style="opacity:1;fill:#ffffff;fill-opacity:1;stroke:#000000;stroke-width:0.12;stroke-linecap:round;stroke-dasharray:none;stroke-opacity:1;paint-order:markers fill stroke"
             d="m -99.390855,178.57613 0.748356,0.88867 -0.888672,0.46772 -0.46772,0.5145"
             id="path1394" /></g><g
           id="g1397"
           transform="matrix(0.26379603,0,0,0.26379603,-72.237513,140.96878)"><path
             style="opacity:1;fill:#ffffff;fill-opacity:1;stroke:#000000;stroke-width:0.12;stroke-linecap:round;stroke-dasharray:none;stroke-opacity:1;paint-order:markers fill stroke"
             d="m -101.30851,175.53594 -1.54348,3.55468 2.899869,2.5257 2.759559,-2.5257 -0.187089,-2.52569 -2.478924,-0.8419 z"
             id="path1395" /><path
             style="opacity:1;fill:#ffffff;fill-opacity:1;stroke:#000000;stroke-width:0.12;stroke-linecap:round;stroke-dasharray:none;stroke-opacity:1;paint-order:markers fill stroke"
             d="m -100.51339,176.93911 0.748359,-0.23387 0.420949,0.65482 1.169305,0.0935 -0.280633,0.60804"
             id="path1396" /><path
             style="opacity:1;fill:#ffffff;fill-opacity:1;stroke:#000000;stroke-width:0.12;stroke-linecap:round;stroke-dasharray:none;stroke-opacity:1;paint-order:markers fill stroke"
             d="m -99.390855,178.57613 0.748356,0.88867 -0.888672,0.46772 -0.46772,0.5145"
             id="path1397" /></g><g
           id="g1400"
           transform="matrix(0.26379603,0,0,0.26379603,-72.034374,142.25101)"><path
             style="opacity:1;fill:#ffffff;fill-opacity:1;stroke:#000000;stroke-width:0.12;stroke-linecap:round;stroke-dasharray:none;stroke-opacity:1;paint-order:markers fill stroke"
             d="m -101.30851,175.53594 -1.54348,3.55468 2.899869,2.5257 2.759559,-2.5257 -0.187089,-2.52569 -2.478924,-0.8419 z"
             id="path1398" /><path
             style="opacity:1;fill:#ffffff;fill-opacity:1;stroke:#000000;stroke-width:0.12;stroke-linecap:round;stroke-dasharray:none;stroke-opacity:1;paint-order:markers fill stroke"
             d="m -100.51339,176.93911 0.748359,-0.23387 0.420949,0.65482 1.169305,0.0935 -0.280633,0.60804"
             id="path1399" /><path
             style="opacity:1;fill:#ffffff;fill-opacity:1;stroke:#000000;stroke-width:0.12;stroke-linecap:round;stroke-dasharray:none;stroke-opacity:1;paint-order:markers fill stroke"
             d="m -99.390855,178.57613 0.748356,0.88867 -0.888672,0.46772 -0.46772,0.5145"
             id="path1400" /></g><g
           id="g1403"
           transform="matrix(0.26379603,0,0,0.26379603,-69.80536,142.55904)"><path
             style="opacity:1;fill:#ffffff;fill-opacity:1;stroke:#000000;stroke-width:0.12;stroke-linecap:round;stroke-dasharray:none;stroke-opacity:1;paint-order:markers fill stroke"
             d="m -101.30851,175.53594 -1.54348,3.55468 2.899869,2.5257 2.759559,-2.5257 -0.187089,-2.52569 -2.478924,-0.8419 z"
             id="path1401" /><path
             style="opacity:1;fill:#ffffff;fill-opacity:1;stroke:#000000;stroke-width:0.12;stroke-linecap:round;stroke-dasharray:none;stroke-opacity:1;paint-order:markers fill stroke"
             d="m -100.51339,176.93911 0.748359,-0.23387 0.420949,0.65482 1.169305,0.0935 -0.280633,0.60804"
             id="path1402" /><path
             style="opacity:1;fill:#ffffff;fill-opacity:1;stroke:#000000;stroke-width:0.12;stroke-linecap:round;stroke-dasharray:none;stroke-opacity:1;paint-order:markers fill stroke"
             d="m -99.390855,178.57613 0.748356,0.88867 -0.888672,0.46772 -0.46772,0.5145"
             id="path1403" /></g><g
           id="g1406"
           transform="matrix(0.26379603,0,0,0.26379603,-68.074789,141.57682)"><path
             style="opacity:1;fill:#ffffff;fill-opacity:1;stroke:#000000;stroke-width:0.12;stroke-linecap:round;stroke-dasharray:none;stroke-opacity:1;paint-order:markers fill stroke"
             d="m -101.30851,175.53594 -1.54348,3.55468 2.899869,2.5257 2.759559,-2.5257 -0.187089,-2.52569 -2.478924,-0.8419 z"
             id="path1404" /><path
             style="opacity:1;fill:#ffffff;fill-opacity:1;stroke:#000000;stroke-width:0.12;stroke-linecap:round;stroke-dasharray:none;stroke-opacity:1;paint-order:markers fill stroke"
             d="m -100.51339,176.93911 0.748359,-0.23387 0.420949,0.65482 1.169305,0.0935 -0.280633,0.60804"
             id="path1405" /><path
             style="opacity:1;fill:#ffffff;fill-opacity:1;stroke:#000000;stroke-width:0.12;stroke-linecap:round;stroke-dasharray:none;stroke-opacity:1;paint-order:markers fill stroke"
             d="m -99.390855,178.57613 0.748356,0.88867 -0.888672,0.46772 -0.46772,0.5145"
             id="path1406" /></g><g
           id="g1409"
           transform="matrix(0.26379603,0,0,0.26379603,-68.30865,142.93321)"><path
             style="opacity:1;fill:#ffffff;fill-opacity:1;stroke:#000000;stroke-width:0.12;stroke-linecap:round;stroke-dasharray:none;stroke-opacity:1;paint-order:markers fill stroke"
             d="m -101.30851,175.53594 -1.54348,3.55468 2.899869,2.5257 2.759559,-2.5257 -0.187089,-2.52569 -2.478924,-0.8419 z"
             id="path1407" /><path
             style="opacity:1;fill:#ffffff;fill-opacity:1;stroke:#000000;stroke-width:0.12;stroke-linecap:round;stroke-dasharray:none;stroke-opacity:1;paint-order:markers fill stroke"
             d="m -100.51339,176.93911 0.748359,-0.23387 0.420949,0.65482 1.169305,0.0935 -0.280633,0.60804"
             id="path1408" /><path
             style="opacity:1;fill:#ffffff;fill-opacity:1;stroke:#000000;stroke-width:0.12;stroke-linecap:round;stroke-dasharray:none;stroke-opacity:1;paint-order:markers fill stroke"
             d="m -99.390855,178.57613 0.748356,0.88867 -0.888672,0.46772 -0.46772,0.5145"
             id="path1409" /></g><g
           id="g1412"
           transform="matrix(0.17880422,0,0,0.17880422,-82.851,156.23853)"><path
             style="opacity:1;fill:#ffffff;fill-opacity:1;stroke:#000000;stroke-width:0.12;stroke-linecap:round;stroke-dasharray:none;stroke-opacity:1;paint-order:markers fill stroke"
             d="m -101.30851,175.53594 -1.54348,3.55468 2.899869,2.5257 2.759559,-2.5257 -0.187089,-2.52569 -2.478924,-0.8419 z"
             id="path1410" /><path
             style="opacity:1;fill:#ffffff;fill-opacity:1;stroke:#000000;stroke-width:0.12;stroke-linecap:round;stroke-dasharray:none;stroke-opacity:1;paint-order:markers fill stroke"
             d="m -100.51339,176.93911 0.748359,-0.23387 0.420949,0.65482 1.169305,0.0935 -0.280633,0.60804"
             id="path1411" /><path
             style="opacity:1;fill:#ffffff;fill-opacity:1;stroke:#000000;stroke-width:0.12;stroke-linecap:round;stroke-dasharray:none;stroke-opacity:1;paint-order:markers fill stroke"
             d="m -99.390855,178.57613 0.748356,0.88867 -0.888672,0.46772 -0.46772,0.5145"
             id="path1412" /></g><g
           id="g1415"
           transform="matrix(0.17880422,0,0,0.17880422,-83.64475,158.3552)"><path
             style="opacity:1;fill:#ffffff;fill-opacity:1;stroke:#000000;stroke-width:0.12;stroke-linecap:round;stroke-dasharray:none;stroke-opacity:1;paint-order:markers fill stroke"
             d="m -101.30851,175.53594 -1.54348,3.55468 2.899869,2.5257 2.759559,-2.5257 -0.187089,-2.52569 -2.478924,-0.8419 z"
             id="path1413" /><path
             style="opacity:1;fill:#ffffff;fill-opacity:1;stroke:#000000;stroke-width:0.12;stroke-linecap:round;stroke-dasharray:none;stroke-opacity:1;paint-order:markers fill stroke"
             d="m -100.51339,176.93911 0.748359,-0.23387 0.420949,0.65482 1.169305,0.0935 -0.280633,0.60804"
             id="path1414" /><path
             style="opacity:1;fill:#ffffff;fill-opacity:1;stroke:#000000;stroke-width:0.12;stroke-linecap:round;stroke-dasharray:none;stroke-opacity:1;paint-order:markers fill stroke"
             d="m -99.390855,178.57613 0.748356,0.88867 -0.888672,0.46772 -0.46772,0.5145"
             id="path1415" /></g><g
           id="g1418"
           transform="matrix(0.17880422,0,0,0.17880422,-78.948396,156.96614)"><path
             style="opacity:1;fill:#ffffff;fill-opacity:1;stroke:#000000;stroke-width:0.12;stroke-linecap:round;stroke-dasharray:none;stroke-opacity:1;paint-order:markers fill stroke"
             d="m -101.30851,175.53594 -1.54348,3.55468 2.899869,2.5257 2.759559,-2.5257 -0.187089,-2.52569 -2.478924,-0.8419 z"
             id="path1416" /><path
             style="opacity:1;fill:#ffffff;fill-opacity:1;stroke:#000000;stroke-width:0.12;stroke-linecap:round;stroke-dasharray:none;stroke-opacity:1;paint-order:markers fill stroke"
             d="m -100.51339,176.93911 0.748359,-0.23387 0.420949,0.65482 1.169305,0.0935 -0.280633,0.60804"
             id="path1417" /><path
             style="opacity:1;fill:#ffffff;fill-opacity:1;stroke:#000000;stroke-width:0.12;stroke-linecap:round;stroke-dasharray:none;stroke-opacity:1;paint-order:markers fill stroke"
             d="m -99.390855,178.57613 0.748356,0.88867 -0.888672,0.46772 -0.46772,0.5145"
             id="path1418" /></g></g></g></g></svg>
